# Created by Kenney (www.kenney.nl)

mtllib building-block.mtl

g building-block

v 0.5 0 0.5 1 1 1
v 0.5 0 -0.5 1 1 1
v -0.5 0 0.5 1 1 1
v -0.5 0 -0.5 1 1 1
v -0.5 0.625 -0.5 1 1 1
v 0.5 0.625 -0.5 1 1 1
v 0.5 0.625 0.5 1 1 1
v -0.5 0.625 0.5 1 1 1

vn 0 -1 0
vn 0 0 -1
vn 0 1 0
vn 1 0 0
vn 0 0 1
vn -1 0 0

vt 0.96875 0.025
vt 0.96875 0.225

usemtl colormap

f 3/1/1 2/1/1 1/1/1
f 2/1/1 3/1/1 4/1/1
f 5/2/2 2/1/2 4/1/2
f 2/1/2 5/2/2 6/2/2
f 6/2/3 8/2/3 7/2/3
f 8/2/3 6/2/3 5/2/3
f 7/2/4 2/1/4 6/2/4
f 2/1/4 7/2/4 1/1/4
f 7/2/5 3/1/5 1/1/5
f 3/1/5 7/2/5 8/2/5
f 3/1/6 5/2/6 4/1/6
f 5/2/6 3/1/6 8/2/6

g building-block




usemtl colormap

f 3/1/1 2/1/1 1/1/1
f 2/1/1 3/1/1 4/1/1
f 5/2/2 2/1/2 4/1/2
f 2/1/2 5/2/2 6/2/2
f 6/2/3 8/2/3 7/2/3
f 8/2/3 6/2/3 5/2/3
f 7/2/4 2/1/4 6/2/4
f 2/1/4 7/2/4 1/1/4
f 7/2/5 3/1/5 1/1/5
f 3/1/5 7/2/5 8/2/5
f 3/1/6 5/2/6 4/1/6
f 5/2/6 3/1/6 8/2/6

