# Created by Kenney (www.kenney.nl)

mtllib building-steps-wide.mtl

g building-steps-wide

v -0.5 9.023893E-16 -0.6 1 1 1
v 0.5 9.023893E-16 -0.6 1 1 1
v -0.5 0.2125 -0.6 1 1 1
v 0.5 0.2125 -0.6 1 1 1
v -0.5 9.023893E-16 0.4 1 1 1
v -0.5 0.2125 0.4 1 1 1
v 0.5 9.023893E-16 0.4 1 1 1
v 0.325 9.023893E-16 0.4 1 1 1
v 0.5 0.2125 0.4 1 1 1
v 0.325 0.10625 0.4 1 1 1
v 0.225 0.10625 0.4 1 1 1
v 0.225 0.2125 0.4 1 1 1
v 0.325 0.10625 0.55 1 1 1
v 0.325 9.475087E-16 0.55 1 1 1
v 0.175 0.10625 0.5 1 1 1
v -0.175 0.10625 0.5 1 1 1
v 0.175 0.2125 0.5 1 1 1
v -0.175 0.2125 0.5 1 1 1
v -0.325 0 0.4 1 1 1
v -0.325 0.10625 0.4 1 1 1
v -0.325 2.255973E-17 0.55 1 1 1
v -0.325 0.10625 0.55 1 1 1
v -0.225 0.10625 0.4 1 1 1
v -0.225 0.2125 0.4 1 1 1
v -0.225 0.10625 0.45 1 1 1
v -0.225 0.2125 0.45 1 1 1
v 0.225 0.2125 0.45 1 1 1
v 0.225 0.10625 0.45 1 1 1
v -0.275 6.76792E-17 0.6 1 1 1
v -0.275 0.10625 0.6 1 1 1
v 0.275 9.926282E-16 0.6 1 1 1
v 0.275 0.10625 0.6 1 1 1
v 0.5 0.8375 -0.6 1 1 1
v 0.5 0.8375 0.4 1 1 1
v 0.125 0.2125 0.4 1 1 1
v 0.125 0.7125 0.4 1 1 1
v -0.125 0.7125 0.4 1 1 1
v -0.5 0.8375 0.4 1 1 1
v -0.125 0.2125 0.4 1 1 1
v -0.5 0.8375 -0.6 1 1 1
v -0.125 0.7125 0.3 1 1 1
v -0.125 0.2125 0.3 1 1 1
v 0.125 0.2125 0.3 1 1 1
v 0.125 0.7125 0.3 1 1 1

vn 0 0 -1
vn -1 0 0
vn 0 0 1
vn 1 0 0
vn 0.9238795 0 0.3826834
vn 0.3826834 0 0.9238795
vn -0.3826834 0 0.9238795
vn -0.9238795 0 0.3826834
vn 0 -1 0
vn 0 1 0

vt 0.84375 0.025
vt 0.84375 0.225
vt 0.84375 0.125
vt 0.96875 0.225
vt 0.96875 0.025
vt 0.96875 0.185
vt 0.71875 0.275
vt 0.71875 0.435

usemtl colormap

f 3/2/1 2/1/1 1/1/1
f 2/1/1 3/2/1 4/2/1
f 5/1/2 3/2/2 1/1/2
f 3/2/2 5/1/2 6/2/2
f 9/2/3 8/1/3 7/1/3
f 8/1/3 9/2/3 10/3/3
f 10/3/3 9/2/3 11/3/3
f 11/3/3 9/2/3 12/2/3
f 13/3/5 8/1/4 10/3/4
f 8/1/4 13/3/5 14/1/5
f 17/2/6 16/3/7 15/3/6
f 16/3/7 17/2/6 18/2/7
f 21/1/8 20/3/2 19/1/2
f 20/3/2 21/1/8 22/3/8
f 25/3/8 24/2/2 23/3/2
f 24/2/2 25/3/8 26/2/8
f 27/2/5 11/3/4 12/2/4
f 11/3/4 27/2/5 28/3/5
f 31/1/6 30/3/7 29/1/7
f 30/3/7 31/1/6 32/3/6
f 20/3/3 5/1/3 19/1/3
f 5/1/3 20/3/3 6/2/3
f 6/2/3 20/3/3 23/3/3
f 6/2/3 23/3/3 24/2/3
f 9/2/4 2/1/4 4/2/4
f 2/1/4 9/2/4 7/1/4
f 31/1/9 8/1/9 14/1/9
f 1/1/9 8/1/9 31/1/9
f 1/1/9 31/1/9 29/1/9
f 2/1/9 8/1/9 1/1/9
f 8/1/9 2/1/9 7/1/9
f 1/1/9 29/1/9 19/1/9
f 19/1/9 29/1/9 21/1/9
f 1/1/9 19/1/9 5/1/9
f 10/3/10 32/3/10 13/3/10
f 32/3/10 10/3/10 11/3/10
f 32/3/10 11/3/10 28/3/10
f 15/3/10 32/3/10 28/3/10
f 32/3/10 15/3/10 30/3/10
f 30/3/10 15/3/10 16/3/10
f 30/3/10 16/3/10 25/3/10
f 30/3/10 25/3/10 23/3/10
f 30/3/10 23/3/10 20/3/10
f 30/3/10 20/3/10 22/3/10
f 4/2/10 12/2/10 9/2/10
f 12/2/10 4/2/10 3/2/10
f 12/2/10 3/2/10 17/2/10
f 17/2/10 27/2/10 12/2/10
f 17/2/10 3/2/10 18/2/10
f 18/2/10 3/2/10 24/2/10
f 18/2/10 24/2/10 26/2/10
f 24/2/10 3/2/10 6/2/10
f 29/1/7 22/3/8 21/1/8
f 22/3/8 29/1/7 30/3/7
f 25/3/8 18/2/7 26/2/8
f 18/2/7 25/3/8 16/3/7
f 17/2/6 28/3/5 27/2/5
f 28/3/5 17/2/6 15/3/6
f 32/3/6 14/1/5 13/3/5
f 14/1/5 32/3/6 31/1/6
f 34/4/4 4/5/4 33/4/4
f 4/5/4 34/4/4 9/5/4
f 34/4/3 35/5/3 9/5/3
f 35/5/3 34/4/3 36/6/3
f 36/6/3 34/4/3 37/6/3
f 38/4/3 37/6/3 34/4/3
f 6/5/3 37/6/3 38/4/3
f 37/6/3 6/5/3 39/5/3
f 33/4/10 38/4/10 34/4/10
f 38/4/10 33/4/10 40/4/10
f 6/5/2 40/4/2 3/5/2
f 40/4/2 6/5/2 38/4/2
f 37/6/4 42/5/4 41/6/4
f 42/5/4 37/6/4 39/5/4
f 3/5/1 33/4/1 4/5/1
f 33/4/1 3/5/1 40/4/1
f 35/5/2 44/6/2 43/5/2
f 44/6/2 35/5/2 36/6/2
f 37/6/9 44/6/9 36/6/9
f 44/6/9 37/6/9 41/6/9
f 44/8/3 42/7/3 43/7/3
f 42/7/3 44/8/3 41/8/3

g building-steps-wide




usemtl colormap

f 3/2/1 2/1/1 1/1/1
f 2/1/1 3/2/1 4/2/1
f 5/1/2 3/2/2 1/1/2
f 3/2/2 5/1/2 6/2/2
f 9/2/3 8/1/3 7/1/3
f 8/1/3 9/2/3 10/3/3
f 10/3/3 9/2/3 11/3/3
f 11/3/3 9/2/3 12/2/3
f 13/3/5 8/1/4 10/3/4
f 8/1/4 13/3/5 14/1/5
f 17/2/6 16/3/7 15/3/6
f 16/3/7 17/2/6 18/2/7
f 21/1/8 20/3/2 19/1/2
f 20/3/2 21/1/8 22/3/8
f 25/3/8 24/2/2 23/3/2
f 24/2/2 25/3/8 26/2/8
f 27/2/5 11/3/4 12/2/4
f 11/3/4 27/2/5 28/3/5
f 31/1/6 30/3/7 29/1/7
f 30/3/7 31/1/6 32/3/6
f 20/3/3 5/1/3 19/1/3
f 5/1/3 20/3/3 6/2/3
f 6/2/3 20/3/3 23/3/3
f 6/2/3 23/3/3 24/2/3
f 9/2/4 2/1/4 4/2/4
f 2/1/4 9/2/4 7/1/4
f 31/1/9 8/1/9 14/1/9
f 1/1/9 8/1/9 31/1/9
f 1/1/9 31/1/9 29/1/9
f 2/1/9 8/1/9 1/1/9
f 8/1/9 2/1/9 7/1/9
f 1/1/9 29/1/9 19/1/9
f 19/1/9 29/1/9 21/1/9
f 1/1/9 19/1/9 5/1/9
f 10/3/10 32/3/10 13/3/10
f 32/3/10 10/3/10 11/3/10
f 32/3/10 11/3/10 28/3/10
f 15/3/10 32/3/10 28/3/10
f 32/3/10 15/3/10 30/3/10
f 30/3/10 15/3/10 16/3/10
f 30/3/10 16/3/10 25/3/10
f 30/3/10 25/3/10 23/3/10
f 30/3/10 23/3/10 20/3/10
f 30/3/10 20/3/10 22/3/10
f 4/2/10 12/2/10 9/2/10
f 12/2/10 4/2/10 3/2/10
f 12/2/10 3/2/10 17/2/10
f 17/2/10 27/2/10 12/2/10
f 17/2/10 3/2/10 18/2/10
f 18/2/10 3/2/10 24/2/10
f 18/2/10 24/2/10 26/2/10
f 24/2/10 3/2/10 6/2/10
f 29/1/7 22/3/8 21/1/8
f 22/3/8 29/1/7 30/3/7
f 25/3/8 18/2/7 26/2/8
f 18/2/7 25/3/8 16/3/7
f 17/2/6 28/3/5 27/2/5
f 28/3/5 17/2/6 15/3/6
f 32/3/6 14/1/5 13/3/5
f 14/1/5 32/3/6 31/1/6
f 34/4/4 4/5/4 33/4/4
f 4/5/4 34/4/4 9/5/4
f 34/4/3 35/5/3 9/5/3
f 35/5/3 34/4/3 36/6/3
f 36/6/3 34/4/3 37/6/3
f 38/4/3 37/6/3 34/4/3
f 6/5/3 37/6/3 38/4/3
f 37/6/3 6/5/3 39/5/3
f 33/4/10 38/4/10 34/4/10
f 38/4/10 33/4/10 40/4/10
f 6/5/2 40/4/2 3/5/2
f 40/4/2 6/5/2 38/4/2
f 37/6/4 42/5/4 41/6/4
f 42/5/4 37/6/4 39/5/4
f 3/5/1 33/4/1 4/5/1
f 33/4/1 3/5/1 40/4/1
f 35/5/2 44/6/2 43/5/2
f 44/6/2 35/5/2 36/6/2
f 37/6/9 44/6/9 36/6/9
f 44/6/9 37/6/9 41/6/9
f 44/8/3 42/7/3 43/7/3
f 42/7/3 44/8/3 41/8/3

