# Created by Kenney (www.kenney.nl)

mtllib building-steps-narrow.mtl

g building-steps-narrow

v -0.125 0.10625 0.65 1 1 1
v -0.125 0 0.65 1 1 1
v -0.125 0.10625 0.55 1 1 1
v -0.125 2.255973E-17 0.5 1 1 1
v -0.125 0.2125 0.5 1 1 1
v -0.125 0.2125 0.55 1 1 1
v -0.5 2.255973E-17 -0.5 1 1 1
v 0.5 2.255973E-17 -0.5 1 1 1
v -0.5 0.2125 -0.5 1 1 1
v 0.5 0.2125 -0.5 1 1 1
v -0.5 2.255973E-17 0.5 1 1 1
v -0.5 0.2125 0.5 1 1 1
v -0.075 4.511946E-17 0.7 1 1 1
v -0.075 0.10625 0.7 1 1 1
v 0.075 6.76792E-17 0.7 1 1 1
v 0.075 0.10625 0.7 1 1 1
v 0.125 0.2125 0.5 1 1 1
v 0.125 2.255973E-17 0.5 1 1 1
v 0.125 0.2125 0.55 1 1 1
v 0.125 0.10625 0.55 1 1 1
v 0.125 2.255973E-17 0.65 1 1 1
v 0.125 0.10625 0.65 1 1 1
v 0.5 0.2125 0.5 1 1 1
v 0.5 2.255973E-17 0.5 1 1 1
v 0.075 0.10625 0.6 1 1 1
v -0.075 0.10625 0.6 1 1 1
v 0.075 0.2125 0.6 1 1 1
v -0.075 0.2125 0.6 1 1 1
v -0.125 0.7125 0.4 1 1 1
v -0.125 0.2125 0.4 1 1 1
v -0.125 0.7125 0.5 1 1 1
v -0.5 0.8375 -0.5 1 1 1
v -0.5 0.8375 0.5 1 1 1
v 0.5 0.8375 0.5 1 1 1
v 0.125 0.7125 0.5 1 1 1
v 0.125 0.7125 0.4 1 1 1
v 0.5 0.8375 -0.5 1 1 1
v 0.125 0.2125 0.4 1 1 1

vn -1 0 0
vn 0 0 -1
vn -0.3826834 0 0.9238795
vn 0.3826834 0 0.9238795
vn 1 0 0
vn 0 -1 0
vn 0 0 1
vn 0 1 0
vn -0.7071068 0 0.7071068
vn 0.7071068 0 0.7071068

vt 0.84375 0.125
vt 0.84375 0.025
vt 0.84375 0.225
vt 0.96875 0.185
vt 0.96875 0.025
vt 0.96875 0.225
vt 0.71875 0.275
vt 0.71875 0.435

usemtl colormap

f 3/1/1 2/2/1 1/1/1
f 3/1/1 4/2/1 2/2/1
f 4/2/1 3/1/1 5/3/1
f 6/3/1 5/3/1 3/1/1
f 9/3/2 8/2/2 7/2/2
f 8/2/2 9/3/2 10/3/2
f 11/2/1 9/3/1 7/2/1
f 9/3/1 11/2/1 12/3/1
f 15/2/4 14/1/3 13/2/3
f 14/1/3 15/2/4 16/1/4
f 19/3/5 18/2/5 17/3/5
f 18/2/5 19/3/5 20/1/5
f 18/2/5 20/1/5 21/2/5
f 21/2/5 20/1/5 22/1/5
f 23/3/5 8/2/5 10/3/5
f 8/2/5 23/3/5 24/2/5
f 15/2/6 18/2/6 21/2/6
f 7/2/6 18/2/6 15/2/6
f 8/2/6 18/2/6 7/2/6
f 18/2/6 8/2/6 24/2/6
f 7/2/6 15/2/6 4/2/6
f 7/2/6 4/2/6 11/2/6
f 4/2/6 15/2/6 13/2/6
f 2/2/6 4/2/6 13/2/6
f 23/3/7 18/2/7 24/2/7
f 18/2/7 23/3/7 17/3/7
f 27/3/4 26/1/3 25/1/4
f 26/1/3 27/3/4 28/3/3
f 5/3/7 11/2/7 4/2/7
f 11/2/7 5/3/7 12/3/7
f 10/3/8 17/3/8 23/3/8
f 17/3/8 10/3/8 9/3/8
f 17/3/8 9/3/8 27/3/8
f 27/3/8 19/3/8 17/3/8
f 27/3/8 9/3/8 28/3/8
f 28/3/8 9/3/8 5/3/8
f 28/3/8 5/3/8 6/3/8
f 5/3/8 9/3/8 12/3/8
f 20/1/8 16/1/8 22/1/8
f 16/1/8 20/1/8 25/1/8
f 16/1/8 25/1/8 14/1/8
f 14/1/8 25/1/8 26/1/8
f 14/1/8 26/1/8 3/1/8
f 14/1/8 3/1/8 1/1/8
f 13/2/3 1/1/9 2/2/9
f 1/1/9 13/2/3 14/1/3
f 16/1/4 21/2/10 22/1/10
f 21/2/10 16/1/4 15/2/4
f 27/3/4 20/1/10 19/3/10
f 20/1/10 27/3/4 25/1/4
f 26/1/3 6/3/9 3/1/9
f 6/3/9 26/1/3 28/3/3
f 31/4/5 30/5/5 29/4/5
f 30/5/5 31/4/5 5/5/5
f 12/5/1 32/6/1 9/5/1
f 32/6/1 12/5/1 33/6/1
f 34/6/7 17/5/7 23/5/7
f 17/5/7 34/6/7 35/4/7
f 35/4/7 34/6/7 31/4/7
f 33/6/7 31/4/7 34/6/7
f 12/5/7 31/4/7 33/6/7
f 31/4/7 12/5/7 5/5/7
f 31/4/6 36/4/6 35/4/6
f 36/4/6 31/4/6 29/4/6
f 34/6/5 10/5/5 37/6/5
f 10/5/5 34/6/5 23/5/5
f 37/6/8 33/6/8 34/6/8
f 33/6/8 37/6/8 32/6/8
f 9/5/2 37/6/2 10/5/2
f 37/6/2 9/5/2 32/6/2
f 17/5/1 36/4/1 38/5/1
f 36/4/1 17/5/1 35/4/1
f 36/8/7 30/7/7 38/7/7
f 30/7/7 36/8/7 29/8/7

g building-steps-narrow




usemtl colormap

f 3/1/1 2/2/1 1/1/1
f 3/1/1 4/2/1 2/2/1
f 4/2/1 3/1/1 5/3/1
f 6/3/1 5/3/1 3/1/1
f 9/3/2 8/2/2 7/2/2
f 8/2/2 9/3/2 10/3/2
f 11/2/1 9/3/1 7/2/1
f 9/3/1 11/2/1 12/3/1
f 15/2/4 14/1/3 13/2/3
f 14/1/3 15/2/4 16/1/4
f 19/3/5 18/2/5 17/3/5
f 18/2/5 19/3/5 20/1/5
f 18/2/5 20/1/5 21/2/5
f 21/2/5 20/1/5 22/1/5
f 23/3/5 8/2/5 10/3/5
f 8/2/5 23/3/5 24/2/5
f 15/2/6 18/2/6 21/2/6
f 7/2/6 18/2/6 15/2/6
f 8/2/6 18/2/6 7/2/6
f 18/2/6 8/2/6 24/2/6
f 7/2/6 15/2/6 4/2/6
f 7/2/6 4/2/6 11/2/6
f 4/2/6 15/2/6 13/2/6
f 2/2/6 4/2/6 13/2/6
f 23/3/7 18/2/7 24/2/7
f 18/2/7 23/3/7 17/3/7
f 27/3/4 26/1/3 25/1/4
f 26/1/3 27/3/4 28/3/3
f 5/3/7 11/2/7 4/2/7
f 11/2/7 5/3/7 12/3/7
f 10/3/8 17/3/8 23/3/8
f 17/3/8 10/3/8 9/3/8
f 17/3/8 9/3/8 27/3/8
f 27/3/8 19/3/8 17/3/8
f 27/3/8 9/3/8 28/3/8
f 28/3/8 9/3/8 5/3/8
f 28/3/8 5/3/8 6/3/8
f 5/3/8 9/3/8 12/3/8
f 20/1/8 16/1/8 22/1/8
f 16/1/8 20/1/8 25/1/8
f 16/1/8 25/1/8 14/1/8
f 14/1/8 25/1/8 26/1/8
f 14/1/8 26/1/8 3/1/8
f 14/1/8 3/1/8 1/1/8
f 13/2/3 1/1/9 2/2/9
f 1/1/9 13/2/3 14/1/3
f 16/1/4 21/2/10 22/1/10
f 21/2/10 16/1/4 15/2/4
f 27/3/4 20/1/10 19/3/10
f 20/1/10 27/3/4 25/1/4
f 26/1/3 6/3/9 3/1/9
f 6/3/9 26/1/3 28/3/3
f 31/4/5 30/5/5 29/4/5
f 30/5/5 31/4/5 5/5/5
f 12/5/1 32/6/1 9/5/1
f 32/6/1 12/5/1 33/6/1
f 34/6/7 17/5/7 23/5/7
f 17/5/7 34/6/7 35/4/7
f 35/4/7 34/6/7 31/4/7
f 33/6/7 31/4/7 34/6/7
f 12/5/7 31/4/7 33/6/7
f 31/4/7 12/5/7 5/5/7
f 31/4/6 36/4/6 35/4/6
f 36/4/6 31/4/6 29/4/6
f 34/6/5 10/5/5 37/6/5
f 10/5/5 34/6/5 23/5/5
f 37/6/8 33/6/8 34/6/8
f 33/6/8 37/6/8 32/6/8
f 9/5/2 37/6/2 10/5/2
f 37/6/2 9/5/2 32/6/2
f 17/5/1 36/4/1 38/5/1
f 36/4/1 17/5/1 35/4/1
f 36/8/7 30/7/7 38/7/7
f 30/7/7 36/8/7 29/8/7

