# Created by Kenney (www.kenney.nl)

mtllib building-windows-high-top-square.mtl

g building-windows-high-top-square

v 0.5 0.625 0.5 1 1 1
v -0.5 0.625 0.5 1 1 1
v 0.5 0.625 -0.5 1 1 1
v -0.5 0.625 -0.5 1 1 1
v -0.5 0 -0.5 1 1 1
v -0.5 0 0.5 1 1 1
v 0.0625 0.5 0.4 1 1 1
v 0.0625 0 0.4 1 1 1
v 0.0625 0.5 0.5 1 1 1
v 0.0625 0 0.5 1 1 1
v -0.0625 0 0.5 1 1 1
v -0.0625 0 0.4 1 1 1
v -0.375 0 0.4 1 1 1
v 0.375 0 0.4 1 1 1
v -0.375 0 0.5 1 1 1
v 0.5 0 -0.5 1 1 1
v 0.375 0 0.5 1 1 1
v 0.5 0 0.5 1 1 1
v 0.375 0.5 0.5 1 1 1
v 0.375 0.5 0.4 1 1 1
v -0.0625 0.5 0.5 1 1 1
v -0.0625 0.5 0.4 1 1 1
v -0.375 0.5 0.5 1 1 1
v -0.375 0.5 0.4 1 1 1

vn 0 1 0
vn -1 0 0
vn 1 0 0
vn 0 -1 0
vn 0 0 -1
vn 0 0 1

vt 0.96875 0.225
vt 0.96875 0.025
vt 0.96875 0.185
vt 0.71875 0.275
vt 0.71875 0.435

usemtl colormap

f 3/1/1 2/1/1 1/1/1
f 2/1/1 3/1/1 4/1/1
f 6/2/2 4/1/2 5/2/2
f 4/1/2 6/2/2 2/1/2
f 9/3/3 8/2/3 7/3/3
f 8/2/3 9/3/3 10/2/3
f 11/2/4 8/2/4 10/2/4
f 12/2/4 8/2/4 11/2/4
f 5/2/4 8/2/4 12/2/4
f 5/2/4 12/2/4 13/2/4
f 5/2/4 14/2/4 8/2/4
f 5/2/4 13/2/4 6/2/4
f 6/2/4 13/2/4 15/2/4
f 16/2/4 14/2/4 5/2/4
f 16/2/4 17/2/4 14/2/4
f 17/2/4 16/2/4 18/2/4
f 9/3/4 20/3/4 19/3/4
f 20/3/4 9/3/4 7/3/4
f 23/3/4 22/3/4 21/3/4
f 22/3/4 23/3/4 24/3/4
f 23/3/3 13/2/3 24/3/3
f 13/2/3 23/3/3 15/2/3
f 11/2/2 22/3/2 12/2/2
f 22/3/2 11/2/2 21/3/2
f 17/2/2 20/3/2 14/2/2
f 20/3/2 17/2/2 19/3/2
f 4/1/5 16/2/5 5/2/5
f 16/2/5 4/1/5 3/1/5
f 1/1/3 16/2/3 3/1/3
f 16/2/3 1/1/3 18/2/3
f 1/1/6 17/2/6 18/2/6
f 17/2/6 1/1/6 19/3/6
f 19/3/6 1/1/6 9/3/6
f 9/3/6 1/1/6 21/3/6
f 11/2/6 9/3/6 21/3/6
f 9/3/6 11/2/6 10/2/6
f 21/3/6 1/1/6 23/3/6
f 2/1/6 23/3/6 1/1/6
f 6/2/6 23/3/6 2/1/6
f 23/3/6 6/2/6 15/2/6
f 22/5/6 13/4/6 12/4/6
f 13/4/6 22/5/6 24/5/6
f 20/5/6 8/4/6 14/4/6
f 8/4/6 20/5/6 7/5/6

g building-windows-high-top-square




usemtl colormap

f 3/1/1 2/1/1 1/1/1
f 2/1/1 3/1/1 4/1/1
f 6/2/2 4/1/2 5/2/2
f 4/1/2 6/2/2 2/1/2
f 9/3/3 8/2/3 7/3/3
f 8/2/3 9/3/3 10/2/3
f 11/2/4 8/2/4 10/2/4
f 12/2/4 8/2/4 11/2/4
f 5/2/4 8/2/4 12/2/4
f 5/2/4 12/2/4 13/2/4
f 5/2/4 14/2/4 8/2/4
f 5/2/4 13/2/4 6/2/4
f 6/2/4 13/2/4 15/2/4
f 16/2/4 14/2/4 5/2/4
f 16/2/4 17/2/4 14/2/4
f 17/2/4 16/2/4 18/2/4
f 9/3/4 20/3/4 19/3/4
f 20/3/4 9/3/4 7/3/4
f 23/3/4 22/3/4 21/3/4
f 22/3/4 23/3/4 24/3/4
f 23/3/3 13/2/3 24/3/3
f 13/2/3 23/3/3 15/2/3
f 11/2/2 22/3/2 12/2/2
f 22/3/2 11/2/2 21/3/2
f 17/2/2 20/3/2 14/2/2
f 20/3/2 17/2/2 19/3/2
f 4/1/5 16/2/5 5/2/5
f 16/2/5 4/1/5 3/1/5
f 1/1/3 16/2/3 3/1/3
f 16/2/3 1/1/3 18/2/3
f 1/1/6 17/2/6 18/2/6
f 17/2/6 1/1/6 19/3/6
f 19/3/6 1/1/6 9/3/6
f 9/3/6 1/1/6 21/3/6
f 11/2/6 9/3/6 21/3/6
f 9/3/6 11/2/6 10/2/6
f 21/3/6 1/1/6 23/3/6
f 2/1/6 23/3/6 1/1/6
f 6/2/6 23/3/6 2/1/6
f 23/3/6 6/2/6 15/2/6
f 22/5/6 13/4/6 12/4/6
f 13/4/6 22/5/6 24/5/6
f 20/5/6 8/4/6 14/4/6
f 8/4/6 20/5/6 7/5/6

