# Created by Kenney (www.kenney.nl)

mtllib building-window.mtl

g building-window

v 0.5 0.625 -0.5 1 1 1
v 0.5 0 -0.5 1 1 1
v 0.5 0.625 0.5 1 1 1
v 0.5 0 0.5 1 1 1
v 0.15625 0.5 0.5 1 1 1
v 0.15625 0.5 0.4 1 1 1
v -0.15625 0.5 0.5 1 1 1
v -0.15625 0.5 0.4 1 1 1
v -0.5 0 0.5 1 1 1
v -0.5 0 -0.5 1 1 1
v 0.15625 0.12 0.5 1 1 1
v -0.15625 0.12 0.5 1 1 1
v 0.15625 0.12 0.4 1 1 1
v -0.15625 0.12 0.4 1 1 1
v -0.5 0.625 -0.5 1 1 1
v -0.5 0.625 0.5 1 1 1

vn 1 0 0
vn 0 -1 0
vn 0 1 0
vn -1 0 0
vn 0 0 -1
vn 0 0 1

vt 0.96875 0.225
vt 0.96875 0.025
vt 0.96875 0.185
vt 0.96875 0.0634
vt 0.71875 0.3134
vt 0.71875 0.435

usemtl colormap

f 3/1/1 2/2/1 1/1/1
f 2/2/1 3/1/1 4/2/1
f 7/3/2 6/3/2 5/3/2
f 6/3/2 7/3/2 8/3/2
f 9/2/2 2/2/2 4/2/2
f 2/2/2 9/2/2 10/2/2
f 13/4/3 12/4/3 11/4/3
f 12/4/3 13/4/3 14/4/3
f 7/3/1 14/4/1 8/3/1
f 14/4/1 7/3/1 12/4/1
f 9/2/4 15/1/4 10/2/4
f 15/1/4 9/2/4 16/1/4
f 1/1/3 16/1/3 3/1/3
f 16/1/3 1/1/3 15/1/3
f 15/1/5 2/2/5 10/2/5
f 2/2/5 15/1/5 1/1/5
f 11/4/4 6/3/4 13/4/4
f 6/3/4 11/4/4 5/3/4
f 11/4/6 3/1/6 5/3/6
f 5/3/6 3/1/6 7/3/6
f 11/4/6 4/2/6 3/1/6
f 16/1/6 7/3/6 3/1/6
f 4/2/6 11/4/6 9/2/6
f 16/1/6 12/4/6 7/3/6
f 9/2/6 12/4/6 16/1/6
f 12/4/6 9/2/6 11/4/6
f 6/6/6 14/5/6 13/5/6
f 14/5/6 6/6/6 8/6/6

g building-window




usemtl colormap

f 3/1/1 2/2/1 1/1/1
f 2/2/1 3/1/1 4/2/1
f 7/3/2 6/3/2 5/3/2
f 6/3/2 7/3/2 8/3/2
f 9/2/2 2/2/2 4/2/2
f 2/2/2 9/2/2 10/2/2
f 13/4/3 12/4/3 11/4/3
f 12/4/3 13/4/3 14/4/3
f 7/3/1 14/4/1 8/3/1
f 14/4/1 7/3/1 12/4/1
f 9/2/4 15/1/4 10/2/4
f 15/1/4 9/2/4 16/1/4
f 1/1/3 16/1/3 3/1/3
f 16/1/3 1/1/3 15/1/3
f 15/1/5 2/2/5 10/2/5
f 2/2/5 15/1/5 1/1/5
f 11/4/4 6/3/4 13/4/4
f 6/3/4 11/4/4 5/3/4
f 11/4/6 3/1/6 5/3/6
f 5/3/6 3/1/6 7/3/6
f 11/4/6 4/2/6 3/1/6
f 16/1/6 7/3/6 3/1/6
f 4/2/6 11/4/6 9/2/6
f 16/1/6 12/4/6 7/3/6
f 9/2/6 12/4/6 16/1/6
f 12/4/6 9/2/6 11/4/6
f 6/6/6 14/5/6 13/5/6
f 14/5/6 6/6/6 8/6/6

