# Created by Kenney (www.kenney.nl)

mtllib building-corner-window-narrow.mtl

g building-corner-window-narrow

v 0.3383884 2.932765E-16 0.1616116 1 1 1
v 0.2676777 2.932765E-16 0.09090097 1 1 1
v 0.3383884 0.5 0.1616116 1 1 1
v 0.2676777 0.5 0.09090097 1 1 1
v 0.5 0.625 -0.5 1 1 1
v 0.5 0 -0.5 1 1 1
v 0.5 0.625 -4.995627E-13 1 1 1
v 0.5 4.511946E-17 -4.988408E-13 1 1 1
v 0.1616116 3.38396E-16 0.3383884 1 1 1
v 0.09090097 3.38396E-16 0.2676777 1 1 1
v 7.507879E-13 5.86553E-16 0.5 1 1 1
v -0.5 0 -0.5 1 1 1
v -0.5 0 0.5 1 1 1
v 7.507879E-13 0.625 0.5 1 1 1
v 0.1616116 0.5 0.3383884 1 1 1
v -0.5 0.625 0.5 1 1 1
v 0.09090097 0.5 0.2676777 1 1 1
v -0.5 0.625 -0.5 1 1 1

vn -0.7071068 0 0.7071068
vn 1 0 0
vn 0 -1 0
vn 0.7071068 0 0.7071068
vn 0 0 1
vn 0.7071068 0 -0.7071068
vn 0 1 0
vn -1 0 0
vn 0 0 -1

vt 0.96875 0.025
vt 0.96875 0.185
vt 0.96875 0.225
vt 0.71875 0.435
vt 0.71875 0.275

usemtl colormap

f 3/2/1 2/1/1 1/1/1
f 2/1/1 3/2/1 4/2/1
f 7/3/2 6/1/2 5/3/2
f 6/1/2 7/3/2 8/1/2
f 11/1/3 10/1/3 9/1/3
f 12/1/3 10/1/3 11/1/3
f 12/1/3 11/1/3 13/1/3
f 12/1/3 2/1/3 10/1/3
f 6/1/3 2/1/3 12/1/3
f 6/1/3 1/1/3 2/1/3
f 1/1/3 6/1/3 8/1/3
f 9/1/4 14/3/4 11/1/4
f 15/2/4 14/3/4 9/1/4
f 3/2/4 14/3/4 15/2/4
f 3/2/4 7/3/4 14/3/4
f 7/3/4 3/2/4 8/1/4
f 1/1/4 8/1/4 3/2/4
f 11/1/5 16/3/5 13/1/5
f 16/3/5 11/1/5 14/3/5
f 17/2/6 9/1/6 10/1/6
f 9/1/6 17/2/6 15/2/6
f 15/2/3 4/2/3 3/2/3
f 4/2/3 15/2/3 17/2/3
f 5/3/7 14/3/7 7/3/7
f 14/3/7 5/3/7 18/3/7
f 14/3/7 18/3/7 16/3/7
f 13/1/8 18/3/8 12/1/8
f 18/3/8 13/1/8 16/3/8
f 18/3/9 6/1/9 12/1/9
f 6/1/9 18/3/9 5/3/9
f 17/4/4 2/5/4 4/4/4
f 2/5/4 17/4/4 10/5/4

g building-corner-window-narrow




usemtl colormap

f 3/2/1 2/1/1 1/1/1
f 2/1/1 3/2/1 4/2/1
f 7/3/2 6/1/2 5/3/2
f 6/1/2 7/3/2 8/1/2
f 11/1/3 10/1/3 9/1/3
f 12/1/3 10/1/3 11/1/3
f 12/1/3 11/1/3 13/1/3
f 12/1/3 2/1/3 10/1/3
f 6/1/3 2/1/3 12/1/3
f 6/1/3 1/1/3 2/1/3
f 1/1/3 6/1/3 8/1/3
f 9/1/4 14/3/4 11/1/4
f 15/2/4 14/3/4 9/1/4
f 3/2/4 14/3/4 15/2/4
f 3/2/4 7/3/4 14/3/4
f 7/3/4 3/2/4 8/1/4
f 1/1/4 8/1/4 3/2/4
f 11/1/5 16/3/5 13/1/5
f 16/3/5 11/1/5 14/3/5
f 17/2/6 9/1/6 10/1/6
f 9/1/6 17/2/6 15/2/6
f 15/2/3 4/2/3 3/2/3
f 4/2/3 15/2/3 17/2/3
f 5/3/7 14/3/7 7/3/7
f 14/3/7 5/3/7 18/3/7
f 14/3/7 18/3/7 16/3/7
f 13/1/8 18/3/8 12/1/8
f 18/3/8 13/1/8 16/3/8
f 18/3/9 6/1/9 12/1/9
f 6/1/9 18/3/9 5/3/9
f 17/4/4 2/5/4 4/4/4
f 2/5/4 17/4/4 10/5/4

