# Created by Kenney (www.kenney.nl)

mtllib building-window-left-sill.mtl

g building-window-left-sill

v -0.0625 0.12 0.4 1 1 1
v -0.375 0.12 0.4 1 1 1
v -0.0625 0.5 0.4 1 1 1
v -0.375 0.5 0.4 1 1 1
v -0.5 0 -0.5 1 1 1
v 0.5 0 -0.5 1 1 1
v -0.5 0.625 -0.5 1 1 1
v 0.5 0.625 -0.5 1 1 1
v 0.5 0 0.5 1 1 1
v -0.5 0 0.5 1 1 1
v -0.0625 0.5 0.5 1 1 1
v -0.375 0.5 0.5 1 1 1
v -0.0625 0.06 0.5 1 1 1
v -0.375 0.06 0.5 1 1 1
v -0.1125 0.06 0.55 1 1 1
v -0.325 0.06 0.55 1 1 1
v 0.5 0.625 0.5 1 1 1
v -0.325 0.12 0.55 1 1 1
v -0.1125 0.12 0.55 1 1 1
v -0.5 0.625 0.5 1 1 1
v -0.0625 0.12 0.5 1 1 1
v -0.375 0.12 0.5 1 1 1

vn 0 0 1
vn 0 0 -1
vn 0 -1 0
vn 1 0 0
vn -0.3826834 0 0.9238795
vn 0.3826834 0 0.9238795
vn 0 1 0
vn -1 0 0
vn 0.7071068 0 0.7071068
vn -0.7071068 0 0.7071068

vt 0.71875 0.3134
vt 0.71875 0.435
vt 0.96875 0.025
vt 0.96875 0.225
vt 0.96875 0.185
vt 0.96875 0.0442
vt 0.96875 0.0634

usemtl colormap

f 3/2/1 2/1/1 1/1/1
f 2/1/1 3/2/1 4/2/1
f 7/4/2 6/3/2 5/3/2
f 6/3/2 7/4/2 8/4/2
f 10/3/3 6/3/3 9/3/3
f 6/3/3 10/3/3 5/3/3
f 12/5/3 3/5/3 11/5/3
f 3/5/3 12/5/3 4/5/3
f 15/6/3 14/6/3 13/6/3
f 14/6/3 15/6/3 16/6/3
f 17/4/4 6/3/4 8/4/4
f 6/3/4 17/4/4 9/3/4
f 15/6/6 18/7/5 16/6/5
f 18/7/5 15/6/6 19/7/6
f 8/4/7 20/4/7 17/4/7
f 20/4/7 8/4/7 7/4/7
f 1/7/7 19/7/7 21/7/7
f 19/7/7 1/7/7 2/7/7
f 19/7/7 2/7/7 18/7/7
f 18/7/7 2/7/7 22/7/7
f 21/7/8 3/5/8 1/7/8
f 3/5/8 21/7/8 11/5/8
f 12/5/4 2/7/4 4/5/4
f 2/7/4 12/5/4 22/7/4
f 10/3/8 7/4/8 5/3/8
f 7/4/8 10/3/8 20/4/8
f 19/7/6 13/6/9 21/7/9
f 13/6/9 19/7/6 15/6/6
f 16/6/5 22/7/10 14/6/10
f 22/7/10 16/6/5 18/7/5
f 21/7/1 17/4/1 11/5/1
f 11/5/1 17/4/1 12/5/1
f 13/6/1 17/4/1 21/7/1
f 13/6/1 9/3/1 17/4/1
f 9/3/1 13/6/1 10/3/1
f 14/6/1 10/3/1 13/6/1
f 20/4/1 12/5/1 17/4/1
f 10/3/1 14/6/1 20/4/1
f 20/4/1 22/7/1 12/5/1
f 20/4/1 14/6/1 22/7/1

g building-window-left-sill




usemtl colormap

f 3/2/1 2/1/1 1/1/1
f 2/1/1 3/2/1 4/2/1
f 7/4/2 6/3/2 5/3/2
f 6/3/2 7/4/2 8/4/2
f 10/3/3 6/3/3 9/3/3
f 6/3/3 10/3/3 5/3/3
f 12/5/3 3/5/3 11/5/3
f 3/5/3 12/5/3 4/5/3
f 15/6/3 14/6/3 13/6/3
f 14/6/3 15/6/3 16/6/3
f 17/4/4 6/3/4 8/4/4
f 6/3/4 17/4/4 9/3/4
f 15/6/6 18/7/5 16/6/5
f 18/7/5 15/6/6 19/7/6
f 8/4/7 20/4/7 17/4/7
f 20/4/7 8/4/7 7/4/7
f 1/7/7 19/7/7 21/7/7
f 19/7/7 1/7/7 2/7/7
f 19/7/7 2/7/7 18/7/7
f 18/7/7 2/7/7 22/7/7
f 21/7/8 3/5/8 1/7/8
f 3/5/8 21/7/8 11/5/8
f 12/5/4 2/7/4 4/5/4
f 2/7/4 12/5/4 22/7/4
f 10/3/8 7/4/8 5/3/8
f 7/4/8 10/3/8 20/4/8
f 19/7/6 13/6/9 21/7/9
f 13/6/9 19/7/6 15/6/6
f 16/6/5 22/7/10 14/6/10
f 22/7/10 16/6/5 18/7/5
f 21/7/1 17/4/1 11/5/1
f 11/5/1 17/4/1 12/5/1
f 13/6/1 17/4/1 21/7/1
f 13/6/1 9/3/1 17/4/1
f 9/3/1 13/6/1 10/3/1
f 14/6/1 10/3/1 13/6/1
f 20/4/1 12/5/1 17/4/1
f 10/3/1 14/6/1 20/4/1
f 20/4/1 22/7/1 12/5/1
f 20/4/1 14/6/1 22/7/1

