# Created by Kenney (www.kenney.nl)

mtllib building-corner.mtl

g building-corner

v -0.5 0 0.5 1 1 1
v -0.5 0.625 0.5 1 1 1
v 7.507879E-13 5.86553E-16 0.5 1 1 1
v 7.507879E-13 0.625 0.5 1 1 1
v 0.5 0.625 -4.995627E-13 1 1 1
v 0.5 0.625 -0.5 1 1 1
v -0.5 0.625 -0.5 1 1 1
v -0.5 0 -0.5 1 1 1
v 0.5 0 -0.5 1 1 1
v 0.5 4.511946E-17 -4.988408E-13 1 1 1

vn 0 0 1
vn 0 1 0
vn 0 0 -1
vn 0.7071068 0 0.7071068
vn 0 -1 0
vn -1 0 0
vn 1 0 0

vt 0.96875 0.025
vt 0.96875 0.225

usemtl colormap

f 3/1/1 2/2/1 1/1/1
f 2/2/1 3/1/1 4/2/1
f 6/2/2 4/2/2 5/2/2
f 4/2/2 6/2/2 7/2/2
f 4/2/2 7/2/2 2/2/2
f 7/2/3 9/1/3 8/1/3
f 9/1/3 7/2/3 6/2/3
f 4/2/4 10/1/4 5/2/4
f 10/1/4 4/2/4 3/1/4
f 3/1/5 9/1/5 10/1/5
f 9/1/5 3/1/5 8/1/5
f 8/1/5 3/1/5 1/1/5
f 1/1/6 7/2/6 8/1/6
f 7/2/6 1/1/6 2/2/6
f 5/2/7 9/1/7 6/2/7
f 9/1/7 5/2/7 10/1/7

g building-corner




usemtl colormap

f 3/1/1 2/2/1 1/1/1
f 2/2/1 3/1/1 4/2/1
f 6/2/2 4/2/2 5/2/2
f 4/2/2 6/2/2 7/2/2
f 4/2/2 7/2/2 2/2/2
f 7/2/3 9/1/3 8/1/3
f 9/1/3 7/2/3 6/2/3
f 4/2/4 10/1/4 5/2/4
f 10/1/4 4/2/4 3/1/4
f 3/1/5 9/1/5 10/1/5
f 9/1/5 3/1/5 8/1/5
f 8/1/5 3/1/5 1/1/5
f 1/1/6 7/2/6 8/1/6
f 7/2/6 1/1/6 2/2/6
f 5/2/7 9/1/7 6/2/7
f 9/1/7 5/2/7 10/1/7

