# Created by Kenney (www.kenney.nl)

mtllib building-corner-window.mtl

g building-corner-window

v -0.5 0 0.5 1 1 1
v -0.5 0.625 0.5 1 1 1
v 7.49705E-13 5.86553E-16 0.5 1 1 1
v 7.49705E-13 0.625 0.5 1 1 1
v -0.5 0 -0.5 1 1 1
v 0.5 0 -0.5 1 1 1
v -0.5 0.625 -0.5 1 1 1
v 0.5 0.625 -0.5 1 1 1
v 0.5 0.625 -4.984798E-13 1 1 1
v 0.5 4.511946E-17 -4.984798E-13 1 1 1
v 0.3604854 0.5025 0.1395146 1 1 1
v 0.2897747 0.5025 0.06880388 1 1 1
v 0.1395146 0.5025 0.3604854 1 1 1
v 0.06880388 0.5025 0.2897747 1 1 1
v 0.3604854 0.1225 0.1395146 1 1 1
v 0.2897747 0.1225 0.06880388 1 1 1
v 0.1395146 0.1225 0.3604854 1 1 1
v 0.06880388 0.1225 0.2897747 1 1 1

vn 0 0 1
vn 0 0 -1
vn -1 0 0
vn 0 1 0
vn 1 0 0
vn 0 -1 0
vn -0.7071068 0 0.7071068
vn 0.7071068 0 -0.7071068
vn 0.7071068 0 0.7071068

vt 0.96875 0.025
vt 0.96875 0.225
vt 0.96875 0.1858
vt 0.96875 0.06419999
vt 0.71875 0.4358
vt 0.71875 0.3142

usemtl colormap

f 3/1/1 2/2/1 1/1/1
f 2/2/1 3/1/1 4/2/1
f 7/2/2 6/1/2 5/1/2
f 6/1/2 7/2/2 8/2/2
f 1/1/3 7/2/3 5/1/3
f 7/2/3 1/1/3 2/2/3
f 8/2/4 4/2/4 9/2/4
f 4/2/4 8/2/4 7/2/4
f 4/2/4 7/2/4 2/2/4
f 9/2/5 6/1/5 8/2/5
f 6/1/5 9/2/5 10/1/5
f 3/1/6 6/1/6 10/1/6
f 6/1/6 3/1/6 5/1/6
f 5/1/6 3/1/6 1/1/6
f 13/3/6 12/3/6 11/3/6
f 12/3/6 13/3/6 14/3/6
f 11/3/7 16/4/7 15/4/7
f 16/4/7 11/3/7 12/3/7
f 16/4/4 17/4/4 15/4/4
f 17/4/4 16/4/4 18/4/4
f 14/3/8 17/4/8 18/4/8
f 17/4/8 14/3/8 13/3/8
f 3/1/9 15/4/9 17/4/9
f 3/1/9 17/4/9 13/3/9
f 10/1/9 15/4/9 3/1/9
f 3/1/9 13/3/9 4/2/9
f 15/4/9 10/1/9 11/3/9
f 11/3/9 4/2/9 13/3/9
f 9/2/9 11/3/9 10/1/9
f 11/3/9 9/2/9 4/2/9
f 14/5/9 16/6/9 12/5/9
f 16/6/9 14/5/9 18/6/9

g building-corner-window




usemtl colormap

f 3/1/1 2/2/1 1/1/1
f 2/2/1 3/1/1 4/2/1
f 7/2/2 6/1/2 5/1/2
f 6/1/2 7/2/2 8/2/2
f 1/1/3 7/2/3 5/1/3
f 7/2/3 1/1/3 2/2/3
f 8/2/4 4/2/4 9/2/4
f 4/2/4 8/2/4 7/2/4
f 4/2/4 7/2/4 2/2/4
f 9/2/5 6/1/5 8/2/5
f 6/1/5 9/2/5 10/1/5
f 3/1/6 6/1/6 10/1/6
f 6/1/6 3/1/6 5/1/6
f 5/1/6 3/1/6 1/1/6
f 13/3/6 12/3/6 11/3/6
f 12/3/6 13/3/6 14/3/6
f 11/3/7 16/4/7 15/4/7
f 16/4/7 11/3/7 12/3/7
f 16/4/4 17/4/4 15/4/4
f 17/4/4 16/4/4 18/4/4
f 14/3/8 17/4/8 18/4/8
f 17/4/8 14/3/8 13/3/8
f 3/1/9 15/4/9 17/4/9
f 3/1/9 17/4/9 13/3/9
f 10/1/9 15/4/9 3/1/9
f 3/1/9 13/3/9 4/2/9
f 15/4/9 10/1/9 11/3/9
f 11/3/9 4/2/9 13/3/9
f 9/2/9 11/3/9 10/1/9
f 11/3/9 9/2/9 4/2/9
f 14/5/9 16/6/9 12/5/9
f 16/6/9 14/5/9 18/6/9

