# Created by Kenney (www.kenney.nl)

mtllib building-window-large-left.mtl

g building-window-large-left

v -0.375 0.5 0.4 1 1 1
v -0.375 0 0.4 1 1 1
v -0.375 0.5 0.5 1 1 1
v -0.375 0 0.5 1 1 1
v 0.5 0.625 -0.5 1 1 1
v 0.5 0 -0.5 1 1 1
v 0.5 0.625 0.5 1 1 1
v 0.5 0.5 0.4 1 1 1
v 0.5 0.5 0.5 1 1 1
v 0.5 0 0.4 1 1 1
v -0.5 0 -0.5 1 1 1
v -0.5 0.625 -0.5 1 1 1
v -0.5 0 0.5 1 1 1
v -0.5 0.625 0.5 1 1 1

vn 1 0 0
vn -1 0 0
vn 0 -1 0
vn 0 1 0
vn 0 0 -1
vn 0 0 1

vt 0.96875 0.185
vt 0.96875 0.025
vt 0.96875 0.225
vt 0.71875 0.275
vt 0.71875 0.435

usemtl colormap

f 3/1/1 2/2/1 1/1/1
f 2/2/1 3/1/1 4/2/1
f 7/3/1 6/2/1 5/3/1
f 6/2/1 7/3/1 8/1/1
f 8/1/1 7/3/1 9/1/1
f 10/2/1 6/2/1 8/1/1
f 13/2/2 12/3/2 11/2/2
f 12/3/2 13/2/2 14/3/2
f 13/2/3 2/2/3 4/2/3
f 11/2/3 2/2/3 13/2/3
f 6/2/3 2/2/3 11/2/3
f 2/2/3 6/2/3 10/2/3
f 3/1/3 8/1/3 9/1/3
f 8/1/3 3/1/3 1/1/3
f 5/3/4 14/3/4 7/3/4
f 14/3/4 5/3/4 12/3/4
f 12/3/5 6/2/5 11/2/5
f 6/2/5 12/3/5 5/3/5
f 7/3/6 3/1/6 9/1/6
f 14/3/6 3/1/6 7/3/6
f 13/2/6 3/1/6 14/3/6
f 3/1/6 13/2/6 4/2/6
f 8/5/6 2/4/6 10/4/6
f 2/4/6 8/5/6 1/5/6

g building-window-large-left




usemtl colormap

f 3/1/1 2/2/1 1/1/1
f 2/2/1 3/1/1 4/2/1
f 7/3/1 6/2/1 5/3/1
f 6/2/1 7/3/1 8/1/1
f 8/1/1 7/3/1 9/1/1
f 10/2/1 6/2/1 8/1/1
f 13/2/2 12/3/2 11/2/2
f 12/3/2 13/2/2 14/3/2
f 13/2/3 2/2/3 4/2/3
f 11/2/3 2/2/3 13/2/3
f 6/2/3 2/2/3 11/2/3
f 2/2/3 6/2/3 10/2/3
f 3/1/3 8/1/3 9/1/3
f 8/1/3 3/1/3 1/1/3
f 5/3/4 14/3/4 7/3/4
f 14/3/4 5/3/4 12/3/4
f 12/3/5 6/2/5 11/2/5
f 6/2/5 12/3/5 5/3/5
f 7/3/6 3/1/6 9/1/6
f 14/3/6 3/1/6 7/3/6
f 13/2/6 3/1/6 14/3/6
f 3/1/6 13/2/6 4/2/6
f 8/5/6 2/4/6 10/4/6
f 2/4/6 8/5/6 1/5/6

