# Created by Kenney (www.kenney.nl)

mtllib building-window-large-middle.mtl

g building-window-large-middle

v 0.5 0.625 0.5 1 1 1
v -0.5 0.625 0.5 1 1 1
v 0.5 0.625 -0.5 1 1 1
v -0.5 0.625 -0.5 1 1 1
v -0.5 0 -0.5 1 1 1
v -0.5 0 0.4 1 1 1
v -0.5 0.5 0.4 1 1 1
v -0.5 0.5 0.5 1 1 1
v 0.5 0 0.4 1 1 1
v 0.5 0 -0.5 1 1 1
v 0.5 0.5 0.4 1 1 1
v 0.5 0.5 0.5 1 1 1

vn 0 1 0
vn -1 0 0
vn 0 -1 0
vn 0 0 -1
vn 1 0 0
vn 0 0 1

vt 0.96875 0.225
vt 0.96875 0.025
vt 0.96875 0.185
vt 0.71875 0.275
vt 0.71875 0.435

usemtl colormap

f 3/1/1 2/1/1 1/1/1
f 2/1/1 3/1/1 4/1/1
f 6/2/2 4/1/2 5/2/2
f 4/1/2 6/2/2 7/3/2
f 4/1/2 7/3/2 2/1/2
f 2/1/2 7/3/2 8/3/2
f 6/2/3 10/2/3 9/2/3
f 10/2/3 6/2/3 5/2/3
f 4/1/4 10/2/4 5/2/4
f 10/2/4 4/1/4 3/1/4
f 1/1/5 10/2/5 3/1/5
f 10/2/5 1/1/5 11/3/5
f 11/3/5 1/1/5 12/3/5
f 9/2/5 10/2/5 11/3/5
f 8/3/3 11/3/3 12/3/3
f 11/3/3 8/3/3 7/3/3
f 1/1/6 8/3/6 12/3/6
f 8/3/6 1/1/6 2/1/6
f 11/5/6 6/4/6 9/4/6
f 6/4/6 11/5/6 7/5/6

g building-window-large-middle




usemtl colormap

f 3/1/1 2/1/1 1/1/1
f 2/1/1 3/1/1 4/1/1
f 6/2/2 4/1/2 5/2/2
f 4/1/2 6/2/2 7/3/2
f 4/1/2 7/3/2 2/1/2
f 2/1/2 7/3/2 8/3/2
f 6/2/3 10/2/3 9/2/3
f 10/2/3 6/2/3 5/2/3
f 4/1/4 10/2/4 5/2/4
f 10/2/4 4/1/4 3/1/4
f 1/1/5 10/2/5 3/1/5
f 10/2/5 1/1/5 11/3/5
f 11/3/5 1/1/5 12/3/5
f 9/2/5 10/2/5 11/3/5
f 8/3/3 11/3/3 12/3/3
f 11/3/3 8/3/3 7/3/3
f 1/1/6 8/3/6 12/3/6
f 8/3/6 1/1/6 2/1/6
f 11/5/6 6/4/6 9/4/6
f 6/4/6 11/5/6 7/5/6

