# Created by Kenney (www.kenney.nl)

mtllib building-edges-door.mtl

g building-edges-door

v -0.125 0.5 0.4 1 1 1
v -0.125 0 0.4 1 1 1
v -0.125 0.5 0.5 1 1 1
v -0.125 0 0.5 1 1 1
v -0.25 2.255973E-16 0.5 1 1 1
v -0.5 0 -0.5 1 1 1
v -0.5 2.255973E-16 0.25 1 1 1
v 0.125 0 0.4 1 1 1
v 0.25 2.255973E-16 0.5 1 1 1
v 0.125 0 0.5 1 1 1
v 0.5 0 -0.5 1 1 1
v 0.5 4.511946E-17 0.25 1 1 1
v 0.125 0.5 0.5 1 1 1
v 0.25 0.625 0.5 1 1 1
v -0.25 0.625 0.5 1 1 1
v -0.5 0.625 -0.5 1 1 1
v -0.5 0.625 0.25 1 1 1
v 0.125 0.5 0.4 1 1 1
v 0.5 0.625 0.25 1 1 1
v 0.5 0.625 -0.5 1 1 1

vn 1 0 0
vn 0 -1 0
vn 0 0 1
vn -1 0 0
vn -0.7071068 0 0.7071068
vn 0 1 0
vn 0.7071068 0 0.7071068
vn 0 0 -1

vt 0.96875 0.185
vt 0.96875 0.025
vt 0.96875 0.225
vt 0.71875 0.275
vt 0.71875 0.435

usemtl colormap

f 3/1/1 2/2/1 1/1/1
f 2/2/1 3/1/1 4/2/1
f 5/2/2 2/2/2 4/2/2
f 6/2/2 2/2/2 5/2/2
f 6/2/2 5/2/2 7/2/2
f 6/2/2 8/2/2 2/2/2
f 6/2/2 9/2/2 8/2/2
f 8/2/2 9/2/2 10/2/2
f 11/2/2 9/2/2 6/2/2
f 9/2/2 11/2/2 12/2/2
f 9/2/3 13/1/3 10/2/3
f 13/1/3 9/2/3 14/3/3
f 13/1/3 14/3/3 3/1/3
f 15/3/3 3/1/3 14/3/3
f 5/2/3 3/1/3 15/3/3
f 3/1/3 5/2/3 4/2/3
f 7/2/4 16/3/4 6/2/4
f 16/3/4 7/2/4 17/3/4
f 15/3/5 7/2/5 5/2/5
f 7/2/5 15/3/5 17/3/5
f 3/1/2 18/1/2 13/1/2
f 18/1/2 3/1/2 1/1/2
f 20/3/6 14/3/6 19/3/6
f 14/3/6 20/3/6 16/3/6
f 14/3/6 16/3/6 15/3/6
f 15/3/6 16/3/6 17/3/6
f 14/3/7 12/2/7 19/3/7
f 12/2/7 14/3/7 9/2/7
f 10/2/4 18/1/4 8/2/4
f 18/1/4 10/2/4 13/1/4
f 19/3/1 11/2/1 20/3/1
f 11/2/1 19/3/1 12/2/1
f 16/3/8 11/2/8 6/2/8
f 11/2/8 16/3/8 20/3/8
f 18/5/3 2/4/3 8/4/3
f 2/4/3 18/5/3 1/5/3

g building-edges-door




usemtl colormap

f 3/1/1 2/2/1 1/1/1
f 2/2/1 3/1/1 4/2/1
f 5/2/2 2/2/2 4/2/2
f 6/2/2 2/2/2 5/2/2
f 6/2/2 5/2/2 7/2/2
f 6/2/2 8/2/2 2/2/2
f 6/2/2 9/2/2 8/2/2
f 8/2/2 9/2/2 10/2/2
f 11/2/2 9/2/2 6/2/2
f 9/2/2 11/2/2 12/2/2
f 9/2/3 13/1/3 10/2/3
f 13/1/3 9/2/3 14/3/3
f 13/1/3 14/3/3 3/1/3
f 15/3/3 3/1/3 14/3/3
f 5/2/3 3/1/3 15/3/3
f 3/1/3 5/2/3 4/2/3
f 7/2/4 16/3/4 6/2/4
f 16/3/4 7/2/4 17/3/4
f 15/3/5 7/2/5 5/2/5
f 7/2/5 15/3/5 17/3/5
f 3/1/2 18/1/2 13/1/2
f 18/1/2 3/1/2 1/1/2
f 20/3/6 14/3/6 19/3/6
f 14/3/6 20/3/6 16/3/6
f 14/3/6 16/3/6 15/3/6
f 15/3/6 16/3/6 17/3/6
f 14/3/7 12/2/7 19/3/7
f 12/2/7 14/3/7 9/2/7
f 10/2/4 18/1/4 8/2/4
f 18/1/4 10/2/4 13/1/4
f 19/3/1 11/2/1 20/3/1
f 11/2/1 19/3/1 12/2/1
f 16/3/8 11/2/8 6/2/8
f 11/2/8 16/3/8 20/3/8
f 18/5/3 2/4/3 8/4/3
f 2/4/3 18/5/3 1/5/3

