# Created by Kenney (www.kenney.nl)

mtllib building-corner-top.mtl

g building-corner-top

v 0.5 0.625 -4.992018E-13 1 1 1
v 0.5 1.082867E-15 0.5 1 1 1
v 4.99292E-13 0.625 0.5 1 1 1
v -0.5 0 -0.5 1 1 1
v 0.5 0 -0.5 1 1 1
v -0.5 0.625 -0.5 1 1 1
v 0.5 0.625 -0.5 1 1 1
v -0.5 0.625 0.5 1 1 1
v -0.5 0 0.5 1 1 1

vn 0.6154575 0.492366 0.6154575
vn 0 0 -1
vn 0 1 0
vn 0 -1 0
vn 0 0 1
vn 1 0 0
vn -1 0 0

vt 0.96875 0.225
vt 0.96875 0.025

usemtl colormap

f 3/1/1 2/2/1 1/1/1
f 6/1/2 5/2/2 4/2/2
f 5/2/2 6/1/2 7/1/2
f 7/1/3 3/1/3 1/1/3
f 3/1/3 7/1/3 6/1/3
f 3/1/3 6/1/3 8/1/3
f 9/2/4 5/2/4 2/2/4
f 5/2/4 9/2/4 4/2/4
f 2/2/5 8/1/5 9/2/5
f 8/1/5 2/2/5 3/1/5
f 1/1/6 5/2/6 7/1/6
f 5/2/6 1/1/6 2/2/6
f 9/2/7 6/1/7 4/2/7
f 6/1/7 9/2/7 8/1/7

g building-corner-top




usemtl colormap

f 3/1/1 2/2/1 1/1/1
f 6/1/2 5/2/2 4/2/2
f 5/2/2 6/1/2 7/1/2
f 7/1/3 3/1/3 1/1/3
f 3/1/3 7/1/3 6/1/3
f 3/1/3 6/1/3 8/1/3
f 9/2/4 5/2/4 2/2/4
f 5/2/4 9/2/4 4/2/4
f 2/2/5 8/1/5 9/2/5
f 8/1/5 2/2/5 3/1/5
f 1/1/6 5/2/6 7/1/6
f 5/2/6 1/1/6 2/2/6
f 9/2/7 6/1/7 4/2/7
f 6/1/7 9/2/7 8/1/7

