# Created by Kenney (www.kenney.nl)

mtllib building-window-wide.mtl

g building-window-wide

v -0.375 0.5 0.4 1 1 1
v -0.375 0.12 0.4 1 1 1
v -0.375 0.5 0.5 1 1 1
v -0.375 0.12 0.5 1 1 1
v -0.5 0 -0.5 1 1 1
v 0.5 0 -0.5 1 1 1
v -0.5 0.625 -0.5 1 1 1
v 0.5 0.625 -0.5 1 1 1
v 0.375 0.12 0.4 1 1 1
v 0.375 0.5 0.4 1 1 1
v 0.375 0.12 0.5 1 1 1
v 0.375 0.5 0.5 1 1 1
v 0.5 0 0.5 1 1 1
v -0.5 0 0.5 1 1 1
v -0.5 0.625 0.5 1 1 1
v 0.5 0.625 0.5 1 1 1

vn 1 0 0
vn 0 0 -1
vn -1 0 0
vn 0 1 0
vn 0 -1 0
vn 0 0 1

vt 0.96875 0.185
vt 0.96875 0.0634
vt 0.96875 0.025
vt 0.96875 0.225
vt 0.71875 0.3134
vt 0.71875 0.435

usemtl colormap

f 3/1/1 2/2/1 1/1/1
f 2/2/1 3/1/1 4/2/1
f 7/4/2 6/3/2 5/3/2
f 6/3/2 7/4/2 8/4/2
f 11/2/3 10/1/3 9/2/3
f 10/1/3 11/2/3 12/1/3
f 9/2/4 4/2/4 11/2/4
f 4/2/4 9/2/4 2/2/4
f 14/3/5 6/3/5 13/3/5
f 6/3/5 14/3/5 5/3/5
f 14/3/3 7/4/3 5/3/3
f 7/4/3 14/3/3 15/4/3
f 16/4/1 6/3/1 8/4/1
f 6/3/1 16/4/1 13/3/1
f 3/1/5 10/1/5 12/1/5
f 10/1/5 3/1/5 1/1/5
f 8/4/4 15/4/4 16/4/4
f 15/4/4 8/4/4 7/4/4
f 11/2/6 16/4/6 12/1/6
f 12/1/6 16/4/6 3/1/6
f 11/2/6 13/3/6 16/4/6
f 15/4/6 3/1/6 16/4/6
f 13/3/6 11/2/6 14/3/6
f 15/4/6 4/2/6 3/1/6
f 14/3/6 4/2/6 15/4/6
f 4/2/6 14/3/6 11/2/6
f 10/6/6 2/5/6 9/5/6
f 2/5/6 10/6/6 1/6/6

g building-window-wide




usemtl colormap

f 3/1/1 2/2/1 1/1/1
f 2/2/1 3/1/1 4/2/1
f 7/4/2 6/3/2 5/3/2
f 6/3/2 7/4/2 8/4/2
f 11/2/3 10/1/3 9/2/3
f 10/1/3 11/2/3 12/1/3
f 9/2/4 4/2/4 11/2/4
f 4/2/4 9/2/4 2/2/4
f 14/3/5 6/3/5 13/3/5
f 6/3/5 14/3/5 5/3/5
f 14/3/3 7/4/3 5/3/3
f 7/4/3 14/3/3 15/4/3
f 16/4/1 6/3/1 8/4/1
f 6/3/1 16/4/1 13/3/1
f 3/1/5 10/1/5 12/1/5
f 10/1/5 3/1/5 1/1/5
f 8/4/4 15/4/4 16/4/4
f 15/4/4 8/4/4 7/4/4
f 11/2/6 16/4/6 12/1/6
f 12/1/6 16/4/6 3/1/6
f 11/2/6 13/3/6 16/4/6
f 15/4/6 3/1/6 16/4/6
f 13/3/6 11/2/6 14/3/6
f 15/4/6 4/2/6 3/1/6
f 14/3/6 4/2/6 15/4/6
f 4/2/6 14/3/6 11/2/6
f 10/6/6 2/5/6 9/5/6
f 2/5/6 10/6/6 1/6/6

