# Created by Kenney (www.kenney.nl)

mtllib building-door-window.mtl

g building-door-window

v -0.125 0.5 0.5 1 1 1
v -0.125 0.5 0.4 1 1 1
v -0.375 0.5 0.5 1 1 1
v -0.375 0.5 0.4 1 1 1
v -0.125 0 0.4 1 1 1
v -0.125 0 0.5 1 1 1
v 0.5 0.625 -0.5 1 1 1
v 0.5 0 -0.5 1 1 1
v 0.5 0.625 0.5 1 1 1
v 0.5 0 0.5 1 1 1
v 0.375 0.5 0.5 1 1 1
v 0.375 0.5 0.4 1 1 1
v 4.988408E-13 0.5 0.5 1 1 1
v 3.988561E-13 0.5 0.4 1 1 1
v -0.375 0 0.4 1 1 1
v -0.375 0 0.5 1 1 1
v 0.375 0 0.4 1 1 1
v 0.375 0 0.5 1 1 1
v -0.5 0.625 0.5 1 1 1
v -0.5 0.625 -0.5 1 1 1
v -0.5 0 -0.5 1 1 1
v -0.5 0 0.5 1 1 1
v 3.988561E-13 0 0.4 1 1 1
v 4.988408E-13 0 0.5 1 1 1

vn 0 -1 0
vn -1 0 0
vn 1 0 0
vn 0 1 0
vn 0 0 -1
vn 0 0 1

vt 0.96875 0.185
vt 0.96875 0.025
vt 0.96875 0.225
vt 0.71875 0.275
vt 0.71875 0.435

usemtl colormap

f 3/1/1 2/1/1 1/1/1
f 2/1/1 3/1/1 4/1/1
f 6/2/2 2/1/2 5/2/2
f 2/1/2 6/2/2 1/1/2
f 9/3/3 8/2/3 7/3/3
f 8/2/3 9/3/3 10/2/3
f 13/1/1 12/1/1 11/1/1
f 12/1/1 13/1/1 14/1/1
f 3/1/3 15/2/3 4/1/3
f 15/2/3 3/1/3 16/2/3
f 18/2/2 12/1/2 17/2/2
f 12/1/2 18/2/2 11/1/2
f 7/3/4 19/3/4 9/3/4
f 19/3/4 7/3/4 20/3/4
f 20/3/5 8/2/5 21/2/5
f 8/2/5 20/3/5 7/3/5
f 22/2/2 20/3/2 21/2/2
f 20/3/2 22/2/2 19/3/2
f 13/1/3 23/2/3 14/1/3
f 23/2/3 13/1/3 24/2/3
f 6/2/1 23/2/1 24/2/1
f 5/2/1 23/2/1 6/2/1
f 21/2/1 23/2/1 5/2/1
f 21/2/1 5/2/1 15/2/1
f 21/2/1 17/2/1 23/2/1
f 21/2/1 15/2/1 22/2/1
f 22/2/1 15/2/1 16/2/1
f 8/2/1 17/2/1 21/2/1
f 8/2/1 18/2/1 17/2/1
f 18/2/1 8/2/1 10/2/1
f 9/3/6 18/2/6 10/2/6
f 18/2/6 9/3/6 11/1/6
f 11/1/6 9/3/6 13/1/6
f 13/1/6 9/3/6 1/1/6
f 6/2/6 13/1/6 1/1/6
f 13/1/6 6/2/6 24/2/6
f 1/1/6 9/3/6 3/1/6
f 19/3/6 3/1/6 9/3/6
f 22/2/6 3/1/6 19/3/6
f 3/1/6 22/2/6 16/2/6
f 12/5/6 23/4/6 17/4/6
f 23/4/6 12/5/6 14/5/6
f 2/5/6 15/4/6 5/4/6
f 15/4/6 2/5/6 4/5/6

g building-door-window




usemtl colormap

f 3/1/1 2/1/1 1/1/1
f 2/1/1 3/1/1 4/1/1
f 6/2/2 2/1/2 5/2/2
f 2/1/2 6/2/2 1/1/2
f 9/3/3 8/2/3 7/3/3
f 8/2/3 9/3/3 10/2/3
f 13/1/1 12/1/1 11/1/1
f 12/1/1 13/1/1 14/1/1
f 3/1/3 15/2/3 4/1/3
f 15/2/3 3/1/3 16/2/3
f 18/2/2 12/1/2 17/2/2
f 12/1/2 18/2/2 11/1/2
f 7/3/4 19/3/4 9/3/4
f 19/3/4 7/3/4 20/3/4
f 20/3/5 8/2/5 21/2/5
f 8/2/5 20/3/5 7/3/5
f 22/2/2 20/3/2 21/2/2
f 20/3/2 22/2/2 19/3/2
f 13/1/3 23/2/3 14/1/3
f 23/2/3 13/1/3 24/2/3
f 6/2/1 23/2/1 24/2/1
f 5/2/1 23/2/1 6/2/1
f 21/2/1 23/2/1 5/2/1
f 21/2/1 5/2/1 15/2/1
f 21/2/1 17/2/1 23/2/1
f 21/2/1 15/2/1 22/2/1
f 22/2/1 15/2/1 16/2/1
f 8/2/1 17/2/1 21/2/1
f 8/2/1 18/2/1 17/2/1
f 18/2/1 8/2/1 10/2/1
f 9/3/6 18/2/6 10/2/6
f 18/2/6 9/3/6 11/1/6
f 11/1/6 9/3/6 13/1/6
f 13/1/6 9/3/6 1/1/6
f 6/2/6 13/1/6 1/1/6
f 13/1/6 6/2/6 24/2/6
f 1/1/6 9/3/6 3/1/6
f 19/3/6 3/1/6 9/3/6
f 22/2/6 3/1/6 19/3/6
f 3/1/6 22/2/6 16/2/6
f 12/5/6 23/4/6 17/4/6
f 23/4/6 12/5/6 14/5/6
f 2/5/6 15/4/6 5/4/6
f 15/4/6 2/5/6 4/5/6

