# Created by Kenney (www.kenney.nl)

mtllib building-windows-round.mtl

g building-windows-round

v 0.5 0.625 -0.5 1 1 1
v 0.5 0 -0.5 1 1 1
v 0.5 0.625 0.5 1 1 1
v 0.5 0 0.5 1 1 1
v -0.5 0 -0.5 1 1 1
v -0.5 0.625 -0.5 1 1 1
v -0.375 0.31 0.4 1 1 1
v -0.375 0.12 0.4 1 1 1
v -0.375 0.31 0.5 1 1 1
v -0.375 0.12 0.5 1 1 1
v 0.0625 0.31 0.4 1 1 1
v 0.0625 0.12 0.4 1 1 1
v 0.0625 0.31 0.5 1 1 1
v 0.0625 0.12 0.5 1 1 1
v -0.0625 0.12 0.5 1 1 1
v -0.0625 0.12 0.4 1 1 1
v -0.5 0 0.5 1 1 1
v 0.375 0.12 0.5 1 1 1
v 0.375 0.12 0.4 1 1 1
v -0.0625 0.31 0.4 1 1 1
v -0.0625 0.31 0.5 1 1 1
v 0.375 0.31 0.4 1 1 1
v 0.375 0.31 0.5 1 1 1
v 0.3292354 0.4204854 0.4 1 1 1
v 0.3292354 0.4204854 0.5 1 1 1
v 0.21875 0.46625 0.5 1 1 1
v 0.21875 0.46625 0.4 1 1 1
v -0.1082646 0.4204854 0.4 1 1 1
v -0.1082646 0.4204854 0.5 1 1 1
v -0.5 0.625 0.5 1 1 1
v -0.21875 0.46625 0.5 1 1 1
v -0.21875 0.46625 0.4 1 1 1
v -0.3292354 0.4204854 0.5 1 1 1
v -0.3292354 0.4204854 0.4 1 1 1
v 0.1082646 0.4204854 0.4 1 1 1
v 0.1082646 0.4204854 0.5 1 1 1

vn 1 0 0
vn 0 0 -1
vn 0 1 0
vn 0 -1 0
vn -1 0 0
vn -0.9238795 -0.3826834 0
vn -0.7071068 -0.7071068 0
vn 0.7071068 -0.7071068 0
vn 0.9238795 -0.3826834 0
vn 0 0 1

vt 0.96875 0.225
vt 0.96875 0.025
vt 0.96875 0.1242
vt 0.96875 0.0634
vt 0.96875 0.1595553
vt 0.96875 0.1742
vt 0.71875 0.3134
vt 0.71875 0.3742
vt 0.71875 0.4095553
vt 0.71875 0.4242

usemtl colormap

f 3/1/1 2/2/1 1/1/1
f 2/2/1 3/1/1 4/2/1
f 6/1/2 2/2/2 5/2/2
f 2/2/2 6/1/2 1/1/2
f 9/3/1 8/4/1 7/3/1
f 8/4/1 9/3/1 10/4/1
f 13/3/1 12/4/1 11/3/1
f 12/4/1 13/3/1 14/4/1
f 16/4/3 10/4/3 15/4/3
f 10/4/3 16/4/3 8/4/3
f 17/2/4 2/2/4 4/2/4
f 2/2/4 17/2/4 5/2/4
f 19/4/3 14/4/3 18/4/3
f 14/4/3 19/4/3 12/4/3
f 15/4/5 20/3/5 16/4/5
f 20/3/5 15/4/5 21/3/5
f 18/4/5 22/3/5 19/4/5
f 22/3/5 18/4/5 23/3/5
f 23/3/6 24/5/7 22/3/6
f 24/5/7 23/3/6 25/5/7
f 26/6/4 24/5/7 25/5/7
f 24/5/7 26/6/4 27/6/4
f 21/3/6 28/5/7 20/3/6
f 28/5/7 21/3/6 29/5/7
f 1/1/3 30/1/3 3/1/3
f 30/1/3 1/1/3 6/1/3
f 17/2/5 6/1/5 5/2/5
f 6/1/5 17/2/5 30/1/5
f 33/5/8 32/6/4 31/6/4
f 32/6/4 33/5/8 34/5/8
f 36/5/8 11/3/9 35/5/8
f 11/3/9 36/5/8 13/3/9
f 31/6/4 28/5/7 29/5/7
f 28/5/7 31/6/4 32/6/4
f 36/5/8 27/6/4 26/6/4
f 27/6/4 36/5/8 35/5/8
f 33/5/8 7/3/9 34/5/8
f 7/3/9 33/5/8 9/3/9
f 30/1/10 10/4/10 9/3/10
f 30/1/10 9/3/10 33/5/10
f 30/1/10 33/5/10 31/6/10
f 30/1/10 31/6/10 26/6/10
f 29/5/10 26/6/10 31/6/10
f 29/5/10 36/5/10 26/6/10
f 29/5/10 13/3/10 36/5/10
f 21/3/10 13/3/10 29/5/10
f 15/4/10 13/3/10 21/3/10
f 13/3/10 15/4/10 14/4/10
f 10/4/10 14/4/10 15/4/10
f 17/2/10 10/4/10 30/1/10
f 10/4/10 17/2/10 14/4/10
f 30/1/10 26/6/10 3/1/10
f 14/4/10 17/2/10 18/4/10
f 4/2/10 18/4/10 17/2/10
f 18/4/10 4/2/10 3/1/10
f 25/5/10 3/1/10 26/6/10
f 18/4/10 3/1/10 23/3/10
f 23/3/10 3/1/10 25/5/10
f 22/8/10 12/7/10 19/7/10
f 12/7/10 22/8/10 11/8/10
f 11/8/10 22/8/10 24/9/10
f 11/8/10 24/9/10 35/9/10
f 35/9/10 24/9/10 27/10/10
f 20/8/10 8/7/10 16/7/10
f 8/7/10 20/8/10 7/8/10
f 7/8/10 20/8/10 28/9/10
f 7/8/10 28/9/10 34/9/10
f 34/9/10 28/9/10 32/10/10

g building-windows-round




usemtl colormap

f 3/1/1 2/2/1 1/1/1
f 2/2/1 3/1/1 4/2/1
f 6/1/2 2/2/2 5/2/2
f 2/2/2 6/1/2 1/1/2
f 9/3/1 8/4/1 7/3/1
f 8/4/1 9/3/1 10/4/1
f 13/3/1 12/4/1 11/3/1
f 12/4/1 13/3/1 14/4/1
f 16/4/3 10/4/3 15/4/3
f 10/4/3 16/4/3 8/4/3
f 17/2/4 2/2/4 4/2/4
f 2/2/4 17/2/4 5/2/4
f 19/4/3 14/4/3 18/4/3
f 14/4/3 19/4/3 12/4/3
f 15/4/5 20/3/5 16/4/5
f 20/3/5 15/4/5 21/3/5
f 18/4/5 22/3/5 19/4/5
f 22/3/5 18/4/5 23/3/5
f 23/3/6 24/5/7 22/3/6
f 24/5/7 23/3/6 25/5/7
f 26/6/4 24/5/7 25/5/7
f 24/5/7 26/6/4 27/6/4
f 21/3/6 28/5/7 20/3/6
f 28/5/7 21/3/6 29/5/7
f 1/1/3 30/1/3 3/1/3
f 30/1/3 1/1/3 6/1/3
f 17/2/5 6/1/5 5/2/5
f 6/1/5 17/2/5 30/1/5
f 33/5/8 32/6/4 31/6/4
f 32/6/4 33/5/8 34/5/8
f 36/5/8 11/3/9 35/5/8
f 11/3/9 36/5/8 13/3/9
f 31/6/4 28/5/7 29/5/7
f 28/5/7 31/6/4 32/6/4
f 36/5/8 27/6/4 26/6/4
f 27/6/4 36/5/8 35/5/8
f 33/5/8 7/3/9 34/5/8
f 7/3/9 33/5/8 9/3/9
f 30/1/10 10/4/10 9/3/10
f 30/1/10 9/3/10 33/5/10
f 30/1/10 33/5/10 31/6/10
f 30/1/10 31/6/10 26/6/10
f 29/5/10 26/6/10 31/6/10
f 29/5/10 36/5/10 26/6/10
f 29/5/10 13/3/10 36/5/10
f 21/3/10 13/3/10 29/5/10
f 15/4/10 13/3/10 21/3/10
f 13/3/10 15/4/10 14/4/10
f 10/4/10 14/4/10 15/4/10
f 17/2/10 10/4/10 30/1/10
f 10/4/10 17/2/10 14/4/10
f 30/1/10 26/6/10 3/1/10
f 14/4/10 17/2/10 18/4/10
f 4/2/10 18/4/10 17/2/10
f 18/4/10 4/2/10 3/1/10
f 25/5/10 3/1/10 26/6/10
f 18/4/10 3/1/10 23/3/10
f 23/3/10 3/1/10 25/5/10
f 22/8/10 12/7/10 19/7/10
f 12/7/10 22/8/10 11/8/10
f 11/8/10 22/8/10 24/9/10
f 11/8/10 24/9/10 35/9/10
f 35/9/10 24/9/10 27/10/10
f 20/8/10 8/7/10 16/7/10
f 8/7/10 20/8/10 7/8/10
f 7/8/10 20/8/10 28/9/10
f 7/8/10 28/9/10 34/9/10
f 34/9/10 28/9/10 32/10/10

