# Created by Kenney (www.kenney.nl)

mtllib building-window-balcony.mtl

g building-window-balcony

v 0.5 0 0.425 1 1 1
v 0.375 0 0.425 1 1 1
v 0.5 0.625 0.425 1 1 1
v 0.375 0.18 0.425 1 1 1
v 0.375 0.5 0.425 1 1 1
v -0.375 0.5 0.425 1 1 1
v -0.5 0.625 0.425 1 1 1
v -0.375 0.18 0.425 1 1 1
v -0.5 0 0.425 1 1 1
v -0.375 0 0.425 1 1 1
v 0.375 2.030376E-16 0.5454277 1 1 1
v 0.3454277 2.030376E-16 0.575 1 1 1
v -0.5 0 -0.575 1 1 1
v -0.3454277 3.835154E-16 0.575 1 1 1
v 0.5 0 -0.575 1 1 1
v -0.375 3.835154E-16 0.5454277 1 1 1
v 0.3158554 0.06 0.5158554 1 1 1
v -0.3158554 0.06 0.5158554 1 1 1
v 0.3158554 0.06 0.275 1 1 1
v -0.3158554 0.06 0.275 1 1 1
v 0.375 0.5 0.325 1 1 1
v -0.375 0.5 0.325 1 1 1
v -0.5 0.625 -0.575 1 1 1
v 0.5 0.625 -0.575 1 1 1
v 0.3454277 0.18 0.575 1 1 1
v -0.3454277 0.18 0.575 1 1 1
v 0.375 0.18 0.5454277 1 1 1
v 0.375 0.18 0.325 1 1 1
v 0.3158554 0.18 0.325 1 1 1
v 0.3158554 0.4408554 0.325 1 1 1
v -0.3158554 0.4408554 0.325 1 1 1
v -0.375 0.18 0.325 1 1 1
v -0.3158554 0.18 0.325 1 1 1
v -0.3158554 0.18 0.5158554 1 1 1
v 0.3158554 0.18 0.5158554 1 1 1
v -0.375 0.18 0.5454277 1 1 1
v 0.3158554 0.4408554 0.275 1 1 1
v -0.3158554 0.4408554 0.275 1 1 1

vn 0 0 1
vn 0 -1 0
vn 0 1 0
vn 0 0 -1
vn 0.3826834 0 0.9238795
vn -0.3826834 0 0.9238795
vn 1 0 0
vn 0.9238795 0 0.3826834
vn -1 0 0
vn -0.9238795 0 0.3826834

vt 0.96875 0.025
vt 0.96875 0.225
vt 0.96875 0.0826
vt 0.96875 0.185
vt 0.96875 0.0442
vt 0.96875 0.1660737
vt 0.71875 0.2942
vt 0.71875 0.4160737

usemtl colormap

f 3/2/1 2/1/1 1/1/1
f 2/1/1 3/2/1 4/3/1
f 4/3/1 3/2/1 5/4/1
f 5/4/1 3/2/1 6/4/1
f 7/2/1 6/4/1 3/2/1
f 7/2/1 8/3/1 6/4/1
f 9/1/1 8/3/1 7/2/1
f 8/3/1 9/1/1 10/1/1
f 12/1/2 2/1/2 11/1/2
f 13/1/2 2/1/2 12/1/2
f 13/1/2 12/1/2 14/1/2
f 15/1/2 2/1/2 13/1/2
f 2/1/2 15/1/2 1/1/2
f 13/1/2 14/1/2 10/1/2
f 10/1/2 14/1/2 16/1/2
f 13/1/2 10/1/2 9/1/2
f 19/5/3 18/5/3 17/5/3
f 18/5/3 19/5/3 20/5/3
f 6/4/2 21/4/2 5/4/2
f 21/4/2 6/4/2 22/4/2
f 23/2/4 15/1/4 13/1/4
f 15/1/4 23/2/4 24/2/4
f 25/3/5 14/1/6 12/1/5
f 14/1/6 25/3/5 26/3/6
f 27/3/8 2/1/7 4/3/7
f 2/1/7 27/3/8 11/1/8
f 21/4/1 29/3/1 28/3/1
f 29/3/1 21/4/1 30/6/1
f 30/6/1 21/4/1 31/6/1
f 22/4/1 31/6/1 21/4/1
f 32/3/1 31/6/1 22/4/1
f 31/6/1 32/3/1 33/3/1
f 34/3/4 17/5/4 18/5/4
f 17/5/4 34/3/4 35/3/4
f 3/2/7 15/1/7 24/2/7
f 15/1/7 3/2/7 1/1/7
f 4/3/3 25/3/3 27/3/3
f 25/3/3 4/3/3 28/3/3
f 25/3/3 28/3/3 29/3/3
f 25/3/3 29/3/3 35/3/3
f 35/3/3 26/3/3 25/3/3
f 26/3/3 35/3/3 34/3/3
f 26/3/3 34/3/3 33/3/3
f 26/3/3 33/3/3 32/3/3
f 26/3/3 32/3/3 8/3/3
f 26/3/3 8/3/3 36/3/3
f 19/5/9 30/6/9 37/6/9
f 30/6/9 19/5/9 29/3/9
f 29/3/9 19/5/9 17/5/9
f 29/3/9 17/5/9 35/3/9
f 16/1/10 8/3/9 10/1/9
f 8/3/9 16/1/10 36/3/10
f 6/4/7 32/3/7 22/4/7
f 32/3/7 6/4/7 8/3/7
f 4/3/9 21/4/9 28/3/9
f 21/4/9 4/3/9 5/4/9
f 31/6/7 20/5/7 38/6/7
f 20/5/7 31/6/7 33/3/7
f 20/5/7 33/3/7 18/5/7
f 18/5/7 33/3/7 34/3/7
f 26/3/6 16/1/10 14/1/6
f 16/1/10 26/3/6 36/3/10
f 31/6/2 37/6/2 30/6/2
f 37/6/2 31/6/2 38/6/2
f 24/2/3 7/2/3 3/2/3
f 7/2/3 24/2/3 23/2/3
f 25/3/5 11/1/8 27/3/8
f 11/1/8 25/3/5 12/1/5
f 9/1/9 23/2/9 13/1/9
f 23/2/9 9/1/9 7/2/9
f 37/8/1 20/7/1 19/7/1
f 20/7/1 37/8/1 38/8/1

g building-window-balcony




usemtl colormap

f 3/2/1 2/1/1 1/1/1
f 2/1/1 3/2/1 4/3/1
f 4/3/1 3/2/1 5/4/1
f 5/4/1 3/2/1 6/4/1
f 7/2/1 6/4/1 3/2/1
f 7/2/1 8/3/1 6/4/1
f 9/1/1 8/3/1 7/2/1
f 8/3/1 9/1/1 10/1/1
f 12/1/2 2/1/2 11/1/2
f 13/1/2 2/1/2 12/1/2
f 13/1/2 12/1/2 14/1/2
f 15/1/2 2/1/2 13/1/2
f 2/1/2 15/1/2 1/1/2
f 13/1/2 14/1/2 10/1/2
f 10/1/2 14/1/2 16/1/2
f 13/1/2 10/1/2 9/1/2
f 19/5/3 18/5/3 17/5/3
f 18/5/3 19/5/3 20/5/3
f 6/4/2 21/4/2 5/4/2
f 21/4/2 6/4/2 22/4/2
f 23/2/4 15/1/4 13/1/4
f 15/1/4 23/2/4 24/2/4
f 25/3/5 14/1/6 12/1/5
f 14/1/6 25/3/5 26/3/6
f 27/3/8 2/1/7 4/3/7
f 2/1/7 27/3/8 11/1/8
f 21/4/1 29/3/1 28/3/1
f 29/3/1 21/4/1 30/6/1
f 30/6/1 21/4/1 31/6/1
f 22/4/1 31/6/1 21/4/1
f 32/3/1 31/6/1 22/4/1
f 31/6/1 32/3/1 33/3/1
f 34/3/4 17/5/4 18/5/4
f 17/5/4 34/3/4 35/3/4
f 3/2/7 15/1/7 24/2/7
f 15/1/7 3/2/7 1/1/7
f 4/3/3 25/3/3 27/3/3
f 25/3/3 4/3/3 28/3/3
f 25/3/3 28/3/3 29/3/3
f 25/3/3 29/3/3 35/3/3
f 35/3/3 26/3/3 25/3/3
f 26/3/3 35/3/3 34/3/3
f 26/3/3 34/3/3 33/3/3
f 26/3/3 33/3/3 32/3/3
f 26/3/3 32/3/3 8/3/3
f 26/3/3 8/3/3 36/3/3
f 19/5/9 30/6/9 37/6/9
f 30/6/9 19/5/9 29/3/9
f 29/3/9 19/5/9 17/5/9
f 29/3/9 17/5/9 35/3/9
f 16/1/10 8/3/9 10/1/9
f 8/3/9 16/1/10 36/3/10
f 6/4/7 32/3/7 22/4/7
f 32/3/7 6/4/7 8/3/7
f 4/3/9 21/4/9 28/3/9
f 21/4/9 4/3/9 5/4/9
f 31/6/7 20/5/7 38/6/7
f 20/5/7 31/6/7 33/3/7
f 20/5/7 33/3/7 18/5/7
f 18/5/7 33/3/7 34/3/7
f 26/3/6 16/1/10 14/1/6
f 16/1/10 26/3/6 36/3/10
f 31/6/2 37/6/2 30/6/2
f 37/6/2 31/6/2 38/6/2
f 24/2/3 7/2/3 3/2/3
f 7/2/3 24/2/3 23/2/3
f 25/3/5 11/1/8 27/3/8
f 11/1/8 25/3/5 12/1/5
f 9/1/9 23/2/9 13/1/9
f 23/2/9 9/1/9 7/2/9
f 37/8/1 20/7/1 19/7/1
f 20/7/1 37/8/1 38/8/1

