# Created by Kenney (www.kenney.nl)

mtllib building-windows-sills-round.mtl

g building-windows-sills-round

v 0.21875 0.46625 0.475 1 1 1
v 0.21875 0.46625 0.375 1 1 1
v 0.1082646 0.4204854 0.475 1 1 1
v 0.1082646 0.4204854 0.375 1 1 1
v 0.0625 0.31 0.375 1 1 1
v 0.0625 0.31 0.475 1 1 1
v -0.3292354 0.4204854 0.375 1 1 1
v -0.375 0.31 0.375 1 1 1
v -0.3292354 0.4204854 0.475 1 1 1
v -0.375 0.31 0.475 1 1 1
v -0.1082646 0.4204854 0.475 1 1 1
v -0.1082646 0.4204854 0.375 1 1 1
v -0.21875 0.46625 0.475 1 1 1
v -0.21875 0.46625 0.375 1 1 1
v 0.375 0.12 0.475 1 1 1
v 0.325 0.12 0.525 1 1 1
v 0.375 0.12 0.375 1 1 1
v 0.0625 0.12 0.375 1 1 1
v 0.1125 0.12 0.525 1 1 1
v 0.0625 0.12 0.475 1 1 1
v -0.0625 0.06 0.475 1 1 1
v -0.375 0.06 0.475 1 1 1
v -0.1125 0.06 0.525 1 1 1
v -0.325 0.06 0.525 1 1 1
v 0.325 0.06 0.525 1 1 1
v 0.1125 0.06 0.525 1 1 1
v 0.375 0.06 0.475 1 1 1
v 0.0625 0.06 0.475 1 1 1
v -0.1125 0.12 0.525 1 1 1
v -0.325 0.12 0.525 1 1 1
v -0.375 0.12 0.375 1 1 1
v -0.375 0.12 0.475 1 1 1
v 0.5 0.625 0.475 1 1 1
v -0.5 0.625 0.475 1 1 1
v 0.5 0.625 -0.525 1 1 1
v -0.5 0.625 -0.525 1 1 1
v -0.0625 0.12 0.375 1 1 1
v -0.0625 0.31 0.375 1 1 1
v -0.0625 0.12 0.475 1 1 1
v -0.0625 0.31 0.475 1 1 1
v -0.5 0 -0.525 1 1 1
v -0.5 0 0.475 1 1 1
v 0.5 0 -0.525 1 1 1
v 0.5 0 0.475 1 1 1
v 0.375 0.31 0.375 1 1 1
v 0.375 0.31 0.475 1 1 1
v 0.3292354 0.4204854 0.375 1 1 1
v 0.3292354 0.4204854 0.475 1 1 1

vn 0 -1 0
vn 0.7071068 -0.7071068 0
vn 0.9238795 -0.3826834 0
vn -0.7071068 -0.7071068 0
vn 0 1 0
vn 0.3826834 0 0.9238795
vn -0.3826834 0 0.9238795
vn 1 0 0
vn -1 0 0
vn 0 0 -1
vn -0.9238795 -0.3826834 0
vn 0.7071068 0 0.7071068
vn -0.7071068 0 0.7071068
vn 0 0 1

vt 0.96875 0.1742
vt 0.96875 0.1595553
vt 0.96875 0.1242
vt 0.96875 0.0634
vt 0.96875 0.0442
vt 0.96875 0.225
vt 0.96875 0.025
vt 0.71875 0.3134
vt 0.71875 0.3742
vt 0.71875 0.4095553
vt 0.71875 0.4242

usemtl colormap

f 3/2/2 2/1/1 1/1/1
f 2/1/1 3/2/2 4/2/2
f 3/2/2 5/3/3 4/2/2
f 5/3/3 3/2/2 6/3/3
f 9/2/2 8/3/3 7/2/2
f 8/3/3 9/2/2 10/3/3
f 13/1/1 12/2/4 11/2/4
f 12/2/4 13/1/1 14/1/1
f 17/4/5 16/4/5 15/4/5
f 16/4/5 17/4/5 18/4/5
f 16/4/5 18/4/5 19/4/5
f 19/4/5 18/4/5 20/4/5
f 23/5/1 22/5/1 21/5/1
f 22/5/1 23/5/1 24/5/1
f 16/4/6 26/5/7 25/5/6
f 26/5/7 16/4/6 19/4/7
f 25/5/1 28/5/1 27/5/1
f 28/5/1 25/5/1 26/5/1
f 29/4/6 24/5/7 23/5/6
f 24/5/7 29/4/6 30/4/7
f 10/3/8 31/4/8 8/3/8
f 31/4/8 10/3/8 32/4/8
f 35/6/5 34/6/5 33/6/5
f 34/6/5 35/6/5 36/6/5
f 39/4/9 38/3/9 37/4/9
f 38/3/9 39/4/9 40/3/9
f 42/7/9 36/6/9 41/7/9
f 36/6/9 42/7/9 34/6/9
f 33/6/8 43/7/8 35/6/8
f 43/7/8 33/6/8 44/7/8
f 6/3/8 18/4/8 5/3/8
f 18/4/8 6/3/8 20/4/8
f 36/6/10 43/7/10 41/7/10
f 43/7/10 36/6/10 35/6/10
f 42/7/1 43/7/1 44/7/1
f 43/7/1 42/7/1 41/7/1
f 15/4/9 45/3/9 17/4/9
f 45/3/9 15/4/9 46/3/9
f 46/3/11 47/2/4 45/3/11
f 47/2/4 46/3/11 48/2/4
f 40/3/11 12/2/4 38/3/11
f 12/2/4 40/3/11 11/2/4
f 9/2/2 14/1/1 13/1/1
f 14/1/1 9/2/2 7/2/2
f 1/1/1 47/2/4 48/2/4
f 47/2/4 1/1/1 2/1/1
f 16/4/6 27/5/12 15/4/12
f 27/5/12 16/4/6 25/5/6
f 19/4/7 28/5/13 26/5/7
f 28/5/13 19/4/7 20/4/13
f 24/5/7 32/4/13 22/5/13
f 32/4/13 24/5/7 30/4/7
f 29/4/6 21/5/12 39/4/12
f 21/5/12 29/4/6 23/5/6
f 37/4/5 29/4/5 39/4/5
f 29/4/5 37/4/5 31/4/5
f 29/4/5 31/4/5 30/4/5
f 30/4/5 31/4/5 32/4/5
f 34/6/14 10/3/14 9/2/14
f 34/6/14 32/4/14 10/3/14
f 34/6/14 9/2/14 13/1/14
f 34/6/14 22/5/14 32/4/14
f 34/6/14 13/1/14 1/1/14
f 11/2/14 1/1/14 13/1/14
f 42/7/14 22/5/14 34/6/14
f 34/6/14 1/1/14 33/6/14
f 22/5/14 42/7/14 21/5/14
f 11/2/14 3/2/14 1/1/14
f 48/2/14 33/6/14 1/1/14
f 11/2/14 6/3/14 3/2/14
f 40/3/14 6/3/14 11/2/14
f 46/3/14 33/6/14 48/2/14
f 15/4/14 33/6/14 46/3/14
f 39/4/14 6/3/14 40/3/14
f 39/4/14 20/4/14 6/3/14
f 39/4/14 28/5/14 20/4/14
f 21/5/14 28/5/14 39/4/14
f 27/5/14 33/6/14 15/4/14
f 28/5/14 21/5/14 27/5/14
f 42/7/14 27/5/14 21/5/14
f 27/5/14 44/7/14 33/6/14
f 44/7/14 27/5/14 42/7/14
f 38/9/14 31/8/14 37/8/14
f 31/8/14 38/9/14 8/9/14
f 8/9/14 38/9/14 12/10/14
f 8/9/14 12/10/14 7/10/14
f 7/10/14 12/10/14 14/11/14
f 45/9/14 18/8/14 17/8/14
f 18/8/14 45/9/14 5/9/14
f 5/9/14 45/9/14 47/10/14
f 5/9/14 47/10/14 4/10/14
f 4/10/14 47/10/14 2/11/14

g building-windows-sills-round




usemtl colormap

f 3/2/2 2/1/1 1/1/1
f 2/1/1 3/2/2 4/2/2
f 3/2/2 5/3/3 4/2/2
f 5/3/3 3/2/2 6/3/3
f 9/2/2 8/3/3 7/2/2
f 8/3/3 9/2/2 10/3/3
f 13/1/1 12/2/4 11/2/4
f 12/2/4 13/1/1 14/1/1
f 17/4/5 16/4/5 15/4/5
f 16/4/5 17/4/5 18/4/5
f 16/4/5 18/4/5 19/4/5
f 19/4/5 18/4/5 20/4/5
f 23/5/1 22/5/1 21/5/1
f 22/5/1 23/5/1 24/5/1
f 16/4/6 26/5/7 25/5/6
f 26/5/7 16/4/6 19/4/7
f 25/5/1 28/5/1 27/5/1
f 28/5/1 25/5/1 26/5/1
f 29/4/6 24/5/7 23/5/6
f 24/5/7 29/4/6 30/4/7
f 10/3/8 31/4/8 8/3/8
f 31/4/8 10/3/8 32/4/8
f 35/6/5 34/6/5 33/6/5
f 34/6/5 35/6/5 36/6/5
f 39/4/9 38/3/9 37/4/9
f 38/3/9 39/4/9 40/3/9
f 42/7/9 36/6/9 41/7/9
f 36/6/9 42/7/9 34/6/9
f 33/6/8 43/7/8 35/6/8
f 43/7/8 33/6/8 44/7/8
f 6/3/8 18/4/8 5/3/8
f 18/4/8 6/3/8 20/4/8
f 36/6/10 43/7/10 41/7/10
f 43/7/10 36/6/10 35/6/10
f 42/7/1 43/7/1 44/7/1
f 43/7/1 42/7/1 41/7/1
f 15/4/9 45/3/9 17/4/9
f 45/3/9 15/4/9 46/3/9
f 46/3/11 47/2/4 45/3/11
f 47/2/4 46/3/11 48/2/4
f 40/3/11 12/2/4 38/3/11
f 12/2/4 40/3/11 11/2/4
f 9/2/2 14/1/1 13/1/1
f 14/1/1 9/2/2 7/2/2
f 1/1/1 47/2/4 48/2/4
f 47/2/4 1/1/1 2/1/1
f 16/4/6 27/5/12 15/4/12
f 27/5/12 16/4/6 25/5/6
f 19/4/7 28/5/13 26/5/7
f 28/5/13 19/4/7 20/4/13
f 24/5/7 32/4/13 22/5/13
f 32/4/13 24/5/7 30/4/7
f 29/4/6 21/5/12 39/4/12
f 21/5/12 29/4/6 23/5/6
f 37/4/5 29/4/5 39/4/5
f 29/4/5 37/4/5 31/4/5
f 29/4/5 31/4/5 30/4/5
f 30/4/5 31/4/5 32/4/5
f 34/6/14 10/3/14 9/2/14
f 34/6/14 32/4/14 10/3/14
f 34/6/14 9/2/14 13/1/14
f 34/6/14 22/5/14 32/4/14
f 34/6/14 13/1/14 1/1/14
f 11/2/14 1/1/14 13/1/14
f 42/7/14 22/5/14 34/6/14
f 34/6/14 1/1/14 33/6/14
f 22/5/14 42/7/14 21/5/14
f 11/2/14 3/2/14 1/1/14
f 48/2/14 33/6/14 1/1/14
f 11/2/14 6/3/14 3/2/14
f 40/3/14 6/3/14 11/2/14
f 46/3/14 33/6/14 48/2/14
f 15/4/14 33/6/14 46/3/14
f 39/4/14 6/3/14 40/3/14
f 39/4/14 20/4/14 6/3/14
f 39/4/14 28/5/14 20/4/14
f 21/5/14 28/5/14 39/4/14
f 27/5/14 33/6/14 15/4/14
f 28/5/14 21/5/14 27/5/14
f 42/7/14 27/5/14 21/5/14
f 27/5/14 44/7/14 33/6/14
f 44/7/14 27/5/14 42/7/14
f 38/9/14 31/8/14 37/8/14
f 31/8/14 38/9/14 8/9/14
f 8/9/14 38/9/14 12/10/14
f 8/9/14 12/10/14 7/10/14
f 7/10/14 12/10/14 14/11/14
f 45/9/14 18/8/14 17/8/14
f 18/8/14 45/9/14 5/9/14
f 5/9/14 45/9/14 47/10/14
f 5/9/14 47/10/14 4/10/14
f 4/10/14 47/10/14 2/11/14

