# Created by Kenney (www.kenney.nl)

mtllib building-window-large-right.mtl

g building-window-large-right

v 0.5 0.625 -0.5 1 1 1
v 0.5 0 -0.5 1 1 1
v 0.5 0.625 0.5 1 1 1
v 0.5 0 0.5 1 1 1
v 0.375 0 0.5 1 1 1
v 0.375 0 0.4 1 1 1
v -0.5 0 -0.5 1 1 1
v -0.5 0 0.4 1 1 1
v 0.375 0.5 0.5 1 1 1
v 0.375 0.5 0.4 1 1 1
v -0.5 0.5 0.5 1 1 1
v -0.5 0.5 0.4 1 1 1
v -0.5 0.625 -0.5 1 1 1
v -0.5 0.625 0.5 1 1 1

vn 1 0 0
vn 0 -1 0
vn -1 0 0
vn 0 1 0
vn 0 0 1
vn 0 0 -1

vt 0.96875 0.225
vt 0.96875 0.025
vt 0.96875 0.185
vt 0.71875 0.275
vt 0.71875 0.435

usemtl colormap

f 3/1/1 2/2/1 1/1/1
f 2/2/1 3/1/1 4/2/1
f 5/2/2 2/2/2 4/2/2
f 2/2/2 5/2/2 6/2/2
f 2/2/2 6/2/2 7/2/2
f 7/2/2 6/2/2 8/2/2
f 11/3/2 10/3/2 9/3/2
f 10/3/2 11/3/2 12/3/2
f 8/2/3 13/1/3 7/2/3
f 13/1/3 8/2/3 12/3/3
f 13/1/3 12/3/3 14/1/3
f 14/1/3 12/3/3 11/3/3
f 5/2/3 10/3/3 6/2/3
f 10/3/3 5/2/3 9/3/3
f 1/1/4 14/1/4 3/1/4
f 14/1/4 1/1/4 13/1/4
f 3/1/5 5/2/5 4/2/5
f 5/2/5 3/1/5 9/3/5
f 9/3/5 3/1/5 11/3/5
f 11/3/5 3/1/5 14/1/5
f 13/1/6 2/2/6 7/2/6
f 2/2/6 13/1/6 1/1/6
f 10/5/5 8/4/5 6/4/5
f 8/4/5 10/5/5 12/5/5

g building-window-large-right




usemtl colormap

f 3/1/1 2/2/1 1/1/1
f 2/2/1 3/1/1 4/2/1
f 5/2/2 2/2/2 4/2/2
f 2/2/2 5/2/2 6/2/2
f 2/2/2 6/2/2 7/2/2
f 7/2/2 6/2/2 8/2/2
f 11/3/2 10/3/2 9/3/2
f 10/3/2 11/3/2 12/3/2
f 8/2/3 13/1/3 7/2/3
f 13/1/3 8/2/3 12/3/3
f 13/1/3 12/3/3 14/1/3
f 14/1/3 12/3/3 11/3/3
f 5/2/3 10/3/3 6/2/3
f 10/3/3 5/2/3 9/3/3
f 1/1/4 14/1/4 3/1/4
f 14/1/4 1/1/4 13/1/4
f 3/1/5 5/2/5 4/2/5
f 5/2/5 3/1/5 9/3/5
f 9/3/5 3/1/5 11/3/5
f 11/3/5 3/1/5 14/1/5
f 13/1/6 2/2/6 7/2/6
f 2/2/6 13/1/6 1/1/6
f 10/5/5 8/4/5 6/4/5
f 8/4/5 10/5/5 12/5/5

