# Created by Kenney (www.kenney.nl)

mtllib building-corner-window-middle.mtl

g building-corner-window-middle

v 0.3604854 4.060752E-16 0.1395146 1 1 1
v 0.2897747 4.060752E-16 0.06880388 1 1 1
v 0.3604854 0.625 0.1395146 1 1 1
v 0.2897747 0.625 0.06880388 1 1 1
v 0.5 0.625 -4.995627E-13 1 1 1
v 0.5 0.625 -0.5 1 1 1
v -0.5 0.625 -0.5 1 1 1
v 0.06880388 0.625 0.2897747 1 1 1
v 7.493441E-13 0.625 0.5 1 1 1
v -0.5 0.625 0.5 1 1 1
v 0.1395146 0.625 0.3604854 1 1 1
v 0.5 0 -0.5 1 1 1
v 0.5 4.511946E-17 -4.988408E-13 1 1 1
v 0.1395146 4.511947E-16 0.3604854 1 1 1
v 0.06880388 4.511947E-16 0.2897747 1 1 1
v 7.493441E-13 5.86553E-16 0.5 1 1 1
v -0.5 0 -0.5 1 1 1
v -0.5 0 0.5 1 1 1
v 0.2897747 0.625 0.0688039 1 1 1
v 0.2897747 4.060752E-16 0.0688039 1 1 1
v 0.0688039 0.625 0.2897747 1 1 1
v 0.0688039 4.511947E-16 0.2897747 1 1 1

vn -0.7071068 0 0.7071068
vn 0 1 0
vn 1 0 0
vn 0 -1 0
vn 0.7071068 0 0.7071068
vn 0 0 -1
vn 0 0 1
vn -1 0 0
vn 0.7071068 0 -0.7071068

vt 0.96875 0.025
vt 0.96875 0.225
vt 0.71875 0.475
vt 0.71875 0.275

usemtl colormap

f 3/2/1 2/1/1 1/1/1
f 2/1/1 3/2/1 4/2/1
f 6/2/2 3/2/2 5/2/2
f 3/2/2 6/2/2 4/2/2
f 4/2/2 6/2/2 7/2/2
f 4/2/2 7/2/2 8/2/2
f 8/2/2 7/2/2 9/2/2
f 9/2/2 7/2/2 10/2/2
f 9/2/2 11/2/2 8/2/2
f 5/2/3 12/1/3 6/2/3
f 12/1/3 5/2/3 13/1/3
f 16/1/4 15/1/4 14/1/4
f 17/1/4 15/1/4 16/1/4
f 17/1/4 16/1/4 18/1/4
f 17/1/4 2/1/4 15/1/4
f 12/1/4 2/1/4 17/1/4
f 12/1/4 1/1/4 2/1/4
f 1/1/4 12/1/4 13/1/4
f 11/2/5 16/1/5 14/1/5
f 16/1/5 11/2/5 9/2/5
f 7/2/6 12/1/6 17/1/6
f 12/1/6 7/2/6 6/2/6
f 3/2/5 13/1/5 5/2/5
f 13/1/5 3/2/5 1/1/5
f 16/1/7 10/2/7 18/1/7
f 10/2/7 16/1/7 9/2/7
f 18/1/8 7/2/8 17/1/8
f 7/2/8 18/1/8 10/2/8
f 8/2/9 14/1/9 15/1/9
f 14/1/9 8/2/9 11/2/9
f 21/3/5 20/4/5 19/3/5
f 20/4/5 21/3/5 22/4/5

g building-corner-window-middle




usemtl colormap

f 3/2/1 2/1/1 1/1/1
f 2/1/1 3/2/1 4/2/1
f 6/2/2 3/2/2 5/2/2
f 3/2/2 6/2/2 4/2/2
f 4/2/2 6/2/2 7/2/2
f 4/2/2 7/2/2 8/2/2
f 8/2/2 7/2/2 9/2/2
f 9/2/2 7/2/2 10/2/2
f 9/2/2 11/2/2 8/2/2
f 5/2/3 12/1/3 6/2/3
f 12/1/3 5/2/3 13/1/3
f 16/1/4 15/1/4 14/1/4
f 17/1/4 15/1/4 16/1/4
f 17/1/4 16/1/4 18/1/4
f 17/1/4 2/1/4 15/1/4
f 12/1/4 2/1/4 17/1/4
f 12/1/4 1/1/4 2/1/4
f 1/1/4 12/1/4 13/1/4
f 11/2/5 16/1/5 14/1/5
f 16/1/5 11/2/5 9/2/5
f 7/2/6 12/1/6 17/1/6
f 12/1/6 7/2/6 6/2/6
f 3/2/5 13/1/5 5/2/5
f 13/1/5 3/2/5 1/1/5
f 16/1/7 10/2/7 18/1/7
f 10/2/7 16/1/7 9/2/7
f 18/1/8 7/2/8 17/1/8
f 7/2/8 18/1/8 10/2/8
f 8/2/9 14/1/9 15/1/9
f 14/1/9 8/2/9 11/2/9
f 21/3/5 20/4/5 19/3/5
f 20/4/5 21/3/5 22/4/5

