# Created by Kenney (www.kenney.nl)

mtllib building-corner-window-top-round.mtl

g building-corner-window-top-round

v 0.2897747 0.31 0.06880388 1 1 1
v 0.2897747 3.835154E-16 0.06880388 1 1 1
v 0.2574143 0.4204854 0.1011643 1 1 1
v 0.06880388 3.835154E-16 0.2897747 1 1 1
v 0.1792893 0.46625 0.1792893 1 1 1
v 0.1011643 0.4204854 0.2574143 1 1 1
v 0.06880388 0.31 0.2897747 1 1 1
v 0.1395146 3.158362E-16 0.3604854 1 1 1
v 7.522317E-13 5.86553E-16 0.5 1 1 1
v -0.5 0 -0.5 1 1 1
v -0.5 0 0.5 1 1 1
v 0.5 0 -0.5 1 1 1
v 0.3604854 3.158362E-16 0.1395146 1 1 1
v 0.5 4.511946E-17 -4.988408E-13 1 1 1
v -0.5 0.625 -0.5 1 1 1
v -0.5 0.625 0.5 1 1 1
v 7.522317E-13 0.625 0.5 1 1 1
v 0.1395146 0.31 0.3604854 1 1 1
v 0.5 0.625 -0.5 1 1 1
v 0.3604854 0.31 0.1395146 1 1 1
v 0.5 0.625 -4.995627E-13 1 1 1
v 0.328125 0.4204854 0.171875 1 1 1
v 0.25 0.46625 0.25 1 1 1
v 0.171875 0.4204854 0.328125 1 1 1

vn 0.7071068 0 0.7071068
vn 0 -1 0
vn -1 0 0
vn 0 0 1
vn 0.7071068 0 -0.7071068
vn 0 0 -1
vn -0.7071068 0 0.7071068
vn 1 0 0
vn 0 1 0
vn -0.5 -0.7071068 0.5
vn 0.5 -0.7071068 -0.5
vn 0.6532815 -0.3826834 -0.6532815
vn -0.6532815 -0.3826834 0.6532815

vt 0.71875 0.3742
vt 0.71875 0.275
vt 0.71875 0.4095553
vt 0.71875 0.4242
vt 0.96875 0.025
vt 0.96875 0.225
vt 0.96875 0.1242
vt 0.96875 0.1595553
vt 0.96875 0.1742

usemtl colormap

f 3/3/1 2/2/1 1/1/1
f 2/2/1 3/3/1 4/2/1
f 4/2/1 3/3/1 5/4/1
f 4/2/1 5/4/1 6/3/1
f 4/2/1 6/3/1 7/1/1
f 9/5/2 4/5/2 8/5/2
f 10/5/2 4/5/2 9/5/2
f 10/5/2 9/5/2 11/5/2
f 10/5/2 2/5/2 4/5/2
f 12/5/2 2/5/2 10/5/2
f 12/5/2 13/5/2 2/5/2
f 13/5/2 12/5/2 14/5/2
f 11/5/3 15/6/3 10/5/3
f 15/6/3 11/5/3 16/6/3
f 9/5/4 16/6/4 11/5/4
f 16/6/4 9/5/4 17/6/4
f 4/5/5 18/7/5 8/5/5
f 18/7/5 4/5/5 7/7/5
f 15/6/6 12/5/6 10/5/6
f 12/5/6 15/6/6 19/6/6
f 20/7/7 2/5/7 13/5/7
f 2/5/7 20/7/7 1/7/7
f 21/6/8 12/5/8 19/6/8
f 12/5/8 21/6/8 14/5/8
f 19/6/9 17/6/9 21/6/9
f 17/6/9 19/6/9 15/6/9
f 17/6/9 15/6/9 16/6/9
f 23/9/2 3/8/10 22/8/10
f 3/8/10 23/9/2 5/9/2
f 24/8/11 5/9/2 23/9/2
f 5/9/2 24/8/11 6/8/11
f 6/8/11 18/7/12 7/7/12
f 18/7/12 6/8/11 24/8/11
f 8/5/1 17/6/1 9/5/1
f 18/7/1 17/6/1 8/5/1
f 24/8/1 17/6/1 18/7/1
f 23/9/1 17/6/1 24/8/1
f 22/8/1 17/6/1 23/9/1
f 22/8/1 21/6/1 17/6/1
f 21/6/1 22/8/1 14/5/1
f 14/5/1 22/8/1 20/7/1
f 13/5/1 14/5/1 20/7/1
f 22/8/10 1/7/13 20/7/13
f 1/7/13 22/8/10 3/8/10

g building-corner-window-top-round




usemtl colormap

f 3/3/1 2/2/1 1/1/1
f 2/2/1 3/3/1 4/2/1
f 4/2/1 3/3/1 5/4/1
f 4/2/1 5/4/1 6/3/1
f 4/2/1 6/3/1 7/1/1
f 9/5/2 4/5/2 8/5/2
f 10/5/2 4/5/2 9/5/2
f 10/5/2 9/5/2 11/5/2
f 10/5/2 2/5/2 4/5/2
f 12/5/2 2/5/2 10/5/2
f 12/5/2 13/5/2 2/5/2
f 13/5/2 12/5/2 14/5/2
f 11/5/3 15/6/3 10/5/3
f 15/6/3 11/5/3 16/6/3
f 9/5/4 16/6/4 11/5/4
f 16/6/4 9/5/4 17/6/4
f 4/5/5 18/7/5 8/5/5
f 18/7/5 4/5/5 7/7/5
f 15/6/6 12/5/6 10/5/6
f 12/5/6 15/6/6 19/6/6
f 20/7/7 2/5/7 13/5/7
f 2/5/7 20/7/7 1/7/7
f 21/6/8 12/5/8 19/6/8
f 12/5/8 21/6/8 14/5/8
f 19/6/9 17/6/9 21/6/9
f 17/6/9 19/6/9 15/6/9
f 17/6/9 15/6/9 16/6/9
f 23/9/2 3/8/10 22/8/10
f 3/8/10 23/9/2 5/9/2
f 24/8/11 5/9/2 23/9/2
f 5/9/2 24/8/11 6/8/11
f 6/8/11 18/7/12 7/7/12
f 18/7/12 6/8/11 24/8/11
f 8/5/1 17/6/1 9/5/1
f 18/7/1 17/6/1 8/5/1
f 24/8/1 17/6/1 18/7/1
f 23/9/1 17/6/1 24/8/1
f 22/8/1 17/6/1 23/9/1
f 22/8/1 21/6/1 17/6/1
f 21/6/1 22/8/1 14/5/1
f 14/5/1 22/8/1 20/7/1
f 13/5/1 14/5/1 20/7/1
f 22/8/10 1/7/13 20/7/13
f 1/7/13 22/8/10 3/8/10

