# Created by Kenney (www.kenney.nl)

mtllib door-white-glass.mtl

g door-white-glass

v -0.07076412 0.4457641 7.219114E-14 1 1 1
v -0.07076412 0.05423587 7.219114E-14 1 1 1
v -0.07076412 0.4457641 0.025 1 1 1
v -0.07076412 0.05423587 0.025 1 1 1
v 0.125 0.5 -0.025 1 1 1
v 0.125 0 -0.025 1 1 1
v 0.125 0.5 0.025 1 1 1
v 0.125 0 0.025 1 1 1
v 0.07076412 0.05423587 0.025 1 1 1
v 0.07076412 0.05423587 -6.93035E-14 1 1 1
v 0.07076412 0.4457641 -6.93035E-14 1 1 1
v 0.07076412 0.4457641 0.025 1 1 1
v -0.125 0 -0.025 1 1 1
v -0.125 0.5 -0.025 1 1 1
v -0.125 0 0.025 1 1 1
v -0.125 0.5 0.025 1 1 1

vn 1 0 0
vn 0 1 0
vn -1 0 0
vn 0 0 -1
vn 0 -1 0
vn 0 0 1

vt 0.46875 0.2033056
vt 0.46875 0.04669435
vt 0.46875 0.225
vt 0.46875 0.025
vt 0.71875 0.2966943
vt 0.71875 0.4533057

usemtl colormap

f 3/1/1 2/2/1 1/1/1
f 2/2/1 3/1/1 4/2/1
f 7/3/1 6/4/1 5/3/1
f 6/4/1 7/3/1 8/4/1
f 10/2/2 4/2/2 9/2/2
f 4/2/2 10/2/2 2/2/2
f 9/2/3 11/1/3 10/2/3
f 11/1/3 9/2/3 12/1/3
f 14/3/4 6/4/4 13/4/4
f 6/4/4 14/3/4 5/3/4
f 15/4/3 14/3/3 13/4/3
f 14/3/3 15/4/3 16/3/3
f 3/1/5 11/1/5 12/1/5
f 11/1/5 3/1/5 1/1/5
f 5/3/2 16/3/2 7/3/2
f 16/3/2 5/3/2 14/3/2
f 15/4/5 6/4/5 8/4/5
f 6/4/5 15/4/5 13/4/5
f 9/2/6 7/3/6 12/1/6
f 12/1/6 7/3/6 3/1/6
f 9/2/6 8/4/6 7/3/6
f 16/3/6 3/1/6 7/3/6
f 8/4/6 9/2/6 15/4/6
f 16/3/6 4/2/6 3/1/6
f 15/4/6 4/2/6 16/3/6
f 4/2/6 15/4/6 9/2/6
f 11/6/6 2/5/6 10/5/6
f 2/5/6 11/6/6 1/6/6

g door-white-glass




usemtl colormap

f 3/1/1 2/2/1 1/1/1
f 2/2/1 3/1/1 4/2/1
f 7/3/1 6/4/1 5/3/1
f 6/4/1 7/3/1 8/4/1
f 10/2/2 4/2/2 9/2/2
f 4/2/2 10/2/2 2/2/2
f 9/2/3 11/1/3 10/2/3
f 11/1/3 9/2/3 12/1/3
f 14/3/4 6/4/4 13/4/4
f 6/4/4 14/3/4 5/3/4
f 15/4/3 14/3/3 13/4/3
f 14/3/3 15/4/3 16/3/3
f 3/1/5 11/1/5 12/1/5
f 11/1/5 3/1/5 1/1/5
f 5/3/2 16/3/2 7/3/2
f 16/3/2 5/3/2 14/3/2
f 15/4/5 6/4/5 8/4/5
f 6/4/5 15/4/5 13/4/5
f 9/2/6 7/3/6 12/1/6
f 12/1/6 7/3/6 3/1/6
f 9/2/6 8/4/6 7/3/6
f 16/3/6 3/1/6 7/3/6
f 8/4/6 9/2/6 15/4/6
f 16/3/6 4/2/6 3/1/6
f 15/4/6 4/2/6 16/3/6
f 4/2/6 15/4/6 9/2/6
f 11/6/6 2/5/6 10/5/6
f 2/5/6 11/6/6 1/6/6

