# Created by Kenney (www.kenney.nl)

mtllib door-white.mtl

g door-white

v 0.07076412 0.05423587 0.025 1 1 1
v 0.07076412 0.4457641 0.025 1 1 1
v 0.07076412 0.05423587 0.05 1 1 1
v 0.07076412 0.4457641 0.05 1 1 1
v 0.125 0.5 0.05 1 1 1
v -0.125 0.5 0.05 1 1 1
v 0.125 0.5 0 1 1 1
v -0.125 0.5 2.497813E-13 1 1 1
v -0.125 0 2.497813E-13 1 1 1
v 0.125 0 0 1 1 1
v -0.07076412 0.4457641 0.05 1 1 1
v -0.07076412 0.4457641 0.025 1 1 1
v -0.125 0 0.05 1 1 1
v -0.07076412 0.05423587 0.025 1 1 1
v -0.07076412 0.05423587 0.05 1 1 1
v 0.125 0 0.05 1 1 1

vn -1 0 0
vn 0 1 0
vn 0 0 -1
vn 0 -1 0
vn 1 0 0
vn 0 0 1

vt 0.46875 0.04669435
vt 0.46875 0.2033056
vt 0.46875 0.225
vt 0.46875 0.025

usemtl colormap

f 3/1/1 2/2/1 1/1/1
f 2/2/1 3/1/1 4/2/1
f 7/3/2 6/3/2 5/3/2
f 6/3/2 7/3/2 8/3/2
f 8/3/3 10/4/3 9/4/3
f 10/4/3 8/3/3 7/3/3
f 11/2/4 2/2/4 4/2/4
f 2/2/4 11/2/4 12/2/4
f 13/4/1 8/3/1 9/4/1
f 8/3/1 13/4/1 6/3/1
f 11/2/5 14/1/5 12/2/5
f 14/1/5 11/2/5 15/1/5
f 2/2/6 14/1/6 1/1/6
f 14/1/6 2/2/6 12/2/6
f 13/4/4 10/4/4 16/4/4
f 10/4/4 13/4/4 9/4/4
f 1/1/2 15/1/2 3/1/2
f 15/1/2 1/1/2 14/1/2
f 5/3/5 10/4/5 7/3/5
f 10/4/5 5/3/5 16/4/5
f 3/1/6 5/3/6 4/2/6
f 4/2/6 5/3/6 11/2/6
f 3/1/6 16/4/6 5/3/6
f 6/3/6 11/2/6 5/3/6
f 16/4/6 3/1/6 13/4/6
f 6/3/6 15/1/6 11/2/6
f 13/4/6 15/1/6 6/3/6
f 15/1/6 13/4/6 3/1/6

g door-white




usemtl colormap

f 3/1/1 2/2/1 1/1/1
f 2/2/1 3/1/1 4/2/1
f 7/3/2 6/3/2 5/3/2
f 6/3/2 7/3/2 8/3/2
f 8/3/3 10/4/3 9/4/3
f 10/4/3 8/3/3 7/3/3
f 11/2/4 2/2/4 4/2/4
f 2/2/4 11/2/4 12/2/4
f 13/4/1 8/3/1 9/4/1
f 8/3/1 13/4/1 6/3/1
f 11/2/5 14/1/5 12/2/5
f 14/1/5 11/2/5 15/1/5
f 2/2/6 14/1/6 1/1/6
f 14/1/6 2/2/6 12/2/6
f 13/4/4 10/4/4 16/4/4
f 10/4/4 13/4/4 9/4/4
f 1/1/2 15/1/2 3/1/2
f 15/1/2 1/1/2 14/1/2
f 5/3/5 10/4/5 7/3/5
f 10/4/5 5/3/5 16/4/5
f 3/1/6 5/3/6 4/2/6
f 4/2/6 5/3/6 11/2/6
f 3/1/6 16/4/6 5/3/6
f 6/3/6 11/2/6 5/3/6
f 16/4/6 3/1/6 13/4/6
f 6/3/6 15/1/6 11/2/6
f 13/4/6 15/1/6 6/3/6
f 15/1/6 13/4/6 3/1/6

