# Created by Kenney (www.kenney.nl)

mtllib door-brown-glass.mtl

g door-brown-glass

v -0.125 0 2.497813E-13 1 1 1
v 0.125 0 0 1 1 1
v -0.125 0.5 2.497813E-13 1 1 1
v 0.125 0.5 0 1 1 1
v 0.125 0.5 0.05 1 1 1
v -0.125 0.5 0.05 1 1 1
v 0.125 0 0.05 1 1 1
v -0.125 0 0.05 1 1 1
v 0.07076412 0.05423587 0.05 1 1 1
v -0.07076412 0.05423587 0.05 1 1 1
v 0.07076412 0.05423587 0.025 1 1 1
v -0.07076412 0.05423587 0.025 1 1 1
v -0.07076412 0.4457641 0.025 1 1 1
v -0.07076412 0.4457641 0.05 1 1 1
v 0.07076412 0.4457641 0.025 1 1 1
v 0.07076412 0.4457641 0.05 1 1 1

vn 0 0 -1
vn 0 1 0
vn 0 -1 0
vn -1 0 0
vn 1 0 0
vn 0 0 1

vt 0.59375 0.025
vt 0.59375 0.225
vt 0.59375 0.04669435
vt 0.59375 0.2033056
vt 0.71875 0.2966943
vt 0.71875 0.4533057

usemtl colormap

f 3/2/1 2/1/1 1/1/1
f 2/1/1 3/2/1 4/2/1
f 4/2/2 6/2/2 5/2/2
f 6/2/2 4/2/2 3/2/2
f 8/1/3 2/1/3 7/1/3
f 2/1/3 8/1/3 1/1/3
f 11/3/2 10/3/2 9/3/2
f 10/3/2 11/3/2 12/3/2
f 8/1/4 3/2/4 1/1/4
f 3/2/4 8/1/4 6/2/4
f 14/4/5 12/3/5 13/4/5
f 12/3/5 14/4/5 10/3/5
f 9/3/4 15/4/4 11/3/4
f 15/4/4 9/3/4 16/4/4
f 5/2/5 2/1/5 4/2/5
f 2/1/5 5/2/5 7/1/5
f 14/4/3 15/4/3 16/4/3
f 15/4/3 14/4/3 13/4/3
f 7/1/6 9/3/6 8/1/6
f 9/3/6 7/1/6 5/2/6
f 10/3/6 8/1/6 9/3/6
f 9/3/6 5/2/6 16/4/6
f 8/1/6 10/3/6 6/2/6
f 16/4/6 5/2/6 14/4/6
f 6/2/6 10/3/6 14/4/6
f 6/2/6 14/4/6 5/2/6
f 15/6/6 12/5/6 11/5/6
f 12/5/6 15/6/6 13/6/6

g door-brown-glass




usemtl colormap

f 3/2/1 2/1/1 1/1/1
f 2/1/1 3/2/1 4/2/1
f 4/2/2 6/2/2 5/2/2
f 6/2/2 4/2/2 3/2/2
f 8/1/3 2/1/3 7/1/3
f 2/1/3 8/1/3 1/1/3
f 11/3/2 10/3/2 9/3/2
f 10/3/2 11/3/2 12/3/2
f 8/1/4 3/2/4 1/1/4
f 3/2/4 8/1/4 6/2/4
f 14/4/5 12/3/5 13/4/5
f 12/3/5 14/4/5 10/3/5
f 9/3/4 15/4/4 11/3/4
f 15/4/4 9/3/4 16/4/4
f 5/2/5 2/1/5 4/2/5
f 2/1/5 5/2/5 7/1/5
f 14/4/3 15/4/3 16/4/3
f 15/4/3 14/4/3 13/4/3
f 7/1/6 9/3/6 8/1/6
f 9/3/6 7/1/6 5/2/6
f 10/3/6 8/1/6 9/3/6
f 9/3/6 5/2/6 16/4/6
f 8/1/6 10/3/6 6/2/6
f 16/4/6 5/2/6 14/4/6
f 6/2/6 10/3/6 14/4/6
f 6/2/6 14/4/6 5/2/6
f 15/6/6 12/5/6 11/5/6
f 12/5/6 15/6/6 13/6/6

