# Created by Kenney (www.kenney.nl)

mtllib door-white-window.mtl

g door-white-window

v -0.125 0 -0.025 1 1 1
v -0.125 0.5 -0.025 1 1 1
v -0.125 0 0.025 1 1 1
v -0.125 0.5 0.025 1 1 1
v 0.07076412 0.25 -6.93035E-14 1 1 1
v 0.07076412 0.4457641 -6.93035E-14 1 1 1
v 0.07076412 0.25 0.025 1 1 1
v 0.07076412 0.4457641 0.025 1 1 1
v 0.125 0.5 0.025 1 1 1
v 0.125 0.5 -0.025 1 1 1
v 0.125 0 -0.025 1 1 1
v 0.125 0 0.025 1 1 1
v -0.07076412 0.25 0.025 1 1 1
v -0.07076412 0.25 7.219114E-14 1 1 1
v -0.07076412 0.4457641 7.219114E-14 1 1 1
v -0.07076412 0.4457641 0.025 1 1 1

vn -1 0 0
vn 0 1 0
vn 0 0 -1
vn 1 0 0
vn 0 -1 0
vn 0 0 1

vt 0.46875 0.025
vt 0.46875 0.225
vt 0.46875 0.125
vt 0.46875 0.2033056
vt 0.71875 0.375
vt 0.71875 0.4533057

usemtl colormap

f 3/1/1 2/2/1 1/1/1
f 2/2/1 3/1/1 4/2/1
f 7/3/1 6/4/1 5/3/1
f 6/4/1 7/3/1 8/4/1
f 10/2/2 4/2/2 9/2/2
f 4/2/2 10/2/2 2/2/2
f 2/2/3 11/1/3 1/1/3
f 11/1/3 2/2/3 10/2/3
f 9/2/4 11/1/4 10/2/4
f 11/1/4 9/2/4 12/1/4
f 5/3/2 13/3/2 7/3/2
f 13/3/2 5/3/2 14/3/2
f 16/4/4 14/3/4 15/4/4
f 14/3/4 16/4/4 13/3/4
f 3/1/5 11/1/5 12/1/5
f 11/1/5 3/1/5 1/1/5
f 16/4/5 6/4/5 8/4/5
f 6/4/5 16/4/5 15/4/5
f 7/3/6 9/2/6 8/4/6
f 8/4/6 9/2/6 16/4/6
f 7/3/6 12/1/6 9/2/6
f 4/2/6 16/4/6 9/2/6
f 12/1/6 7/3/6 3/1/6
f 4/2/6 13/3/6 16/4/6
f 3/1/6 13/3/6 4/2/6
f 13/3/6 3/1/6 7/3/6
f 6/6/6 14/5/6 5/5/6
f 14/5/6 6/6/6 15/6/6

g door-white-window




usemtl colormap

f 3/1/1 2/2/1 1/1/1
f 2/2/1 3/1/1 4/2/1
f 7/3/1 6/4/1 5/3/1
f 6/4/1 7/3/1 8/4/1
f 10/2/2 4/2/2 9/2/2
f 4/2/2 10/2/2 2/2/2
f 2/2/3 11/1/3 1/1/3
f 11/1/3 2/2/3 10/2/3
f 9/2/4 11/1/4 10/2/4
f 11/1/4 9/2/4 12/1/4
f 5/3/2 13/3/2 7/3/2
f 13/3/2 5/3/2 14/3/2
f 16/4/4 14/3/4 15/4/4
f 14/3/4 16/4/4 13/3/4
f 3/1/5 11/1/5 12/1/5
f 11/1/5 3/1/5 1/1/5
f 16/4/5 6/4/5 8/4/5
f 6/4/5 16/4/5 15/4/5
f 7/3/6 9/2/6 8/4/6
f 8/4/6 9/2/6 16/4/6
f 7/3/6 12/1/6 9/2/6
f 4/2/6 16/4/6 9/2/6
f 12/1/6 7/3/6 3/1/6
f 4/2/6 13/3/6 16/4/6
f 3/1/6 13/3/6 4/2/6
f 13/3/6 3/1/6 7/3/6
f 6/6/6 14/5/6 5/5/6
f 14/5/6 6/6/6 15/6/6

