# Created by Kenney (www.kenney.nl)

mtllib door-brown-window.mtl

g door-brown-window

v 0.125 0.5 0 1 1 1
v 0.125 0 0 1 1 1
v 0.125 0.5 0.05 1 1 1
v 0.125 0 0.05 1 1 1
v -0.125 0.5 0.05 1 1 1
v -0.125 0.5 2.497813E-13 1 1 1
v -0.125 0 0.05 1 1 1
v -0.125 0 2.497813E-13 1 1 1
v 0.07076412 0.25 0.025 1 1 1
v 0.07076412 0.4457641 0.025 1 1 1
v 0.07076412 0.25 0.05 1 1 1
v 0.07076412 0.4457641 0.05 1 1 1
v -0.07076412 0.4457641 0.025 1 1 1
v -0.07076412 0.25 0.025 1 1 1
v -0.07076412 0.4457641 0.05 1 1 1
v -0.07076412 0.25 0.05 1 1 1

vn 1 0 0
vn 0 1 0
vn 0 -1 0
vn -1 0 0
vn 0 0 -1
vn 0 0 1

vt 0.59375 0.225
vt 0.59375 0.025
vt 0.59375 0.125
vt 0.59375 0.2033056
vt 0.71875 0.375
vt 0.71875 0.4533057

usemtl colormap

f 3/1/1 2/2/1 1/1/1
f 2/2/1 3/1/1 4/2/1
f 1/1/2 5/1/2 3/1/2
f 5/1/2 1/1/2 6/1/2
f 7/2/3 2/2/3 4/2/3
f 2/2/3 7/2/3 8/2/3
f 11/3/4 10/4/4 9/3/4
f 10/4/4 11/3/4 12/4/4
f 15/4/1 14/3/1 13/4/1
f 14/3/1 15/4/1 16/3/1
f 6/1/5 2/2/5 8/2/5
f 2/2/5 6/1/5 1/1/5
f 7/2/4 6/1/4 8/2/4
f 6/1/4 7/2/4 5/1/4
f 9/3/2 16/3/2 11/3/2
f 16/3/2 9/3/2 14/3/2
f 15/4/3 10/4/3 12/4/3
f 10/4/3 15/4/3 13/4/3
f 11/3/6 3/1/6 12/4/6
f 12/4/6 3/1/6 15/4/6
f 11/3/6 4/2/6 3/1/6
f 5/1/6 15/4/6 3/1/6
f 4/2/6 11/3/6 7/2/6
f 5/1/6 16/3/6 15/4/6
f 7/2/6 16/3/6 5/1/6
f 16/3/6 7/2/6 11/3/6
f 10/6/6 14/5/6 9/5/6
f 14/5/6 10/6/6 13/6/6

g door-brown-window




usemtl colormap

f 3/1/1 2/2/1 1/1/1
f 2/2/1 3/1/1 4/2/1
f 1/1/2 5/1/2 3/1/2
f 5/1/2 1/1/2 6/1/2
f 7/2/3 2/2/3 4/2/3
f 2/2/3 7/2/3 8/2/3
f 11/3/4 10/4/4 9/3/4
f 10/4/4 11/3/4 12/4/4
f 15/4/1 14/3/1 13/4/1
f 14/3/1 15/4/1 16/3/1
f 6/1/5 2/2/5 8/2/5
f 2/2/5 6/1/5 1/1/5
f 7/2/4 6/1/4 8/2/4
f 6/1/4 7/2/4 5/1/4
f 9/3/2 16/3/2 11/3/2
f 16/3/2 9/3/2 14/3/2
f 15/4/3 10/4/3 12/4/3
f 10/4/3 15/4/3 13/4/3
f 11/3/6 3/1/6 12/4/6
f 12/4/6 3/1/6 15/4/6
f 11/3/6 4/2/6 3/1/6
f 5/1/6 15/4/6 3/1/6
f 4/2/6 11/3/6 7/2/6
f 5/1/6 16/3/6 15/4/6
f 7/2/6 16/3/6 5/1/6
f 16/3/6 7/2/6 11/3/6
f 10/6/6 14/5/6 9/5/6
f 14/5/6 10/6/6 13/6/6

