# Created by Kenney (www.kenney.nl)

mtllib roof-slanted-detail.mtl

g roof-slanted-detail

v 0.3574569 0.1217478 0.5 1 1 1
v -0.357457 0.1217478 0.5 1 1 1
v -1.490214E-08 0.4270563 0.5 1 1 1
v -0.5 0 -0.5 1 1 1
v 0.5 0 -0.5 1 1 1
v -0.5 0.625 -0.5 1 1 1
v 0.5 0.625 -0.5 1 1 1
v -0.5 0.725 -0.5 1 1 1
v 0.5 0.725 -0.5 1 1 1
v -0.5 0 0.5 1 1 1
v -0.5 0.625 -0.4 1 1 1
v 0.5 0.625 -0.4 1 1 1
v 0.5 0 0.5 1 1 1
v 0.4648124 0.1217478 0.5 1 1 1
v -1.490215E-08 0.51875 0.5 1 1 1
v -2.342145E-08 0.51875 -0.07168314 1 1 1
v -0.4648125 0.1217478 0.5 1 1 1
v 0.5 -0.05703958 0.582137 1 1 1
v -0.5 -0.05703958 0.582137 1 1 1
v 0.5 0.02509742 0.6391766 1 1 1
v -0.5 0.02509742 0.6391766 1 1 1
v -0.5 0.725 -0.5 1 1 1
v -0.5 0.625 -0.4 1 1 1
v -0.5 0.725 -0.3686832 1 1 1
v 0.5 0.725 -0.5 1 1 1
v 0.5 0.725 -0.3686832 1 1 1
v 0.5 0.625 -0.4 1 1 1
v -0.357457 0.1217478 0.5 1 1 1

vn 0 0 1
vn 0 0 -1
vn -1 0 0
vn 1 0 0
vn 0 -1 0
vn 0.6494621 0.760394 0
vn -0.6494621 0.760394 0
vn 0 -0.5703959 0.8213699
vn 0 0.1774655 0.984127
vn 0 -0.8213699 -0.5703959
vn 0 1 0
vn 0 0.9542981 0.2988562
vn 0 0.8213699 0.5703959

vt 0.96875 0.08201722
vt 0.96875 0.225
vt 0.96875 0.025
vt 0.96875 0.1974138
vt 0.09375 0.07072336
vt 0.09375 0.1722533
vt 0.09375 0.025
vt 0.09375 0.04600584
vt 0.09375 0.1994258
vt 0.09375 0.225
vt 0.09375 0.03958739
vt 0.09375 0.1488034

usemtl colormap

f 3/2/1 2/1/1 1/1/1
f 6/4/2 5/3/2 4/3/2
f 5/3/2 6/4/2 7/4/2
f 7/4/2 6/4/2 8/2/2
f 7/4/2 8/2/2 9/2/2
f 10/3/3 6/4/3 4/3/3
f 6/4/3 10/3/3 11/4/3
f 12/4/4 5/3/4 7/4/4
f 5/3/4 12/4/4 13/3/4
f 10/3/5 5/3/5 13/3/5
f 5/3/5 10/3/5 4/3/5
f 16/6/6 15/6/6 14/5/6
f 17/5/7 15/6/7 16/6/7
f 20/8/9 19/7/8 18/7/8
f 19/7/8 20/8/9 21/8/9
f 23/9/3 22/10/3 6/9/3
f 22/10/3 23/9/3 24/10/3
f 24/10/3 23/9/3 10/11/3
f 24/10/3 10/11/3 21/8/3
f 21/8/3 10/11/3 19/7/3
f 19/7/10 13/11/10 18/7/10
f 13/11/10 19/7/10 10/11/10
f 26/10/4 7/9/4 25/10/4
f 7/9/4 26/10/4 27/9/4
f 27/9/4 26/10/4 13/11/4
f 13/11/4 26/10/4 20/8/4
f 13/11/4 20/8/4 18/7/4
f 14/5/1 3/12/1 1/5/1
f 3/12/1 14/5/1 15/6/1
f 15/6/1 28/5/1 3/12/1
f 28/5/1 15/6/1 17/5/1
f 22/10/11 26/10/12 25/10/11
f 26/10/12 22/10/11 24/10/12
f 21/8/9 1/5/13 28/5/13
f 21/8/9 28/5/13 17/5/13
f 21/8/9 14/5/13 1/5/13
f 21/8/9 17/5/13 24/10/12
f 14/5/13 21/8/9 20/8/9
f 16/6/13 24/10/12 17/5/13
f 26/10/12 14/5/13 20/8/9
f 16/6/13 26/10/12 24/10/12
f 14/5/13 26/10/12 16/6/13

g roof-slanted-detail




usemtl colormap

f 3/2/1 2/1/1 1/1/1
f 6/4/2 5/3/2 4/3/2
f 5/3/2 6/4/2 7/4/2
f 7/4/2 6/4/2 8/2/2
f 7/4/2 8/2/2 9/2/2
f 10/3/3 6/4/3 4/3/3
f 6/4/3 10/3/3 11/4/3
f 12/4/4 5/3/4 7/4/4
f 5/3/4 12/4/4 13/3/4
f 10/3/5 5/3/5 13/3/5
f 5/3/5 10/3/5 4/3/5
f 16/6/6 15/6/6 14/5/6
f 17/5/7 15/6/7 16/6/7
f 20/8/9 19/7/8 18/7/8
f 19/7/8 20/8/9 21/8/9
f 23/9/3 22/10/3 6/9/3
f 22/10/3 23/9/3 24/10/3
f 24/10/3 23/9/3 10/11/3
f 24/10/3 10/11/3 21/8/3
f 21/8/3 10/11/3 19/7/3
f 19/7/10 13/11/10 18/7/10
f 13/11/10 19/7/10 10/11/10
f 26/10/4 7/9/4 25/10/4
f 7/9/4 26/10/4 27/9/4
f 27/9/4 26/10/4 13/11/4
f 13/11/4 26/10/4 20/8/4
f 13/11/4 20/8/4 18/7/4
f 14/5/1 3/12/1 1/5/1
f 3/12/1 14/5/1 15/6/1
f 15/6/1 28/5/1 3/12/1
f 28/5/1 15/6/1 17/5/1
f 22/10/11 26/10/12 25/10/11
f 26/10/12 22/10/11 24/10/12
f 21/8/9 1/5/13 28/5/13
f 21/8/9 28/5/13 17/5/13
f 21/8/9 14/5/13 1/5/13
f 21/8/9 17/5/13 24/10/12
f 14/5/13 21/8/9 20/8/9
f 16/6/13 24/10/12 17/5/13
f 26/10/12 14/5/13 20/8/9
f 16/6/13 26/10/12 24/10/12
f 14/5/13 26/10/12 16/6/13

