# Created by Kenney (www.kenney.nl)

mtllib roof-slanted-window.mtl

g roof-slanted-window

v 0.5 -0.05703958 0.582137 1 1 1
v 0.5 -4.511946E-17 0.5 1 1 1
v -0.5 -0.05703958 0.582137 1 1 1
v -0.5 -4.511946E-17 0.5 1 1 1
v 0.5 0.725 -0.5 1 1 1
v 0.5 0.625 -0.5 1 1 1
v 0.5 0.725 -0.3686831 1 1 1
v 0.5 0.625 -0.4 1 1 1
v 0.5 0.02509741 0.6391766 1 1 1
v -0.5 0.725 -0.5 1 1 1
v -0.5 0.725 -0.3686831 1 1 1
v -0.5 0.02509741 0.6391766 1 1 1
v -0.5 0.625 -0.5 1 1 1
v -0.5 0.625 -0.4 1 1 1
v 5.7031E-14 0.5310671 0.4427656 1 1 1
v -0.2453853 0.4331563 0.4427656 1 1 1
v -5.067818E-13 0.5310671 -0.1215832 1 1 1
v -0.2453853 0.4331563 -0.1215832 1 1 1
v 0.2453853 0.4331563 0.4427656 1 1 1
v 0.2453853 0.4331563 -0.1215832 1 1 1
v 5.7031E-14 0.4810672 0.4427656 1 1 1
v 2.887646E-15 0.4810672 0.3927656 1 1 1
v -0.2453853 0.3831563 0.4427656 1 1 1
v -0.2453853 0.3831563 0.3927656 1 1 1
v -0.2453853 0.3831563 -0.1215832 1 1 1
v 0.2453853 0.3831563 0.4427656 1 1 1
v 0.2453853 0.3831563 0.3927656 1 1 1
v 0.2453853 0.3831563 -0.1215832 1 1 1
v 0.2453853 0.1962162 -0.1215832 1 1 1
v 0.2453853 0.1962162 0.3927656 1 1 1
v 0.1804121 0.3391268 0.3927656 1 1 1
v 0.1804121 0.3391268 0.3427656 1 1 1
v 2.887646E-15 0.4111127 0.3927656 1 1 1
v -4.259277E-14 0.4111127 0.3427656 1 1 1
v 0.1804121 0.2611894 0.3927656 1 1 1
v -0.1804121 0.2611894 0.3927656 1 1 1
v 0.1804121 0.2611894 0.3427656 1 1 1
v -0.1804121 0.2611894 0.3427656 1 1 1
v -0.1804121 0.3391268 0.3927656 1 1 1
v -0.1804121 0.3391268 0.3427656 1 1 1
v -0.2453853 0.1962162 0.3927656 1 1 1
v -0.2453853 0.1962162 -0.1215832 1 1 1
v -0.5 0 -0.5 1 1 1
v 0.5 0 -0.5 1 1 1
v -0.5 0 0.5 1 1 1
v 0.5 0 0.5 1 1 1

vn 0 -0.8213699 -0.5703959
vn 1 0 0
vn 0 1 0
vn 0 0.9542981 0.2988562
vn 0 -0.5703959 0.8213699
vn 0 0.1774655 0.984127
vn -1 0 0
vn -0.3705966 0.9287938 0
vn 0.3705966 0.9287938 0
vn 0.3705966 -0.9287938 0
vn -0.3705966 -0.9287938 0
vn 0 0 1
vn 0 -1 0
vn 0 0 -1

vt 0.09375 0.025
vt 0.09375 0.225
vt 0.09375 0.1974138
vt 0.09375 0.03192342
vt 0.09375 0.1715013
vt 0.09375 0.1444914
vt 0.09375 0.1577082
vt 0.09375 0.1306983
vt 0.96875 0.1306983
vt 0.96875 0.0791286
vt 0.96875 0.1185522
vt 0.96875 0.1384104
vt 0.96875 0.09705225
vt 0.96875 0.1444914
vt 0.96875 0.1715013
vt 0.96875 0.1577082
vt 0.96875 0.025
vt 0.96875 0.1974138
vt 0.96875 0.225
vt 0.71875 0.3470522
vt 0.71875 0.3685522
vt 0.71875 0.3884104

usemtl colormap

f 3/1/1 2/1/1 1/1/1
f 2/1/1 3/1/1 4/1/1
f 7/2/2 6/3/2 5/2/2
f 6/3/2 7/2/2 8/3/2
f 8/3/2 7/2/2 2/1/2
f 2/1/2 7/2/2 9/4/2
f 2/1/2 9/4/2 1/1/2
f 10/2/3 7/2/4 5/2/3
f 7/2/4 10/2/3 11/2/4
f 9/4/6 3/1/5 1/1/5
f 3/1/5 9/4/6 12/4/6
f 11/2/4 9/4/6 7/2/4
f 9/4/6 11/2/4 12/4/6
f 14/3/7 10/2/7 13/3/7
f 10/2/7 14/3/7 11/2/7
f 11/2/7 14/3/7 4/1/7
f 11/2/7 4/1/7 12/4/7
f 12/4/7 4/1/7 3/1/7
f 17/5/8 16/6/8 15/5/8
f 16/6/8 17/5/8 18/6/8
f 20/6/9 15/5/9 19/6/9
f 15/5/9 20/6/9 17/5/9
f 23/8/10 22/7/10 21/7/10
f 22/7/10 23/8/10 24/8/10
f 25/9/7 16/6/7 18/6/7
f 16/6/7 25/9/7 24/9/7
f 16/6/7 24/9/7 23/8/7
f 21/7/11 27/8/11 26/8/11
f 27/8/11 21/7/11 22/7/11
f 20/6/2 27/9/2 28/9/2
f 27/9/2 20/6/2 19/6/2
f 27/9/2 19/6/2 26/8/2
f 19/6/12 21/7/12 26/8/12
f 21/7/12 19/6/12 15/5/12
f 16/6/12 21/7/12 15/5/12
f 21/7/12 16/6/12 23/8/12
f 27/9/2 29/10/2 28/9/2
f 29/10/2 27/9/2 30/10/2
f 33/12/11 32/11/11 31/11/11
f 32/11/11 33/12/11 34/12/11
f 37/13/3 36/13/3 35/13/3
f 36/13/3 37/13/3 38/13/3
f 39/11/10 34/12/10 33/12/10
f 34/12/10 39/11/10 40/11/10
f 41/10/13 29/10/13 30/10/13
f 29/10/13 41/10/13 42/10/13
f 39/11/2 38/13/2 40/11/2
f 38/13/2 39/11/2 36/13/2
f 35/13/7 32/11/7 37/13/7
f 32/11/7 35/13/7 31/11/7
f 41/10/7 25/9/7 42/10/7
f 25/9/7 41/10/7 24/9/7
f 25/9/14 29/10/14 42/10/14
f 29/10/14 25/9/14 28/9/14
f 28/9/14 25/9/14 18/14/14
f 28/9/14 18/14/14 20/14/14
f 20/14/14 18/14/14 17/15/14
f 24/9/12 36/13/12 39/11/12
f 24/9/12 39/11/12 33/12/12
f 41/10/12 36/13/12 24/9/12
f 24/9/12 33/12/12 22/16/12
f 36/13/12 41/10/12 30/10/12
f 30/10/12 35/13/12 36/13/12
f 33/12/12 27/9/12 22/16/12
f 35/13/12 30/10/12 27/9/12
f 31/11/12 27/9/12 33/12/12
f 35/13/12 27/9/12 31/11/12
f 13/18/14 44/17/14 43/17/14
f 44/17/14 13/18/14 6/18/14
f 6/18/14 13/18/14 10/19/14
f 6/18/14 10/19/14 5/19/14
f 45/17/7 13/18/7 43/17/7
f 13/18/7 45/17/7 14/18/7
f 8/18/2 44/17/2 6/18/2
f 44/17/2 8/18/2 46/17/2
f 45/17/13 44/17/13 46/17/13
f 44/17/13 45/17/13 43/17/13
f 37/20/12 40/21/12 38/20/12
f 40/21/12 37/20/12 32/21/12
f 40/21/12 32/21/12 34/22/12

g roof-slanted-window




usemtl colormap

f 3/1/1 2/1/1 1/1/1
f 2/1/1 3/1/1 4/1/1
f 7/2/2 6/3/2 5/2/2
f 6/3/2 7/2/2 8/3/2
f 8/3/2 7/2/2 2/1/2
f 2/1/2 7/2/2 9/4/2
f 2/1/2 9/4/2 1/1/2
f 10/2/3 7/2/4 5/2/3
f 7/2/4 10/2/3 11/2/4
f 9/4/6 3/1/5 1/1/5
f 3/1/5 9/4/6 12/4/6
f 11/2/4 9/4/6 7/2/4
f 9/4/6 11/2/4 12/4/6
f 14/3/7 10/2/7 13/3/7
f 10/2/7 14/3/7 11/2/7
f 11/2/7 14/3/7 4/1/7
f 11/2/7 4/1/7 12/4/7
f 12/4/7 4/1/7 3/1/7
f 17/5/8 16/6/8 15/5/8
f 16/6/8 17/5/8 18/6/8
f 20/6/9 15/5/9 19/6/9
f 15/5/9 20/6/9 17/5/9
f 23/8/10 22/7/10 21/7/10
f 22/7/10 23/8/10 24/8/10
f 25/9/7 16/6/7 18/6/7
f 16/6/7 25/9/7 24/9/7
f 16/6/7 24/9/7 23/8/7
f 21/7/11 27/8/11 26/8/11
f 27/8/11 21/7/11 22/7/11
f 20/6/2 27/9/2 28/9/2
f 27/9/2 20/6/2 19/6/2
f 27/9/2 19/6/2 26/8/2
f 19/6/12 21/7/12 26/8/12
f 21/7/12 19/6/12 15/5/12
f 16/6/12 21/7/12 15/5/12
f 21/7/12 16/6/12 23/8/12
f 27/9/2 29/10/2 28/9/2
f 29/10/2 27/9/2 30/10/2
f 33/12/11 32/11/11 31/11/11
f 32/11/11 33/12/11 34/12/11
f 37/13/3 36/13/3 35/13/3
f 36/13/3 37/13/3 38/13/3
f 39/11/10 34/12/10 33/12/10
f 34/12/10 39/11/10 40/11/10
f 41/10/13 29/10/13 30/10/13
f 29/10/13 41/10/13 42/10/13
f 39/11/2 38/13/2 40/11/2
f 38/13/2 39/11/2 36/13/2
f 35/13/7 32/11/7 37/13/7
f 32/11/7 35/13/7 31/11/7
f 41/10/7 25/9/7 42/10/7
f 25/9/7 41/10/7 24/9/7
f 25/9/14 29/10/14 42/10/14
f 29/10/14 25/9/14 28/9/14
f 28/9/14 25/9/14 18/14/14
f 28/9/14 18/14/14 20/14/14
f 20/14/14 18/14/14 17/15/14
f 24/9/12 36/13/12 39/11/12
f 24/9/12 39/11/12 33/12/12
f 41/10/12 36/13/12 24/9/12
f 24/9/12 33/12/12 22/16/12
f 36/13/12 41/10/12 30/10/12
f 30/10/12 35/13/12 36/13/12
f 33/12/12 27/9/12 22/16/12
f 35/13/12 30/10/12 27/9/12
f 31/11/12 27/9/12 33/12/12
f 35/13/12 27/9/12 31/11/12
f 13/18/14 44/17/14 43/17/14
f 44/17/14 13/18/14 6/18/14
f 6/18/14 13/18/14 10/19/14
f 6/18/14 10/19/14 5/19/14
f 45/17/7 13/18/7 43/17/7
f 13/18/7 45/17/7 14/18/7
f 8/18/2 44/17/2 6/18/2
f 44/17/2 8/18/2 46/17/2
f 45/17/13 44/17/13 46/17/13
f 44/17/13 45/17/13 43/17/13
f 37/20/12 40/21/12 38/20/12
f 40/21/12 37/20/12 32/21/12
f 40/21/12 32/21/12 34/22/12

