# Created by Kenney (www.kenney.nl)

mtllib roof-flat-border-corner-slanted.mtl

g roof-flat-border-corner-slanted

v -0.5 0 0.5 1 1 1
v -0.5 0.2125 0.5 1 1 1
v 7.50066E-13 1.082867E-15 0.5 1 1 1
v 7.50066E-13 0.2125 0.5 1 1 1
v -0.5 0 -0.5 1 1 1
v 0.5 0 -0.5 1 1 1
v -0.5 0.10625 -0.5 1 1 1
v 0.375 0.10625 -0.5 1 1 1
v 0.5 0.2125 -0.5 1 1 1
v 0.375 0.2125 -0.5 1 1 1
v 0.375 0.2125 -3.75033E-13 1 1 1
v 0.5 0.2125 -4.992018E-13 1 1 1
v 6.244534E-13 0.2125 0.375 1 1 1
v -0.5 0.2125 0.375 1 1 1
v -0.5 0.10625 0.375 1 1 1
v 6.244534E-13 0.10625 0.375 1 1 1
v 0.5 5.414336E-16 -4.992018E-13 1 1 1
v 0.375 0.10625 -3.75033E-13 1 1 1

vn 0 0 1
vn 0 0 -1
vn 0 1 0
vn 0 -1 0
vn -1 0 0
vn -0.7071068 0 -0.7071068
vn 1 0 0
vn 0.7071068 0 0.7071068

vt 0.96875 0.025
vt 0.96875 0.225
vt 0.96875 0.125
vt 0.84375 0.125

usemtl colormap

f 3/1/1 2/2/1 1/1/1
f 2/2/1 3/1/1 4/2/1
f 7/3/2 6/1/2 5/1/2
f 6/1/2 7/3/2 8/3/2
f 6/1/2 8/3/2 9/2/2
f 9/2/2 8/3/2 10/2/2
f 10/2/3 11/2/3 9/2/3
f 11/2/3 12/2/3 9/2/3
f 12/2/3 11/2/3 4/2/3
f 4/2/3 11/2/3 13/2/3
f 4/2/3 13/2/3 2/2/3
f 2/2/3 13/2/3 14/2/3
f 14/2/2 16/3/2 15/3/2
f 16/3/2 14/2/2 13/2/2
f 3/1/4 6/1/4 17/1/4
f 6/1/4 3/1/4 5/1/4
f 5/1/4 3/1/4 1/1/4
f 1/1/5 7/3/5 5/1/5
f 7/3/5 1/1/5 15/3/5
f 15/3/5 1/1/5 14/2/5
f 14/2/5 1/1/5 2/2/5
f 18/3/5 10/2/5 8/3/5
f 10/2/5 18/3/5 11/2/5
f 16/3/6 11/2/6 18/3/6
f 11/2/6 16/3/6 13/2/6
f 12/2/7 6/1/7 9/2/7
f 6/1/7 12/2/7 17/1/7
f 4/2/8 17/1/8 12/2/8
f 17/1/8 4/2/8 3/1/8
f 8/4/3 16/4/3 18/4/3
f 16/4/3 8/4/3 7/4/3
f 16/4/3 7/4/3 15/4/3

g roof-flat-border-corner-slanted




usemtl colormap

f 3/1/1 2/2/1 1/1/1
f 2/2/1 3/1/1 4/2/1
f 7/3/2 6/1/2 5/1/2
f 6/1/2 7/3/2 8/3/2
f 6/1/2 8/3/2 9/2/2
f 9/2/2 8/3/2 10/2/2
f 10/2/3 11/2/3 9/2/3
f 11/2/3 12/2/3 9/2/3
f 12/2/3 11/2/3 4/2/3
f 4/2/3 11/2/3 13/2/3
f 4/2/3 13/2/3 2/2/3
f 2/2/3 13/2/3 14/2/3
f 14/2/2 16/3/2 15/3/2
f 16/3/2 14/2/2 13/2/2
f 3/1/4 6/1/4 17/1/4
f 6/1/4 3/1/4 5/1/4
f 5/1/4 3/1/4 1/1/4
f 1/1/5 7/3/5 5/1/5
f 7/3/5 1/1/5 15/3/5
f 15/3/5 1/1/5 14/2/5
f 14/2/5 1/1/5 2/2/5
f 18/3/5 10/2/5 8/3/5
f 10/2/5 18/3/5 11/2/5
f 16/3/6 11/2/6 18/3/6
f 11/2/6 16/3/6 13/2/6
f 12/2/7 6/1/7 9/2/7
f 6/1/7 12/2/7 17/1/7
f 4/2/8 17/1/8 12/2/8
f 17/1/8 4/2/8 3/1/8
f 8/4/3 16/4/3 18/4/3
f 16/4/3 8/4/3 7/4/3
f 16/4/3 7/4/3 15/4/3

