# Created by Kenney (www.kenney.nl)

mtllib roof-flat-corner-high.mtl

g roof-flat-corner-high

v 0.5 0.2125 -0.5 1 1 1
v 0.5 0 -0.5 1 1 1
v 0.5 0.2125 -4.995627E-13 1 1 1
v 0.5 0 -4.988408E-13 1 1 1
v -0.5 0 0.5 1 1 1
v -0.5 0.2125 0.5 1 1 1
v 7.489831E-13 5.414336E-16 0.5 1 1 1
v 7.489831E-13 0.2125 0.5 1 1 1
v -0.5 0 -0.5 1 1 1
v -0.5 0.2125 -0.5 1 1 1

vn 1 0 0
vn 0 0 1
vn -1 0 0
vn 0 -1 0
vn 0 0 -1
vn 0.7071068 0 0.7071068
vn 0 1 0

vt 0.84375 0.225
vt 0.84375 0.025

usemtl colormap

f 3/1/1 2/2/1 1/1/1
f 2/2/1 3/1/1 4/2/1
f 7/2/2 6/1/2 5/2/2
f 6/1/2 7/2/2 8/1/2
f 5/2/3 10/1/3 9/2/3
f 10/1/3 5/2/3 6/1/3
f 7/2/4 2/2/4 4/2/4
f 2/2/4 7/2/4 9/2/4
f 9/2/4 7/2/4 5/2/4
f 10/1/5 2/2/5 9/2/5
f 2/2/5 10/1/5 1/1/5
f 8/1/6 4/2/6 3/1/6
f 4/2/6 8/1/6 7/2/6
f 1/1/7 8/1/7 3/1/7
f 8/1/7 1/1/7 10/1/7
f 8/1/7 10/1/7 6/1/7

g roof-flat-corner-high




usemtl colormap

f 3/1/1 2/2/1 1/1/1
f 2/2/1 3/1/1 4/2/1
f 7/2/2 6/1/2 5/2/2
f 6/1/2 7/2/2 8/1/2
f 5/2/3 10/1/3 9/2/3
f 10/1/3 5/2/3 6/1/3
f 7/2/4 2/2/4 4/2/4
f 2/2/4 7/2/4 9/2/4
f 9/2/4 7/2/4 5/2/4
f 10/1/5 2/2/5 9/2/5
f 2/2/5 10/1/5 1/1/5
f 8/1/6 4/2/6 3/1/6
f 4/2/6 8/1/6 7/2/6
f 1/1/7 8/1/7 3/1/7
f 8/1/7 1/1/7 10/1/7
f 8/1/7 10/1/7 6/1/7

