# Created by Kenney (www.kenney.nl)

mtllib roof-flat-detail-d.mtl

g roof-flat-detail-d

v 0.5 0 0.5 1 1 1
v -0.5 0 0.5 1 1 1
v 0.5 0.10625 0.5 1 1 1
v -0.5 0.10625 0.5 1 1 1
v -0.5 0 -0.5 1 1 1
v -0.5 0.10625 -0.5 1 1 1
v 0.5 0 -0.5 1 1 1
v 0.5 0.10625 -0.5 1 1 1
v 0.5 0.2125 0.5 1 1 1
v -0.5 0.2125 0.5 1 1 1
v -0.5 0.2125 -0.5 1 1 1
v 0.5 0.2125 -0.5 1 1 1

vn 0 0 1
vn -1 0 0
vn 0 -1 0
vn 0 0 -1
vn 1 0 0
vn 0 1 0

vt 0.84375 0.025
vt 0.96875 0.125
vt 0.96875 0.025
vt 0.96875 0.225

usemtl colormap

f 3/2/1 2/1/1 1/1/1
f 2/1/1 3/2/1 4/2/1
f 2/1/2 6/2/2 5/1/2
f 6/2/2 2/1/2 4/2/2
f 2/1/3 7/1/3 1/1/3
f 7/1/3 2/1/3 5/1/3
f 6/2/4 7/1/4 5/1/4
f 7/1/4 6/2/4 8/2/4
f 3/2/5 7/1/5 8/2/5
f 7/1/5 3/2/5 1/1/5
f 1/3/4 2/3/4 3/2/4
f 4/2/4 3/2/4 2/3/4
f 3/2/4 4/2/4 9/4/4
f 10/4/4 9/4/4 4/2/4
f 5/3/5 6/2/5 2/3/5
f 4/2/5 2/3/5 6/2/5
f 6/2/5 11/4/5 4/2/5
f 10/4/5 4/2/5 11/4/5
f 1/3/6 7/3/6 2/3/6
f 5/3/6 2/3/6 7/3/6
f 4/2/3 8/2/3 3/2/3
f 8/2/3 4/2/3 6/2/3
f 3/2/6 8/2/6 4/2/6
f 6/2/6 4/2/6 8/2/6
f 4/2/2 11/4/2 6/2/2
f 11/4/2 4/2/2 10/4/2
f 5/3/1 7/3/1 6/2/1
f 8/2/1 6/2/1 7/3/1
f 8/2/1 12/4/1 6/2/1
f 11/4/1 6/2/1 12/4/1
f 12/4/6 10/4/6 9/4/6
f 10/4/6 12/4/6 11/4/6
f 9/4/3 10/4/3 12/4/3
f 11/4/3 12/4/3 10/4/3
f 9/4/5 8/2/5 12/4/5
f 8/2/5 9/4/5 3/2/5
f 12/4/2 8/2/2 9/4/2
f 3/2/2 9/4/2 8/2/2
f 8/2/2 7/3/2 3/2/2
f 1/3/2 3/2/2 7/3/2
f 9/4/1 4/2/1 3/2/1
f 4/2/1 9/4/1 10/4/1
f 6/2/4 12/4/4 8/2/4
f 12/4/4 6/2/4 11/4/4

g roof-flat-detail-d




usemtl colormap

f 3/2/1 2/1/1 1/1/1
f 2/1/1 3/2/1 4/2/1
f 2/1/2 6/2/2 5/1/2
f 6/2/2 2/1/2 4/2/2
f 2/1/3 7/1/3 1/1/3
f 7/1/3 2/1/3 5/1/3
f 6/2/4 7/1/4 5/1/4
f 7/1/4 6/2/4 8/2/4
f 3/2/5 7/1/5 8/2/5
f 7/1/5 3/2/5 1/1/5
f 1/3/4 2/3/4 3/2/4
f 4/2/4 3/2/4 2/3/4
f 3/2/4 4/2/4 9/4/4
f 10/4/4 9/4/4 4/2/4
f 5/3/5 6/2/5 2/3/5
f 4/2/5 2/3/5 6/2/5
f 6/2/5 11/4/5 4/2/5
f 10/4/5 4/2/5 11/4/5
f 1/3/6 7/3/6 2/3/6
f 5/3/6 2/3/6 7/3/6
f 4/2/3 8/2/3 3/2/3
f 8/2/3 4/2/3 6/2/3
f 3/2/6 8/2/6 4/2/6
f 6/2/6 4/2/6 8/2/6
f 4/2/2 11/4/2 6/2/2
f 11/4/2 4/2/2 10/4/2
f 5/3/1 7/3/1 6/2/1
f 8/2/1 6/2/1 7/3/1
f 8/2/1 12/4/1 6/2/1
f 11/4/1 6/2/1 12/4/1
f 12/4/6 10/4/6 9/4/6
f 10/4/6 12/4/6 11/4/6
f 9/4/3 10/4/3 12/4/3
f 11/4/3 12/4/3 10/4/3
f 9/4/5 8/2/5 12/4/5
f 8/2/5 9/4/5 3/2/5
f 12/4/2 8/2/2 9/4/2
f 3/2/2 9/4/2 8/2/2
f 8/2/2 7/3/2 3/2/2
f 1/3/2 3/2/2 7/3/2
f 9/4/1 4/2/1 3/2/1
f 4/2/1 9/4/1 10/4/1
f 6/2/4 12/4/4 8/2/4
f 12/4/4 6/2/4 11/4/4

