# Created by Kenney (www.kenney.nl)

mtllib roof-gable.mtl

g roof-gable

v -0.5 9.023893E-17 -0.5 1 1 1
v 0.5 0 -0.5 1 1 1
v -7.451074E-09 0.4270563 -0.5 1 1 1
v 0.5 9.023893E-17 0.5 1 1 1
v -0.5 9.023893E-17 0.5 1 1 1
v 7.451074E-09 0.4270563 0.5 1 1 1
v 0.5456427 0.05270964 0.5 1 1 1
v 7.451068E-09 0.51875 0.5 1 1 1
v 0.5456427 0.05270964 -0.5 1 1 1
v -7.451074E-09 0.51875 -0.5 1 1 1
v -0.5456427 0.05270964 0.5 1 1 1
v -0.5456427 0.05270964 -0.5 1 1 1

vn 0 0 -1
vn 0 0 1
vn 0 -1 0
vn 0.6494621 0.760394 0
vn -0.6494621 0.760394 0
vn -0.7559654 -0.6546116 0
vn 0.7559654 -0.6546116 0

vt 0.96875 0.025
vt 0.96875 0.225
vt 0.09375 0.04532179
vt 0.09375 0.225
vt 0.09375 0.025
vt 0.09375 0.1896482

usemtl colormap

f 3/2/1 2/1/1 1/1/1
f 6/2/2 5/1/2 4/1/2
f 5/1/3 2/1/3 4/1/3
f 2/1/3 5/1/3 1/1/3
f 9/3/4 8/4/4 7/3/4
f 8/4/4 9/3/4 10/4/4
f 7/3/2 6/6/2 4/5/2
f 6/6/2 7/3/2 8/4/2
f 11/3/2 6/6/2 8/4/2
f 6/6/2 11/3/2 5/5/2
f 10/4/5 11/3/5 8/4/5
f 11/3/5 10/4/5 12/3/5
f 5/5/6 12/3/6 1/5/6
f 12/3/6 5/5/6 11/3/6
f 12/3/1 3/6/1 1/5/1
f 3/6/1 12/3/1 10/4/1
f 9/3/1 3/6/1 10/4/1
f 3/6/1 9/3/1 2/5/1
f 7/3/7 2/5/7 9/3/7
f 2/5/7 7/3/7 4/5/7

g roof-gable




usemtl colormap

f 3/2/1 2/1/1 1/1/1
f 6/2/2 5/1/2 4/1/2
f 5/1/3 2/1/3 4/1/3
f 2/1/3 5/1/3 1/1/3
f 9/3/4 8/4/4 7/3/4
f 8/4/4 9/3/4 10/4/4
f 7/3/2 6/6/2 4/5/2
f 6/6/2 7/3/2 8/4/2
f 11/3/2 6/6/2 8/4/2
f 6/6/2 11/3/2 5/5/2
f 10/4/5 11/3/5 8/4/5
f 11/3/5 10/4/5 12/3/5
f 5/5/6 12/3/6 1/5/6
f 12/3/6 5/5/6 11/3/6
f 12/3/1 3/6/1 1/5/1
f 3/6/1 12/3/1 10/4/1
f 9/3/1 3/6/1 10/4/1
f 3/6/1 9/3/1 2/5/1
f 7/3/7 2/5/7 9/3/7
f 2/5/7 7/3/7 4/5/7

