# Created by Kenney (www.kenney.nl)

mtllib roof-flat-border-straight.mtl

g roof-flat-border-straight

v -0.5 0 -0.5 1 1 1
v -0.5 0.2125 -0.5 1 1 1
v -0.5 0 0.5 1 1 1
v -0.5 0.2125 0.5 1 1 1
v 0.375 0.2125 0.5 1 1 1
v 0.5 0.2125 0.5 1 1 1
v 0.375 0.10625 0.5 1 1 1
v 0.5 0 0.5 1 1 1
v -0.375 0.10625 0.5 1 1 1
v -0.375 0.2125 0.5 1 1 1
v 0.5 0.2125 -0.5 1 1 1
v 0.5 0 -0.5 1 1 1
v 0.375 0.10625 -0.5 1 1 1
v 0.375 0.2125 -0.5 1 1 1
v -0.375 0.2125 -0.5 1 1 1
v -0.375 0.10625 -0.5 1 1 1

vn -1 0 0
vn 0 0 1
vn 1 0 0
vn 0 1 0
vn 0 -1 0
vn 0 0 -1

vt 0.96875 0.025
vt 0.96875 0.225
vt 0.96875 0.125
vt 0.84375 0.125

usemtl colormap

f 3/1/1 2/2/1 1/1/1
f 2/2/1 3/1/1 4/2/1
f 7/3/2 6/2/2 5/2/2
f 7/3/2 8/1/2 6/2/2
f 8/1/2 7/3/2 3/1/2
f 9/3/2 3/1/2 7/3/2
f 3/1/2 9/3/2 4/2/2
f 4/2/2 9/3/2 10/2/2
f 6/2/3 12/1/3 11/2/3
f 12/1/3 6/2/3 8/1/3
f 7/3/1 14/2/1 13/3/1
f 14/2/1 7/3/1 5/2/1
f 15/2/4 4/2/4 10/2/4
f 4/2/4 15/2/4 2/2/4
f 3/1/5 12/1/5 8/1/5
f 12/1/5 3/1/5 1/1/5
f 16/3/6 2/2/6 15/2/6
f 16/3/6 1/1/6 2/2/6
f 1/1/6 16/3/6 12/1/6
f 13/3/6 12/1/6 16/3/6
f 12/1/6 13/3/6 11/2/6
f 11/2/6 13/3/6 14/2/6
f 10/2/3 16/3/3 15/2/3
f 16/3/3 10/2/3 9/3/3
f 11/2/4 5/2/4 6/2/4
f 5/2/4 11/2/4 14/2/4
f 13/4/4 9/4/4 7/4/4
f 9/4/4 13/4/4 16/4/4

g roof-flat-border-straight




usemtl colormap

f 3/1/1 2/2/1 1/1/1
f 2/2/1 3/1/1 4/2/1
f 7/3/2 6/2/2 5/2/2
f 7/3/2 8/1/2 6/2/2
f 8/1/2 7/3/2 3/1/2
f 9/3/2 3/1/2 7/3/2
f 3/1/2 9/3/2 4/2/2
f 4/2/2 9/3/2 10/2/2
f 6/2/3 12/1/3 11/2/3
f 12/1/3 6/2/3 8/1/3
f 7/3/1 14/2/1 13/3/1
f 14/2/1 7/3/1 5/2/1
f 15/2/4 4/2/4 10/2/4
f 4/2/4 15/2/4 2/2/4
f 3/1/5 12/1/5 8/1/5
f 12/1/5 3/1/5 1/1/5
f 16/3/6 2/2/6 15/2/6
f 16/3/6 1/1/6 2/2/6
f 1/1/6 16/3/6 12/1/6
f 13/3/6 12/1/6 16/3/6
f 12/1/6 13/3/6 11/2/6
f 11/2/6 13/3/6 14/2/6
f 10/2/3 16/3/3 15/2/3
f 16/3/3 10/2/3 9/3/3
f 11/2/4 5/2/4 6/2/4
f 5/2/4 11/2/4 14/2/4
f 13/4/4 9/4/4 7/4/4
f 9/4/4 13/4/4 16/4/4

