# Created by Kenney (www.kenney.nl)

mtllib roof-flat-awning-b.mtl

g roof-flat-awning-b

v 0.5000001 1.461871E-12 0.7250001 1 1 1
v 0.5000001 2.923741E-12 0.5000001 1 1 1
v -0.5000001 0 0.725 1 1 1
v -0.5000001 2.923832E-12 0.4999999 1 1 1
v 0.5000001 0.159375 0.66875 1 1 1
v 0.5000001 0.2125 0.5000001 1 1 1
v -0.5000001 0.159375 0.6687499 1 1 1
v -0.5000001 0.2125 0.4999999 1 1 1
v -0.5000001 2.923831E-12 0.5 1 1 1
v 0.5 2.923741E-12 0.5000001 1 1 1
v -0.5 2.923741E-12 -0.5000001 1 1 1
v 0.5000001 2.923741E-12 -0.5 1 1 1
v -0.5 0.2125 -0.5000001 1 1 1
v -0.5000001 0.2125 0.5 1 1 1
v 0.5000001 0.2125 -0.5 1 1 1
v 0.5 0.2125 0.5000001 1 1 1

vn 0 -1 0
vn 1 0 1.192093E-07
vn -1.124132E-07 0.3328201 0.9429904
vn -8.283572E-08 0.7191291 0.6948764
vn -3.579687E-08 0.9538493 0.3002859
vn -1 0 -1.192093E-07
vn 1.192093E-07 0 -1
vn 0 1 0

vt 0.09375 0.275
vt 0.09375 0.425
vt 0.09375 0.475
vt 0.84375 0.025
vt 0.84375 0.225

usemtl colormap

f 3/1/1 2/1/1 1/1/1
f 2/1/1 3/1/1 4/1/1
f 2/1/2 5/2/2 1/1/2
f 5/2/2 2/1/2 6/3/2
f 5/2/4 3/1/3 1/1/3
f 3/1/3 5/2/4 7/2/4
f 6/3/5 7/2/4 5/2/4
f 7/2/4 6/3/5 8/3/5
f 7/2/6 4/1/6 3/1/6
f 4/1/6 7/2/6 8/3/6
f 11/4/1 10/4/1 9/4/1
f 10/4/1 11/4/1 12/4/1
f 9/4/6 13/5/6 11/4/6
f 13/5/6 9/4/6 14/5/6
f 11/4/7 15/5/7 12/4/7
f 15/5/7 11/4/7 13/5/7
f 15/5/2 10/4/2 12/4/2
f 10/4/2 15/5/2 16/5/2
f 16/5/8 13/5/8 14/5/8
f 13/5/8 16/5/8 15/5/8

g roof-flat-awning-b




usemtl colormap

f 3/1/1 2/1/1 1/1/1
f 2/1/1 3/1/1 4/1/1
f 2/1/2 5/2/2 1/1/2
f 5/2/2 2/1/2 6/3/2
f 5/2/4 3/1/3 1/1/3
f 3/1/3 5/2/4 7/2/4
f 6/3/5 7/2/4 5/2/4
f 7/2/4 6/3/5 8/3/5
f 7/2/6 4/1/6 3/1/6
f 4/1/6 7/2/6 8/3/6
f 11/4/1 10/4/1 9/4/1
f 10/4/1 11/4/1 12/4/1
f 9/4/6 13/5/6 11/4/6
f 13/5/6 9/4/6 14/5/6
f 11/4/7 15/5/7 12/4/7
f 15/5/7 11/4/7 13/5/7
f 15/5/2 10/4/2 12/4/2
f 10/4/2 15/5/2 16/5/2
f 16/5/8 13/5/8 14/5/8
f 13/5/8 16/5/8 15/5/8

