# Created by Kenney (www.kenney.nl)

mtllib roof-flat-awning-c.mtl

g roof-flat-awning-c

v 0.5 6.316725E-16 0.725 1 1 1
v 0.5000001 1.804779E-16 0.5 1 1 1
v 0.3 1.804779E-16 0.725 1 1 1
v 0.3 0 0.5 1 1 1
v 0.5000001 0.2125 0.5 1 1 1
v 0.5 0.1502602 0.659099 1 1 1
v 0.3 0.1502602 0.659099 1 1 1
v 0.3 0.2125 0.5 1 1 1
v -0.5000001 1.173106E-15 0.725 1 1 1
v -0.3 7.219114E-16 0.725 1 1 1
v -0.5 7.219114E-16 0.5 1 1 1
v -0.3 5.414336E-16 0.5 1 1 1
v -0.5 0.1502602 0.659099 1 1 1
v -0.5 0.2125 0.5 1 1 1
v -0.3 0.1502602 0.659099 1 1 1
v -0.3 0.2125 0.5 1 1 1
v -0.1 3.609557E-16 0.725 1 1 1
v 0.1 3.609557E-16 0.725 1 1 1
v -0.1 1.804779E-16 0.5 1 1 1
v 0.1 1.804779E-16 0.5 1 1 1
v -0.1 0.1502602 0.659099 1 1 1
v -0.1 0.2125 0.5 1 1 1
v 0.1 0.1502602 0.659099 1 1 1
v 0.1 0.2125 0.5 1 1 1
v 0.09999997 1.804779E-16 0.725 1 1 1
v 0.3 1.804779E-16 0.725 1 1 1
v 0.1 0 0.5 1 1 1
v 0.3 0 0.5 1 1 1
v 0.09999998 0.1502602 0.659099 1 1 1
v 0.1 0.2125 0.5 1 1 1
v 0.3 0.1502602 0.659099 1 1 1
v 0.3 0.2125 0.5 1 1 1
v -0.3 5.414336E-16 0.725 1 1 1
v -0.1 5.414336E-16 0.725 1 1 1
v -0.3 3.609557E-16 0.5 1 1 1
v -0.09999997 3.609557E-16 0.5 1 1 1
v -0.3 0.2125 0.5 1 1 1
v -0.09999999 0.1502602 0.659099 1 1 1
v -0.09999997 0.2125 0.5 1 1 1
v 0.5 0.2125 0.5000001 1 1 1
v 0.3 0.2125 0.5000001 1 1 1
v 0.5000001 0.2125 -0.5 1 1 1
v 0.09999996 0.2125 0.5000001 1 1 1
v -0.1000001 0.2125 0.5000001 1 1 1
v -0.3000001 0.2125 0.5 1 1 1
v -0.5 0.2125 -0.5000001 1 1 1
v -0.5000001 0.2125 0.5 1 1 1
v -0.5 1.804779E-16 -0.5000001 1 1 1
v -0.5000001 2.707168E-16 0.5 1 1 1
v 0.5000001 1.804779E-16 -0.5 1 1 1
v 0.5 1.804779E-16 0.5000001 1 1 1
v -0.3000001 0 0.5 1 1 1
v -0.1000001 0 0.5000001 1 1 1
v 0.09999996 0 0.5000001 1 1 1
v 0.3 0 0.5000001 1 1 1

vn 0 -1 0
vn 1 0 1.192093E-07
vn -8.257314E-08 0.721251 0.6926738
vn -4.342991E-08 0.9312752 0.3643165
vn -1.091712E-07 0.4016481 0.9157942
vn -1 0 -1.192093E-07
vn 0 1 0
vn 1.192093E-07 0 -1

vt 0.59375 0.025
vt 0.59375 0.225
vt 0.59375 0.1664214
vt 0.09375 0.475
vt 0.09375 0.275
vt 0.09375 0.4164214
vt 0.84375 0.225
vt 0.84375 0.025

usemtl colormap

f 3/1/1 2/1/1 1/1/1
f 2/1/1 3/1/1 4/1/1
f 5/2/2 1/1/2 2/1/2
f 1/1/2 5/2/2 6/3/2
f 5/2/4 7/3/3 6/3/3
f 7/3/3 5/2/4 8/2/4
f 6/3/3 3/1/5 1/1/5
f 3/1/5 6/3/3 7/3/3
f 11/1/1 10/1/1 9/1/1
f 10/1/1 11/1/1 12/1/1
f 15/3/3 14/2/4 13/3/3
f 14/2/4 15/3/3 16/2/4
f 9/1/6 14/2/6 11/1/6
f 14/2/6 9/1/6 13/3/6
f 13/3/3 10/1/5 15/3/3
f 10/1/5 13/3/3 9/1/5
f 19/1/1 18/1/1 17/1/1
f 18/1/1 19/1/1 20/1/1
f 23/3/3 22/2/4 21/3/3
f 22/2/4 23/3/3 24/2/4
f 23/3/3 17/1/5 18/1/5
f 17/1/5 23/3/3 21/3/3
f 2/5/6 1/5/6 5/4/6
f 6/6/6 5/4/6 1/5/6
f 27/5/1 26/5/1 25/5/1
f 26/5/1 27/5/1 28/5/1
f 31/6/3 30/4/4 29/6/3
f 30/4/4 31/6/3 32/4/4
f 31/6/3 25/5/5 26/5/5
f 25/5/5 31/6/3 29/6/3
f 11/5/2 14/4/2 9/5/2
f 13/6/2 9/5/2 14/4/2
f 35/5/1 34/5/1 33/5/1
f 34/5/1 35/5/1 36/5/1
f 38/6/3 37/4/4 15/6/3
f 37/4/4 38/6/3 39/4/4
f 38/6/3 33/5/5 34/5/5
f 33/5/5 38/6/3 15/6/3
f 42/7/7 41/7/7 40/7/7
f 41/7/7 42/7/7 43/7/7
f 43/7/7 42/7/7 44/7/7
f 44/7/7 42/7/7 45/7/7
f 46/7/7 45/7/7 42/7/7
f 45/7/7 46/7/7 47/7/7
f 49/8/6 46/7/6 48/8/6
f 46/7/6 49/8/6 47/7/6
f 48/8/8 42/7/8 50/8/8
f 42/7/8 48/8/8 46/7/8
f 42/7/2 51/8/2 50/8/2
f 51/8/2 42/7/2 40/7/2
f 48/8/1 52/8/1 49/8/1
f 52/8/1 48/8/1 53/8/1
f 53/8/1 48/8/1 54/8/1
f 54/8/1 48/8/1 55/8/1
f 50/8/1 55/8/1 48/8/1
f 55/8/1 50/8/1 51/8/1

g roof-flat-awning-c




usemtl colormap

f 3/1/1 2/1/1 1/1/1
f 2/1/1 3/1/1 4/1/1
f 5/2/2 1/1/2 2/1/2
f 1/1/2 5/2/2 6/3/2
f 5/2/4 7/3/3 6/3/3
f 7/3/3 5/2/4 8/2/4
f 6/3/3 3/1/5 1/1/5
f 3/1/5 6/3/3 7/3/3
f 11/1/1 10/1/1 9/1/1
f 10/1/1 11/1/1 12/1/1
f 15/3/3 14/2/4 13/3/3
f 14/2/4 15/3/3 16/2/4
f 9/1/6 14/2/6 11/1/6
f 14/2/6 9/1/6 13/3/6
f 13/3/3 10/1/5 15/3/3
f 10/1/5 13/3/3 9/1/5
f 19/1/1 18/1/1 17/1/1
f 18/1/1 19/1/1 20/1/1
f 23/3/3 22/2/4 21/3/3
f 22/2/4 23/3/3 24/2/4
f 23/3/3 17/1/5 18/1/5
f 17/1/5 23/3/3 21/3/3
f 2/5/6 1/5/6 5/4/6
f 6/6/6 5/4/6 1/5/6
f 27/5/1 26/5/1 25/5/1
f 26/5/1 27/5/1 28/5/1
f 31/6/3 30/4/4 29/6/3
f 30/4/4 31/6/3 32/4/4
f 31/6/3 25/5/5 26/5/5
f 25/5/5 31/6/3 29/6/3
f 11/5/2 14/4/2 9/5/2
f 13/6/2 9/5/2 14/4/2
f 35/5/1 34/5/1 33/5/1
f 34/5/1 35/5/1 36/5/1
f 38/6/3 37/4/4 15/6/3
f 37/4/4 38/6/3 39/4/4
f 38/6/3 33/5/5 34/5/5
f 33/5/5 38/6/3 15/6/3
f 42/7/7 41/7/7 40/7/7
f 41/7/7 42/7/7 43/7/7
f 43/7/7 42/7/7 44/7/7
f 44/7/7 42/7/7 45/7/7
f 46/7/7 45/7/7 42/7/7
f 45/7/7 46/7/7 47/7/7
f 49/8/6 46/7/6 48/8/6
f 46/7/6 49/8/6 47/7/6
f 48/8/8 42/7/8 50/8/8
f 42/7/8 48/8/8 46/7/8
f 42/7/2 51/8/2 50/8/2
f 51/8/2 42/7/2 40/7/2
f 48/8/1 52/8/1 49/8/1
f 52/8/1 48/8/1 53/8/1
f 53/8/1 48/8/1 54/8/1
f 54/8/1 48/8/1 55/8/1
f 50/8/1 55/8/1 48/8/1
f 55/8/1 50/8/1 51/8/1

