# Created by Kenney (www.kenney.nl)

mtllib roof-slanted-corner-b.mtl

g roof-slanted-corner-b

v -0.3686831 0.725 -0.3686831 1 1 1
v 0.6391766 0.02509742 -0.3686832 1 1 1
v -0.3686831 0.02509741 0.6391766 1 1 1
v 0.582137 -0.05703958 -0.5 1 1 1
v 0.5 0 -0.5 1 1 1
v -0.5 -0.05703958 0.582137 1 1 1
v -0.5 0 0.5 1 1 1
v -0.5 0.725 -0.3686831 1 1 1
v -0.5 0.02509741 0.6391766 1 1 1
v -0.3686831 0.725 -0.5 1 1 1
v -0.5 0.725 -0.5 1 1 1
v 0.6391766 0.02509741 -0.5 1 1 1
v 0.582137 -0.05703958 -0.3686832 1 1 1
v -0.3686831 -0.05703958 0.582137 1 1 1
v -0.5 0 -0.5 1 1 1

vn 0.2760814 0.9206291 0.2760814
vn 0.5596825 0.8059428 0.1929036
vn 0.1929036 0.8059427 0.5596825
vn -0.4954625 -0.713466 -0.4954625
vn 0 0.9542981 0.2988562
vn 0 0.8213699 0.5703959
vn 0.2988562 0.9542981 0
vn 0 1 0
vn 0.8213699 -0.5703959 0
vn 0.7872244 -0.5466837 0.2853327
vn 0.7610638 -0.5285166 0.3761013
vn 0.2853328 -0.5466837 0.7872244
vn 0.3761014 -0.5285165 0.7610637
vn 0.5703959 0.8213699 0
vn 0 -0.5703959 0.8213699
vn 0 -1 0
vn -1 0 0
vn 0 0 -1

vt 0.09375 0.225
vt 0.09375 0.03192342
vt 0.09375 0.025
vt 0.96875 0.025
vt 0.96875 0.225
vt 0.96875 0.03192342

usemtl colormap

f 3/2/3 2/2/2 1/1/1
f 6/3/4 5/3/4 4/3/4
f 5/3/4 6/3/4 7/3/4
f 8/1/5 3/2/3 1/1/1
f 3/2/3 8/1/5 9/2/6
f 11/1/8 1/1/1 10/1/7
f 1/1/1 11/1/8 8/1/5
f 2/2/10 4/3/9 12/2/9
f 4/3/9 2/2/10 13/3/11
f 3/2/12 13/3/11 2/2/10
f 13/3/11 3/2/12 14/3/13
f 12/2/14 1/1/1 2/2/2
f 1/1/1 12/2/14 10/1/7
f 3/2/12 6/3/15 14/3/13
f 6/3/15 3/2/12 9/2/15
f 14/3/16 4/3/16 13/3/16
f 4/3/16 14/3/16 6/3/16
f 15/4/16 5/4/16 7/4/16
f 7/4/17 11/5/17 15/4/17
f 11/5/17 7/4/17 8/5/17
f 8/5/17 7/4/17 9/6/17
f 9/6/17 7/4/17 6/4/17
f 11/5/18 5/4/18 15/4/18
f 5/4/18 11/5/18 12/6/18
f 12/6/18 11/5/18 10/5/18
f 12/6/18 4/4/18 5/4/18

g roof-slanted-corner-b




usemtl colormap

f 3/2/3 2/2/2 1/1/1
f 6/3/4 5/3/4 4/3/4
f 5/3/4 6/3/4 7/3/4
f 8/1/5 3/2/3 1/1/1
f 3/2/3 8/1/5 9/2/6
f 11/1/8 1/1/1 10/1/7
f 1/1/1 11/1/8 8/1/5
f 2/2/10 4/3/9 12/2/9
f 4/3/9 2/2/10 13/3/11
f 3/2/12 13/3/11 2/2/10
f 13/3/11 3/2/12 14/3/13
f 12/2/14 1/1/1 2/2/2
f 1/1/1 12/2/14 10/1/7
f 3/2/12 6/3/15 14/3/13
f 6/3/15 3/2/12 9/2/15
f 14/3/16 4/3/16 13/3/16
f 4/3/16 14/3/16 6/3/16
f 15/4/16 5/4/16 7/4/16
f 7/4/17 11/5/17 15/4/17
f 11/5/17 7/4/17 8/5/17
f 8/5/17 7/4/17 9/6/17
f 9/6/17 7/4/17 6/4/17
f 11/5/18 5/4/18 15/4/18
f 5/4/18 11/5/18 12/6/18
f 12/6/18 11/5/18 10/5/18
f 12/6/18 4/4/18 5/4/18

