# Created by Kenney (www.kenney.nl)

mtllib roof-slanted-corner-c.mtl

g roof-slanted-corner-c

v -0.5 -0.05703958 0.582137 1 1 1
v -0.5 0.02509741 0.6391766 1 1 1
v 0.582137 -0.05703958 0.582137 1 1 1
v 0.6391766 0.02509741 0.6391766 1 1 1
v 0.5 0 0.5 1 1 1
v -0.5 0 0.5 1 1 1
v -0.3686831 0.725 -0.3686831 1 1 1
v 0.6391766 0.02509741 -0.5 1 1 1
v -0.3686831 0.725 -0.5 1 1 1
v 0.582137 -0.05703958 -0.5 1 1 1
v 0.5 0 -0.5 1 1 1
v -0.5 0.725 -0.3686831 1 1 1
v -0.5 0.725 -0.5 1 1 1
v -0.5 0 -0.5 1 1 1

vn 0 -0.5703959 0.8213699
vn 0.5044967 -0.7006897 0.5044967
vn 0 -0.8213699 -0.5703959
vn 0.3116733 0.8976188 0.3116733
vn 0.2306031 0.9453278 0.2306031
vn 0.5703959 0.8213699 0
vn 0.2988562 0.9542981 0
vn -0.5703957 -0.8213699 0
vn 0 0.8213699 0.5703959
vn 0 0.9542981 0.2988562
vn 0.8213699 -0.5703959 0
vn 0 1 0
vn -1 0 0
vn 0 0 -1
vn 0 -1 0

vt 0.09375 0.025
vt 0.09375 0.03192342
vt 0.09375 0.225
vt 0.96875 0.025
vt 0.96875 0.225
vt 0.96875 0.03192342

usemtl colormap

f 3/1/2 2/2/1 1/1/1
f 2/2/1 3/1/2 4/2/2
f 1/1/3 5/1/3 3/1/3
f 5/1/3 1/1/3 6/1/3
f 8/2/6 7/3/5 4/2/4
f 7/3/5 8/2/6 9/3/7
f 5/1/8 10/1/8 3/1/8
f 10/1/8 5/1/8 11/1/8
f 7/3/5 2/2/9 4/2/4
f 2/2/9 7/3/5 12/3/10
f 4/2/2 10/1/11 8/2/11
f 10/1/11 4/2/2 3/1/2
f 13/3/12 7/3/5 9/3/7
f 7/3/5 13/3/12 12/3/10
f 6/4/13 13/5/13 14/4/13
f 13/5/13 6/4/13 12/5/13
f 12/5/13 6/4/13 2/6/13
f 2/6/13 6/4/13 1/4/13
f 13/5/14 11/4/14 14/4/14
f 11/4/14 13/5/14 8/6/14
f 8/6/14 13/5/14 9/5/14
f 8/6/14 10/4/14 11/4/14
f 5/4/15 14/4/15 11/4/15
f 14/4/15 5/4/15 6/4/15

g roof-slanted-corner-c




usemtl colormap

f 3/1/2 2/2/1 1/1/1
f 2/2/1 3/1/2 4/2/2
f 1/1/3 5/1/3 3/1/3
f 5/1/3 1/1/3 6/1/3
f 8/2/6 7/3/5 4/2/4
f 7/3/5 8/2/6 9/3/7
f 5/1/8 10/1/8 3/1/8
f 10/1/8 5/1/8 11/1/8
f 7/3/5 2/2/9 4/2/4
f 2/2/9 7/3/5 12/3/10
f 4/2/2 10/1/11 8/2/11
f 10/1/11 4/2/2 3/1/2
f 13/3/12 7/3/5 9/3/7
f 7/3/5 13/3/12 12/3/10
f 6/4/13 13/5/13 14/4/13
f 13/5/13 6/4/13 12/5/13
f 12/5/13 6/4/13 2/6/13
f 2/6/13 6/4/13 1/4/13
f 13/5/14 11/4/14 14/4/14
f 11/4/14 13/5/14 8/6/14
f 8/6/14 13/5/14 9/5/14
f 8/6/14 10/4/14 11/4/14
f 5/4/15 14/4/15 11/4/15
f 14/4/15 5/4/15 6/4/15

