# Created by Kenney (www.kenney.nl)

mtllib roof-flat-border-end.mtl

g roof-flat-border-end

v -0.5 0 -0.5 1 1 1
v -0.5 0.2125 -0.5 1 1 1
v -0.5 0 0.5 1 1 1
v -0.5 0.2125 0.5 1 1 1
v -0.375 0.10625 0.375 1 1 1
v 0.375 0.10625 0.375 1 1 1
v -0.375 0.2125 0.375 1 1 1
v 0.375 0.2125 0.375 1 1 1
v 0.5 0 0.5 1 1 1
v 0.5 0 -0.5 1 1 1
v -0.375 0.2125 -0.5 1 1 1
v -0.375 0.10625 -0.5 1 1 1
v 0.375 0.10625 -0.5 1 1 1
v 0.5 0.2125 -0.5 1 1 1
v 0.375 0.2125 -0.5 1 1 1
v 0.5 0.2125 0.5 1 1 1

vn -1 0 0
vn 0 0 -1
vn 0 -1 0
vn 1 0 0
vn 0 0 1
vn 0 1 0

vt 0.96875 0.025
vt 0.96875 0.225
vt 0.96875 0.125
vt 0.84375 0.125

usemtl colormap

f 3/1/1 2/2/1 1/1/1
f 2/2/1 3/1/1 4/2/1
f 7/2/2 6/3/2 5/3/2
f 6/3/2 7/2/2 8/2/2
f 3/1/3 10/1/3 9/1/3
f 10/1/3 3/1/3 1/1/3
f 7/2/4 12/3/4 11/2/4
f 12/3/4 7/2/4 5/3/4
f 12/3/2 2/2/2 11/2/2
f 12/3/2 1/1/2 2/2/2
f 1/1/2 12/3/2 10/1/2
f 13/3/2 10/1/2 12/3/2
f 10/1/2 13/3/2 14/2/2
f 14/2/2 13/3/2 15/2/2
f 16/2/5 3/1/5 9/1/5
f 3/1/5 16/2/5 4/2/5
f 15/2/6 8/2/6 14/2/6
f 8/2/6 16/2/6 14/2/6
f 16/2/6 8/2/6 4/2/6
f 4/2/6 8/2/6 7/2/6
f 4/2/6 7/2/6 11/2/6
f 4/2/6 11/2/6 2/2/6
f 6/3/1 15/2/1 13/3/1
f 15/2/1 6/3/1 8/2/1
f 16/2/4 10/1/4 14/2/4
f 10/1/4 16/2/4 9/1/4
f 13/4/6 5/4/6 6/4/6
f 5/4/6 13/4/6 12/4/6

g roof-flat-border-end




usemtl colormap

f 3/1/1 2/2/1 1/1/1
f 2/2/1 3/1/1 4/2/1
f 7/2/2 6/3/2 5/3/2
f 6/3/2 7/2/2 8/2/2
f 3/1/3 10/1/3 9/1/3
f 10/1/3 3/1/3 1/1/3
f 7/2/4 12/3/4 11/2/4
f 12/3/4 7/2/4 5/3/4
f 12/3/2 2/2/2 11/2/2
f 12/3/2 1/1/2 2/2/2
f 1/1/2 12/3/2 10/1/2
f 13/3/2 10/1/2 12/3/2
f 10/1/2 13/3/2 14/2/2
f 14/2/2 13/3/2 15/2/2
f 16/2/5 3/1/5 9/1/5
f 3/1/5 16/2/5 4/2/5
f 15/2/6 8/2/6 14/2/6
f 8/2/6 16/2/6 14/2/6
f 16/2/6 8/2/6 4/2/6
f 4/2/6 8/2/6 7/2/6
f 4/2/6 7/2/6 11/2/6
f 4/2/6 11/2/6 2/2/6
f 6/3/1 15/2/1 13/3/1
f 15/2/1 6/3/1 8/2/1
f 16/2/4 10/1/4 14/2/4
f 10/1/4 16/2/4 9/1/4
f 13/4/6 5/4/6 6/4/6
f 5/4/6 13/4/6 12/4/6

