# Created by Kenney (www.kenney.nl)

mtllib roof-slanted-corner-inner.mtl

g roof-slanted-corner-inner

v 0.5 0 0.5 1 1 1
v 0.5 0 -0.5 1 1 1
v -0.5 0 0.5 1 1 1
v -0.5 0 -0.5 1 1 1
v 0.5 0.1217478 0.5 1 1 1
v -0.5 0.725 0.5 1 1 1
v -0.3686831 0.725 0.5 1 1 1
v 0.5 0.725 -0.5 1 1 1
v 0.5 0.725 -0.3686831 1 1 1
v -0.5 0.725 -0.5 1 1 1
v -0.3686831 0.725 -0.3686831 1 1 1

vn 0 -1 0
vn 0 0 1
vn 1 0 0
vn -1 0 0
vn 0 0 -1
vn 0 0.9542981 0.2988562
vn 0 0.8213699 0.5703959
vn 0.08119475 0.9933855 0.08119475
vn 0.5703959 0.8213699 0
vn 0.2988562 0.9542981 0
vn 0 1 0

vt 0.96875 0.025
vt 0.96875 0.0585856
vt 0.96875 0.225
vt 0.09375 0.225
vt 0.09375 0.0585856

usemtl colormap

f 3/1/1 2/1/1 1/1/1
f 2/1/1 3/1/1 4/1/1
f 5/2/2 3/1/2 1/1/2
f 3/1/2 5/2/2 6/3/2
f 6/3/2 5/2/2 7/3/2
f 9/3/3 2/1/3 8/3/3
f 2/1/3 9/3/3 1/1/3
f 1/1/3 9/3/3 5/2/3
f 3/1/4 10/3/4 4/1/4
f 10/3/4 3/1/4 6/3/4
f 10/3/5 2/1/5 4/1/5
f 2/1/5 10/3/5 8/3/5
f 11/4/8 5/5/7 9/4/6
f 7/4/10 5/5/9 11/4/8
f 10/4/11 9/4/6 8/4/11
f 9/4/6 10/4/11 11/4/8
f 11/4/8 10/4/11 7/4/10
f 7/4/10 10/4/11 6/4/11

g roof-slanted-corner-inner




usemtl colormap

f 3/1/1 2/1/1 1/1/1
f 2/1/1 3/1/1 4/1/1
f 5/2/2 3/1/2 1/1/2
f 3/1/2 5/2/2 6/3/2
f 6/3/2 5/2/2 7/3/2
f 9/3/3 2/1/3 8/3/3
f 2/1/3 9/3/3 1/1/3
f 1/1/3 9/3/3 5/2/3
f 3/1/4 10/3/4 4/1/4
f 10/3/4 3/1/4 6/3/4
f 10/3/5 2/1/5 4/1/5
f 2/1/5 10/3/5 8/3/5
f 11/4/8 5/5/7 9/4/6
f 7/4/10 5/5/9 11/4/8
f 10/4/11 9/4/6 8/4/11
f 9/4/6 10/4/11 11/4/8
f 11/4/8 10/4/11 7/4/10
f 7/4/10 10/4/11 6/4/11

