# Created by Kenney (www.kenney.nl)

mtllib roof-flat-border-corner.mtl

g roof-flat-border-corner

v 0.5 0 0.5 1 1 1
v -0.5 0 0.5 1 1 1
v 0.5 0.2125 0.5 1 1 1
v -0.5 0.2125 0.5 1 1 1
v 0.375 0.10625 0.375 1 1 1
v 0.375 0.2125 0.375 1 1 1
v -0.5 0.10625 0.375 1 1 1
v -0.5 0.2125 0.375 1 1 1
v 0.5 0 -0.5 1 1 1
v -0.5 0 -0.5 1 1 1
v -0.5 0.10625 -0.5 1 1 1
v 0.375 0.10625 -0.5 1 1 1
v 0.5 0.2125 -0.5 1 1 1
v 0.375 0.2125 -0.5 1 1 1

vn 0 0 1
vn 0 0 -1
vn 0 -1 0
vn 1 0 0
vn 0 1 0
vn -1 0 0

vt 0.96875 0.025
vt 0.96875 0.225
vt 0.96875 0.125
vt 0.84375 0.125

usemtl colormap

f 3/2/1 2/1/1 1/1/1
f 2/1/1 3/2/1 4/2/1
f 7/3/2 6/2/2 5/3/2
f 6/2/2 7/3/2 8/2/2
f 2/1/3 9/1/3 1/1/3
f 9/1/3 2/1/3 10/1/3
f 11/3/2 9/1/2 10/1/2
f 9/1/2 11/3/2 12/3/2
f 9/1/2 12/3/2 13/2/2
f 13/2/2 12/3/2 14/2/2
f 3/2/4 9/1/4 13/2/4
f 9/1/4 3/2/4 1/1/4
f 14/2/5 6/2/5 13/2/5
f 6/2/5 3/2/5 13/2/5
f 3/2/5 6/2/5 4/2/5
f 4/2/5 6/2/5 8/2/5
f 5/3/6 14/2/6 12/3/6
f 14/2/6 5/3/6 6/2/6
f 2/1/6 11/3/6 10/1/6
f 11/3/6 2/1/6 7/3/6
f 7/3/6 2/1/6 8/2/6
f 8/2/6 2/1/6 4/2/6
f 12/4/5 7/4/5 5/4/5
f 7/4/5 12/4/5 11/4/5

g roof-flat-border-corner




usemtl colormap

f 3/2/1 2/1/1 1/1/1
f 2/1/1 3/2/1 4/2/1
f 7/3/2 6/2/2 5/3/2
f 6/2/2 7/3/2 8/2/2
f 2/1/3 9/1/3 1/1/3
f 9/1/3 2/1/3 10/1/3
f 11/3/2 9/1/2 10/1/2
f 9/1/2 11/3/2 12/3/2
f 9/1/2 12/3/2 13/2/2
f 13/2/2 12/3/2 14/2/2
f 3/2/4 9/1/4 13/2/4
f 9/1/4 3/2/4 1/1/4
f 14/2/5 6/2/5 13/2/5
f 6/2/5 3/2/5 13/2/5
f 3/2/5 6/2/5 4/2/5
f 4/2/5 6/2/5 8/2/5
f 5/3/6 14/2/6 12/3/6
f 14/2/6 5/3/6 6/2/6
f 2/1/6 11/3/6 10/1/6
f 11/3/6 2/1/6 7/3/6
f 7/3/6 2/1/6 8/2/6
f 8/2/6 2/1/6 4/2/6
f 12/4/5 7/4/5 5/4/5
f 7/4/5 12/4/5 11/4/5

