# Created by Kenney (www.kenney.nl)

mtllib roof-flat-corner.mtl

g roof-flat-corner

v 0.5 0.10625 -4.992018E-13 1 1 1
v 0.5 0 -4.992018E-13 1 1 1
v 7.471783E-13 0.10625 0.5 1 1 1
v 7.471783E-13 4.511946E-17 0.5 1 1 1
v -0.5 0 -0.5 1 1 1
v 0.5 0 -0.5 1 1 1
v -0.5 0.10625 -0.5 1 1 1
v 0.5 0.10625 -0.5 1 1 1
v -0.5 0 0.5 1 1 1
v -0.5 0.10625 0.5 1 1 1

vn 0.7071068 0 0.7071068
vn 0 0 -1
vn -1 0 0
vn 0 -1 0
vn 1 0 0
vn 0 0 1
vn 0 1 0

vt 0.96875 0.225
vt 0.96875 0.025
vt 0.84375 0.225

usemtl colormap

f 3/1/1 2/2/1 1/1/1
f 2/2/1 3/1/1 4/2/1
f 7/1/2 6/2/2 5/2/2
f 6/2/2 7/1/2 8/1/2
f 9/2/3 7/1/3 5/2/3
f 7/1/3 9/2/3 10/1/3
f 4/2/4 6/2/4 2/2/4
f 6/2/4 4/2/4 5/2/4
f 5/2/4 4/2/4 9/2/4
f 1/1/5 6/2/5 8/1/5
f 6/2/5 1/1/5 2/2/5
f 4/2/6 10/1/6 9/2/6
f 10/1/6 4/2/6 3/1/6
f 8/3/7 3/3/7 1/3/7
f 3/3/7 8/3/7 7/3/7
f 3/3/7 7/3/7 10/3/7

g roof-flat-corner




usemtl colormap

f 3/1/1 2/2/1 1/1/1
f 2/2/1 3/1/1 4/2/1
f 7/1/2 6/2/2 5/2/2
f 6/2/2 7/1/2 8/1/2
f 9/2/3 7/1/3 5/2/3
f 7/1/3 9/2/3 10/1/3
f 4/2/4 6/2/4 2/2/4
f 6/2/4 4/2/4 5/2/4
f 5/2/4 4/2/4 9/2/4
f 1/1/5 6/2/5 8/1/5
f 6/2/5 1/1/5 2/2/5
f 4/2/6 10/1/6 9/2/6
f 10/1/6 4/2/6 3/1/6
f 8/3/7 3/3/7 1/3/7
f 3/3/7 8/3/7 7/3/7
f 3/3/7 7/3/7 10/3/7

