# Created by Kenney (www.kenney.nl)

mtllib roof-flat-border-center.mtl

g roof-flat-border-center

v -0.5 0 -0.5 1 1 1
v 0.5 0 -0.5 1 1 1
v -0.5 0.2125 -0.5 1 1 1
v 0.5 0.2125 -0.5 1 1 1
v 0.5 0.2125 0.5 1 1 1
v 0.5 0 0.5 1 1 1
v -0.5 0 0.5 1 1 1
v -0.5 0.2125 0.5 1 1 1
v -0.375 0.2125 -0.375 1 1 1
v -0.375 0.10625 -0.375 1 1 1
v -0.375 0.2125 0.375 1 1 1
v -0.375 0.10625 0.375 1 1 1
v 0.375 0.10625 -0.375 1 1 1
v 0.375 0.2125 -0.375 1 1 1
v 0.375 0.10625 0.375 1 1 1
v 0.375 0.2125 0.375 1 1 1

vn 0 0 -1
vn 1 0 0
vn -1 0 0
vn 0 -1 0
vn 0 0 1
vn 0 1 0

vt 0.96875 0.025
vt 0.96875 0.225
vt 0.96875 0.125
vt 0.84375 0.125

usemtl colormap

f 3/2/1 2/1/1 1/1/1
f 2/1/1 3/2/1 4/2/1
f 5/2/2 2/1/2 4/2/2
f 2/1/2 5/2/2 6/1/2
f 7/1/3 3/2/3 1/1/3
f 3/2/3 7/1/3 8/2/3
f 11/2/2 10/3/2 9/2/2
f 10/3/2 11/2/2 12/3/2
f 7/1/4 2/1/4 6/1/4
f 2/1/4 7/1/4 1/1/4
f 14/2/5 10/3/5 13/3/5
f 10/3/5 14/2/5 9/2/5
f 15/3/3 14/2/3 13/3/3
f 14/2/3 15/3/3 16/2/3
f 11/2/1 15/3/1 12/3/1
f 15/3/1 11/2/1 16/2/1
f 5/2/5 7/1/5 6/1/5
f 7/1/5 5/2/5 8/2/5
f 8/2/6 16/2/6 11/2/6
f 8/2/6 11/2/6 9/2/6
f 5/2/6 16/2/6 8/2/6
f 9/2/6 3/2/6 8/2/6
f 16/2/6 5/2/6 4/2/6
f 14/2/6 3/2/6 9/2/6
f 4/2/6 14/2/6 16/2/6
f 14/2/6 4/2/6 3/2/6
f 13/4/6 12/4/6 15/4/6
f 12/4/6 13/4/6 10/4/6

g roof-flat-border-center




usemtl colormap

f 3/2/1 2/1/1 1/1/1
f 2/1/1 3/2/1 4/2/1
f 5/2/2 2/1/2 4/2/2
f 2/1/2 5/2/2 6/1/2
f 7/1/3 3/2/3 1/1/3
f 3/2/3 7/1/3 8/2/3
f 11/2/2 10/3/2 9/2/2
f 10/3/2 11/2/2 12/3/2
f 7/1/4 2/1/4 6/1/4
f 2/1/4 7/1/4 1/1/4
f 14/2/5 10/3/5 13/3/5
f 10/3/5 14/2/5 9/2/5
f 15/3/3 14/2/3 13/3/3
f 14/2/3 15/3/3 16/2/3
f 11/2/1 15/3/1 12/3/1
f 15/3/1 11/2/1 16/2/1
f 5/2/5 7/1/5 6/1/5
f 7/1/5 5/2/5 8/2/5
f 8/2/6 16/2/6 11/2/6
f 8/2/6 11/2/6 9/2/6
f 5/2/6 16/2/6 8/2/6
f 9/2/6 3/2/6 8/2/6
f 16/2/6 5/2/6 4/2/6
f 14/2/6 3/2/6 9/2/6
f 4/2/6 14/2/6 16/2/6
f 14/2/6 4/2/6 3/2/6
f 13/4/6 12/4/6 15/4/6
f 12/4/6 13/4/6 10/4/6

