# Created by Kenney (www.kenney.nl)

mtllib window-brown-wide.mtl

g window-brown-wide

v 0.375 0.38 0.05 1 1 1
v -0.375 0.38 0.05 1 1 1
v 0.375 0.38 0 1 1 1
v -0.375 0.38 7.493441E-13 1 1 1
v 0.3272583 0.04774169 4.764615E-14 1 1 1
v 0.3272583 0.1661292 4.764615E-14 1 1 1
v 0.3272583 0.04774169 0.05 1 1 1
v 0.3272583 0.2138708 4.764615E-14 1 1 1
v 0.3272583 0.3322583 4.764615E-14 1 1 1
v 0.3272583 0.3322583 0.05 1 1 1
v -0.3272583 0.04774169 0.05 1 1 1
v -0.3272583 0.04774169 7.016979E-13 1 1 1
v -0.3272583 0.3322583 0.05 1 1 1
v -0.3272583 0.3322583 7.016979E-13 1 1 1
v -0.3272583 0.2138708 7.016979E-13 1 1 1
v -0.3272583 0.1661292 7.016979E-13 1 1 1
v 0.375 0 0 1 1 1
v 0.375 0 0.05 1 1 1
v -0.375 0 0.05 1 1 1
v -0.375 0 7.493441E-13 1 1 1

vn 0 1 0
vn -1 0 0
vn 0 -1 0
vn 1 0 0
vn 0 0 1
vn 0 0 -1

vt 0.59375 0.225
vt 0.59375 0.0501272
vt 0.59375 0.1124364
vt 0.59375 0.1375636
vt 0.59375 0.1998728
vt 0.59375 0.025

usemtl colormap

f 3/1/1 2/1/1 1/1/1
f 2/1/1 3/1/1 4/1/1
f 7/2/2 6/3/2 5/2/2
f 6/3/2 7/2/2 8/4/2
f 8/4/2 7/2/2 9/5/2
f 9/5/2 7/2/2 10/5/2
f 5/2/1 11/2/1 7/2/1
f 11/2/1 5/2/1 12/2/1
f 13/5/3 9/5/3 10/5/3
f 9/5/3 13/5/3 14/5/3
f 13/5/4 15/4/4 14/5/4
f 15/4/4 13/5/4 16/3/4
f 16/3/4 13/5/4 12/2/4
f 12/2/4 13/5/4 11/2/4
f 1/1/4 17/6/4 3/1/4
f 17/6/4 1/1/4 18/6/4
f 19/6/3 17/6/3 18/6/3
f 17/6/3 19/6/3 20/6/3
f 19/6/2 4/1/2 20/6/2
f 4/1/2 19/6/2 2/1/2
f 7/2/5 1/1/5 10/5/5
f 10/5/5 1/1/5 13/5/5
f 7/2/5 18/6/5 1/1/5
f 2/1/5 13/5/5 1/1/5
f 18/6/5 7/2/5 19/6/5
f 2/1/5 11/2/5 13/5/5
f 19/6/5 11/2/5 2/1/5
f 11/2/5 19/6/5 7/2/5
f 3/1/6 6/3/6 8/4/6
f 3/1/6 8/4/6 9/5/6
f 3/1/6 5/2/6 6/3/6
f 17/6/6 5/2/6 3/1/6
f 3/1/6 9/5/6 4/1/6
f 5/2/6 17/6/6 12/2/6
f 20/6/6 12/2/6 17/6/6
f 12/2/6 20/6/6 4/1/6
f 14/5/6 4/1/6 9/5/6
f 12/2/6 4/1/6 16/3/6
f 15/4/6 4/1/6 14/5/6
f 16/3/6 4/1/6 15/4/6

g window-brown-wide




usemtl colormap

f 3/1/1 2/1/1 1/1/1
f 2/1/1 3/1/1 4/1/1
f 7/2/2 6/3/2 5/2/2
f 6/3/2 7/2/2 8/4/2
f 8/4/2 7/2/2 9/5/2
f 9/5/2 7/2/2 10/5/2
f 5/2/1 11/2/1 7/2/1
f 11/2/1 5/2/1 12/2/1
f 13/5/3 9/5/3 10/5/3
f 9/5/3 13/5/3 14/5/3
f 13/5/4 15/4/4 14/5/4
f 15/4/4 13/5/4 16/3/4
f 16/3/4 13/5/4 12/2/4
f 12/2/4 13/5/4 11/2/4
f 1/1/4 17/6/4 3/1/4
f 17/6/4 1/1/4 18/6/4
f 19/6/3 17/6/3 18/6/3
f 17/6/3 19/6/3 20/6/3
f 19/6/2 4/1/2 20/6/2
f 4/1/2 19/6/2 2/1/2
f 7/2/5 1/1/5 10/5/5
f 10/5/5 1/1/5 13/5/5
f 7/2/5 18/6/5 1/1/5
f 2/1/5 13/5/5 1/1/5
f 18/6/5 7/2/5 19/6/5
f 2/1/5 11/2/5 13/5/5
f 19/6/5 11/2/5 2/1/5
f 11/2/5 19/6/5 7/2/5
f 3/1/6 6/3/6 8/4/6
f 3/1/6 8/4/6 9/5/6
f 3/1/6 5/2/6 6/3/6
f 17/6/6 5/2/6 3/1/6
f 3/1/6 9/5/6 4/1/6
f 5/2/6 17/6/6 12/2/6
f 20/6/6 12/2/6 17/6/6
f 12/2/6 20/6/6 4/1/6
f 14/5/6 4/1/6 9/5/6
f 12/2/6 4/1/6 16/3/6
f 15/4/6 4/1/6 14/5/6
f 16/3/6 4/1/6 15/4/6

