# Created by Kenney (www.kenney.nl)

mtllib window-brown-round-wide.mtl

g window-brown-round-wide

v -0.1104854 0.4204854 2.678291E-13 1 1 1
v -0.1104854 0.4204854 0.05 1 1 1
v -0.15625 0.31 3.125876E-13 1 1 1
v -0.15625 0.31 0.05 1 1 1
v -0.15625 4.511946E-17 3.125876E-13 1 1 1
v -0.15625 0 0.05 1 1 1
v 0.15625 0.31 0 1 1 1
v 0.15625 4.511946E-17 0 1 1 1
v 0.15625 0.31 0.05 1 1 1
v 0.15625 0 0.05 1 1 1
v -0.07221709 0.3822171 2.295678E-13 1 1 1
v -0.10625 0.3000544 2.627757E-13 1 1 1
v -0.07221709 0.3822171 0.05 1 1 1
v -0.10625 0.3000544 0.05 1 1 1
v -1.164128E-09 0.46625 0.05 1 1 1
v 0.1104854 0.4204854 0.05 1 1 1
v -7.609062E-10 0.4121304 0.05 1 1 1
v 0.07221709 0.3822171 0.05 1 1 1
v -0.10625 0.05 0.05 1 1 1
v 0.10625 0.3000544 0.05 1 1 1
v 0.10625 0.05 0.05 1 1 1
v 0.07221709 0.3822171 8.518555E-14 1 1 1
v -7.609567E-10 0.4121304 1.566548E-13 1 1 1
v -1.164179E-09 0.46625 1.566548E-13 1 1 1
v 0.10625 0.3000544 4.981189E-14 1 1 1
v 0.1104854 0.4204854 4.764615E-14 1 1 1
v 0.10625 0.05 4.981189E-14 1 1 1
v -0.10625 0.05 2.627757E-13 1 1 1

vn -0.7071068 0.7071068 0
vn -0.9238795 0.3826834 0
vn -1 0 0
vn 1 0 0
vn 0.7071068 -0.7071068 0
vn 0.9238795 -0.3826834 0
vn 0 0 1
vn -0.7071068 -0.7071068 0
vn 0 -1 0
vn 0 1 0
vn -0.9238795 -0.3826834 0
vn 0 0 -1
vn 0.9238795 0.3826834 0
vn 0.7071068 0.7071068 0

vt 0.59375 0.2053691
vt 0.59375 0.1579759
vt 0.59375 0.025
vt 0.59375 0.1889537
vt 0.59375 0.1537097
vt 0.59375 0.225
vt 0.59375 0.2017851
vt 0.59375 0.04644772

usemtl colormap

f 3/2/2 2/1/1 1/1/1
f 2/1/1 3/2/2 4/2/2
f 6/3/3 3/2/3 5/3/3
f 3/2/3 6/3/3 4/2/3
f 9/2/4 8/3/4 7/2/4
f 8/3/4 9/2/4 10/3/4
f 13/4/5 12/5/6 11/4/5
f 12/5/6 13/4/5 14/5/6
f 2/1/7 16/1/7 15/6/7
f 17/7/7 16/1/7 2/1/7
f 2/1/7 13/4/7 17/7/7
f 18/4/7 16/1/7 17/7/7
f 4/2/7 13/4/7 2/1/7
f 4/2/7 14/5/7 13/4/7
f 4/2/7 19/8/7 14/5/7
f 6/3/7 19/8/7 4/2/7
f 18/4/7 9/2/7 16/1/7
f 20/5/7 9/2/7 18/4/7
f 19/8/7 6/3/7 21/8/7
f 21/8/7 9/2/7 20/5/7
f 10/3/7 21/8/7 6/3/7
f 21/8/7 10/3/7 9/2/7
f 17/7/9 22/4/8 18/4/8
f 22/4/8 17/7/9 23/7/9
f 6/3/9 8/3/9 10/3/9
f 8/3/9 6/3/9 5/3/9
f 24/6/10 2/1/1 15/6/10
f 2/1/1 24/6/10 1/1/1
f 20/5/11 22/4/8 25/5/11
f 22/4/8 20/5/11 18/4/8
f 26/1/12 1/1/12 24/6/12
f 26/1/12 23/7/12 1/1/12
f 11/4/12 1/1/12 23/7/12
f 26/1/12 22/4/12 23/7/12
f 11/4/12 3/2/12 1/1/12
f 12/5/12 3/2/12 11/4/12
f 7/2/12 22/4/12 26/1/12
f 7/2/12 25/5/12 22/4/12
f 7/2/12 27/8/12 25/5/12
f 8/3/12 27/8/12 7/2/12
f 28/8/12 3/2/12 12/5/12
f 27/8/12 8/3/12 28/8/12
f 28/8/12 5/3/12 3/2/12
f 5/3/12 28/8/12 8/3/12
f 14/5/4 28/8/4 12/5/4
f 28/8/4 14/5/4 19/8/4
f 26/1/14 9/2/13 7/2/13
f 9/2/13 26/1/14 16/1/14
f 13/4/5 23/7/9 17/7/9
f 23/7/9 13/4/5 11/4/5
f 21/8/3 25/5/3 27/8/3
f 25/5/3 21/8/3 20/5/3
f 26/1/14 15/6/10 16/1/14
f 15/6/10 26/1/14 24/6/10
f 27/8/10 19/8/10 21/8/10
f 19/8/10 27/8/10 28/8/10

g window-brown-round-wide




usemtl colormap

f 3/2/2 2/1/1 1/1/1
f 2/1/1 3/2/2 4/2/2
f 6/3/3 3/2/3 5/3/3
f 3/2/3 6/3/3 4/2/3
f 9/2/4 8/3/4 7/2/4
f 8/3/4 9/2/4 10/3/4
f 13/4/5 12/5/6 11/4/5
f 12/5/6 13/4/5 14/5/6
f 2/1/7 16/1/7 15/6/7
f 17/7/7 16/1/7 2/1/7
f 2/1/7 13/4/7 17/7/7
f 18/4/7 16/1/7 17/7/7
f 4/2/7 13/4/7 2/1/7
f 4/2/7 14/5/7 13/4/7
f 4/2/7 19/8/7 14/5/7
f 6/3/7 19/8/7 4/2/7
f 18/4/7 9/2/7 16/1/7
f 20/5/7 9/2/7 18/4/7
f 19/8/7 6/3/7 21/8/7
f 21/8/7 9/2/7 20/5/7
f 10/3/7 21/8/7 6/3/7
f 21/8/7 10/3/7 9/2/7
f 17/7/9 22/4/8 18/4/8
f 22/4/8 17/7/9 23/7/9
f 6/3/9 8/3/9 10/3/9
f 8/3/9 6/3/9 5/3/9
f 24/6/10 2/1/1 15/6/10
f 2/1/1 24/6/10 1/1/1
f 20/5/11 22/4/8 25/5/11
f 22/4/8 20/5/11 18/4/8
f 26/1/12 1/1/12 24/6/12
f 26/1/12 23/7/12 1/1/12
f 11/4/12 1/1/12 23/7/12
f 26/1/12 22/4/12 23/7/12
f 11/4/12 3/2/12 1/1/12
f 12/5/12 3/2/12 11/4/12
f 7/2/12 22/4/12 26/1/12
f 7/2/12 25/5/12 22/4/12
f 7/2/12 27/8/12 25/5/12
f 8/3/12 27/8/12 7/2/12
f 28/8/12 3/2/12 12/5/12
f 27/8/12 8/3/12 28/8/12
f 28/8/12 5/3/12 3/2/12
f 5/3/12 28/8/12 8/3/12
f 14/5/4 28/8/4 12/5/4
f 28/8/4 14/5/4 19/8/4
f 26/1/14 9/2/13 7/2/13
f 9/2/13 26/1/14 16/1/14
f 13/4/5 23/7/9 17/7/9
f 23/7/9 13/4/5 11/4/5
f 21/8/3 25/5/3 27/8/3
f 25/5/3 21/8/3 20/5/3
f 26/1/14 15/6/10 16/1/14
f 15/6/10 26/1/14 24/6/10
f 27/8/10 19/8/10 21/8/10
f 19/8/10 27/8/10 28/8/10

