# Created by Kenney (www.kenney.nl)

mtllib window-white-round-low.mtl

g window-white-round-low

v -0.15625 1.127987E-16 4.042704E-14 1 1 1
v -0.15625 0.19 4.042704E-14 1 1 1
v -0.15625 0 0.05 1 1 1
v -0.15625 0.19 0.05 1 1 1
v -1.16415E-09 0.34625 0.05 1 1 1
v 0.1104854 0.3004854 0.05 1 1 1
v -0.1104854 0.3004854 0.05 1 1 1
v -7.609278E-10 0.2921304 0.05 1 1 1
v -0.07221709 0.2622171 0.05 1 1 1
v 0.07221709 0.2622171 0.05 1 1 1
v -0.10625 0.1800544 0.05 1 1 1
v -0.10625 0.05 0.05 1 1 1
v 0.15625 0.19 0.05 1 1 1
v 0.10625 0.1800544 0.05 1 1 1
v 0.10625 0.05 0.05 1 1 1
v 0.15625 0 0.05 1 1 1
v -1.164156E-09 0.34625 2.093543E-14 1 1 1
v -0.1104854 0.3004854 3.753939E-14 1 1 1
v 0.10625 0.1800544 5.775291E-15 1 1 1
v 0.07221709 0.2622171 1.010676E-14 1 1 1
v 0.15625 0.19 0 1 1 1
v 0.1104854 0.3004854 5.05338E-15 1 1 1
v 0.15625 1.127987E-16 0 1 1 1
v -7.609336E-10 0.2921304 2.021352E-14 1 1 1
v 0.10625 0.05 5.775291E-15 1 1 1
v -0.10625 0.05 3.465175E-14 1 1 1
v -0.07221709 0.2622171 3.17641E-14 1 1 1
v -0.10625 0.1800544 3.465175E-14 1 1 1

vn -1 0 0
vn 0 0 1
vn 0 1 0
vn -0.7071068 0.7071068 0
vn -0.9238795 0.3826834 0
vn -0.9238795 -0.3826834 0
vn -0.7071068 -0.7071068 0
vn 0.9238795 0.3826834 0
vn 0.7071068 0.7071068 0
vn 0 -1 0
vn 0.7071068 -0.7071068 0
vn 0.9238795 -0.3826834 0
vn 1 0 0
vn 0 0 -1

vt 0.46875 0.025
vt 0.46875 0.1347473
vt 0.46875 0.225
vt 0.46875 0.1985656
vt 0.46875 0.1937396
vt 0.46875 0.1764611
vt 0.46875 0.1290025
vt 0.46875 0.05388087

usemtl colormap

f 3/1/1 2/2/1 1/1/1
f 2/2/1 3/1/1 4/2/1
f 7/4/2 6/4/2 5/3/2
f 8/5/2 6/4/2 7/4/2
f 7/4/2 9/6/2 8/5/2
f 10/6/2 6/4/2 8/5/2
f 4/2/2 9/6/2 7/4/2
f 4/2/2 11/7/2 9/6/2
f 4/2/2 12/8/2 11/7/2
f 3/1/2 12/8/2 4/2/2
f 10/6/2 13/2/2 6/4/2
f 14/7/2 13/2/2 10/6/2
f 12/8/2 3/1/2 15/8/2
f 15/8/2 13/2/2 14/7/2
f 16/1/2 15/8/2 3/1/2
f 15/8/2 16/1/2 13/2/2
f 17/3/3 7/4/4 5/3/3
f 7/4/4 17/3/3 18/4/4
f 2/2/5 7/4/4 18/4/4
f 7/4/4 2/2/5 4/2/5
f 14/7/6 20/6/7 19/7/6
f 20/6/7 14/7/6 10/6/7
f 22/4/9 13/2/8 21/2/8
f 13/2/8 22/4/9 6/4/9
f 3/1/10 23/1/10 16/1/10
f 23/1/10 3/1/10 1/1/10
f 8/5/10 20/6/7 10/6/7
f 20/6/7 8/5/10 24/5/10
f 25/8/3 12/8/3 15/8/3
f 12/8/3 25/8/3 26/8/3
f 9/6/11 28/7/12 27/6/11
f 28/7/12 9/6/11 11/7/12
f 13/2/13 23/1/13 21/2/13
f 23/1/13 13/2/13 16/1/13
f 22/4/9 5/3/3 6/4/9
f 5/3/3 22/4/9 17/3/3
f 11/7/13 26/8/13 28/7/13
f 26/8/13 11/7/13 12/8/13
f 9/6/11 24/5/10 8/5/10
f 24/5/10 9/6/11 27/6/11
f 15/8/1 19/7/1 25/8/1
f 19/7/1 15/8/1 14/7/1
f 22/4/14 18/4/14 17/3/14
f 22/4/14 24/5/14 18/4/14
f 27/6/14 18/4/14 24/5/14
f 22/4/14 20/6/14 24/5/14
f 27/6/14 2/2/14 18/4/14
f 28/7/14 2/2/14 27/6/14
f 21/2/14 20/6/14 22/4/14
f 21/2/14 19/7/14 20/6/14
f 21/2/14 25/8/14 19/7/14
f 23/1/14 25/8/14 21/2/14
f 26/8/14 2/2/14 28/7/14
f 25/8/14 23/1/14 26/8/14
f 26/8/14 1/1/14 2/2/14
f 1/1/14 26/8/14 23/1/14

g window-white-round-low




usemtl colormap

f 3/1/1 2/2/1 1/1/1
f 2/2/1 3/1/1 4/2/1
f 7/4/2 6/4/2 5/3/2
f 8/5/2 6/4/2 7/4/2
f 7/4/2 9/6/2 8/5/2
f 10/6/2 6/4/2 8/5/2
f 4/2/2 9/6/2 7/4/2
f 4/2/2 11/7/2 9/6/2
f 4/2/2 12/8/2 11/7/2
f 3/1/2 12/8/2 4/2/2
f 10/6/2 13/2/2 6/4/2
f 14/7/2 13/2/2 10/6/2
f 12/8/2 3/1/2 15/8/2
f 15/8/2 13/2/2 14/7/2
f 16/1/2 15/8/2 3/1/2
f 15/8/2 16/1/2 13/2/2
f 17/3/3 7/4/4 5/3/3
f 7/4/4 17/3/3 18/4/4
f 2/2/5 7/4/4 18/4/4
f 7/4/4 2/2/5 4/2/5
f 14/7/6 20/6/7 19/7/6
f 20/6/7 14/7/6 10/6/7
f 22/4/9 13/2/8 21/2/8
f 13/2/8 22/4/9 6/4/9
f 3/1/10 23/1/10 16/1/10
f 23/1/10 3/1/10 1/1/10
f 8/5/10 20/6/7 10/6/7
f 20/6/7 8/5/10 24/5/10
f 25/8/3 12/8/3 15/8/3
f 12/8/3 25/8/3 26/8/3
f 9/6/11 28/7/12 27/6/11
f 28/7/12 9/6/11 11/7/12
f 13/2/13 23/1/13 21/2/13
f 23/1/13 13/2/13 16/1/13
f 22/4/9 5/3/3 6/4/9
f 5/3/3 22/4/9 17/3/3
f 11/7/13 26/8/13 28/7/13
f 26/8/13 11/7/13 12/8/13
f 9/6/11 24/5/10 8/5/10
f 24/5/10 9/6/11 27/6/11
f 15/8/1 19/7/1 25/8/1
f 19/7/1 15/8/1 14/7/1
f 22/4/14 18/4/14 17/3/14
f 22/4/14 24/5/14 18/4/14
f 27/6/14 18/4/14 24/5/14
f 22/4/14 20/6/14 24/5/14
f 27/6/14 2/2/14 18/4/14
f 28/7/14 2/2/14 27/6/14
f 21/2/14 20/6/14 22/4/14
f 21/2/14 19/7/14 20/6/14
f 21/2/14 25/8/14 19/7/14
f 23/1/14 25/8/14 21/2/14
f 26/8/14 2/2/14 28/7/14
f 25/8/14 23/1/14 26/8/14
f 26/8/14 1/1/14 2/2/14
f 1/1/14 26/8/14 23/1/14

