# Created by Kenney (www.kenney.nl)

mtllib window-white.mtl

g window-white

v 0.15625 0 0.05 1 1 1
v 0.15625 0 0 1 1 1
v -0.15625 0 0.05 1 1 1
v -0.15625 0 3.118657E-13 1 1 1
v 0.1085083 0.3322583 0.05 1 1 1
v 0.1085083 0.3322583 4.764615E-14 1 1 1
v -0.1085083 0.3322583 0.05 1 1 1
v -0.1085083 0.3322583 2.642196E-13 1 1 1
v 0.15625 0.38 0 1 1 1
v 0.15625 0.38 0.05 1 1 1
v -0.1085083 0.2138708 2.642196E-13 1 1 1
v -0.1085083 0.1661292 2.642196E-13 1 1 1
v -0.1085083 0.04774169 2.642196E-13 1 1 1
v -0.1085083 0.04774169 0.05 1 1 1
v 0.1085083 0.04774169 4.764615E-14 1 1 1
v 0.1085083 0.1661292 4.764615E-14 1 1 1
v 0.1085083 0.04774169 0.05 1 1 1
v 0.1085083 0.2138708 4.764615E-14 1 1 1
v -0.15625 0.38 3.118657E-13 1 1 1
v -0.15625 0.38 0.05 1 1 1

vn 0 -1 0
vn 1 0 0
vn -1 0 0
vn 0 1 0
vn 0 0 1
vn 0 0 -1

vt 0.46875 0.025
vt 0.46875 0.1998728
vt 0.46875 0.225
vt 0.46875 0.1375636
vt 0.46875 0.1124364
vt 0.46875 0.0501272

usemtl colormap

f 3/1/1 2/1/1 1/1/1
f 2/1/1 3/1/1 4/1/1
f 7/2/1 6/2/1 5/2/1
f 6/2/1 7/2/1 8/2/1
f 10/3/2 2/1/2 9/3/2
f 2/1/2 10/3/2 1/1/2
f 7/2/2 11/4/2 8/2/2
f 11/4/2 7/2/2 12/5/2
f 12/5/2 7/2/2 13/6/2
f 13/6/2 7/2/2 14/6/2
f 17/6/3 16/5/3 15/6/3
f 16/5/3 17/6/3 18/4/3
f 18/4/3 17/6/3 6/2/3
f 6/2/3 17/6/3 5/2/3
f 3/1/3 19/3/3 4/1/3
f 19/3/3 3/1/3 20/3/3
f 9/3/4 20/3/4 10/3/4
f 20/3/4 9/3/4 19/3/4
f 15/6/4 14/6/4 17/6/4
f 14/6/4 15/6/4 13/6/4
f 17/6/5 10/3/5 5/2/5
f 5/2/5 10/3/5 7/2/5
f 17/6/5 1/1/5 10/3/5
f 20/3/5 7/2/5 10/3/5
f 1/1/5 17/6/5 3/1/5
f 20/3/5 14/6/5 7/2/5
f 3/1/5 14/6/5 20/3/5
f 14/6/5 3/1/5 17/6/5
f 4/1/6 13/6/6 2/1/6
f 13/6/6 4/1/6 19/3/6
f 15/6/6 2/1/6 13/6/6
f 13/6/6 19/3/6 12/5/6
f 2/1/6 15/6/6 9/3/6
f 12/5/6 19/3/6 11/4/6
f 11/4/6 19/3/6 8/2/6
f 8/2/6 19/3/6 6/2/6
f 9/3/6 6/2/6 19/3/6
f 9/3/6 15/6/6 16/5/6
f 9/3/6 18/4/6 6/2/6
f 9/3/6 16/5/6 18/4/6

g window-white




usemtl colormap

f 3/1/1 2/1/1 1/1/1
f 2/1/1 3/1/1 4/1/1
f 7/2/1 6/2/1 5/2/1
f 6/2/1 7/2/1 8/2/1
f 10/3/2 2/1/2 9/3/2
f 2/1/2 10/3/2 1/1/2
f 7/2/2 11/4/2 8/2/2
f 11/4/2 7/2/2 12/5/2
f 12/5/2 7/2/2 13/6/2
f 13/6/2 7/2/2 14/6/2
f 17/6/3 16/5/3 15/6/3
f 16/5/3 17/6/3 18/4/3
f 18/4/3 17/6/3 6/2/3
f 6/2/3 17/6/3 5/2/3
f 3/1/3 19/3/3 4/1/3
f 19/3/3 3/1/3 20/3/3
f 9/3/4 20/3/4 10/3/4
f 20/3/4 9/3/4 19/3/4
f 15/6/4 14/6/4 17/6/4
f 14/6/4 15/6/4 13/6/4
f 17/6/5 10/3/5 5/2/5
f 5/2/5 10/3/5 7/2/5
f 17/6/5 1/1/5 10/3/5
f 20/3/5 7/2/5 10/3/5
f 1/1/5 17/6/5 3/1/5
f 20/3/5 14/6/5 7/2/5
f 3/1/5 14/6/5 20/3/5
f 14/6/5 3/1/5 17/6/5
f 4/1/6 13/6/6 2/1/6
f 13/6/6 4/1/6 19/3/6
f 15/6/6 2/1/6 13/6/6
f 13/6/6 19/3/6 12/5/6
f 2/1/6 15/6/6 9/3/6
f 12/5/6 19/3/6 11/4/6
f 11/4/6 19/3/6 8/2/6
f 8/2/6 19/3/6 6/2/6
f 9/3/6 6/2/6 19/3/6
f 9/3/6 15/6/6 16/5/6
f 9/3/6 18/4/6 6/2/6
f 9/3/6 16/5/6 18/4/6

