# Created by Kenney (www.kenney.nl)

mtllib window-white-detailed.mtl

g window-white-detailed

v 0.15625 0.38 0.05 1 1 1
v -0.15625 0.38 0.05 1 1 1
v 0.15625 0.38 0 1 1 1
v -0.15625 0.38 3.118657E-13 1 1 1
v 0.15625 0 0.05 1 1 1
v 0.15625 0 0 1 1 1
v -0.15625 0 0.05 1 1 1
v -0.15625 0 3.118657E-13 1 1 1
v 0.1085083 0.1661292 0.025 1 1 1
v -0.1085083 0.1661292 0.025 1 1 1
v 0.1085083 0.2138708 0.025 1 1 1
v -0.1085083 0.2138708 0.025 1 1 1
v 0.1085083 0.3322583 0.05 1 1 1
v 0.1085083 0.3322583 4.764615E-14 1 1 1
v -0.1085083 0.3322583 0.05 1 1 1
v -0.1085083 0.3322583 2.642196E-13 1 1 1
v 0.1085083 0.04774169 4.764615E-14 1 1 1
v 0.1085083 0.04774169 0.05 1 1 1
v -0.1085083 0.04774169 2.642196E-13 1 1 1
v -0.1085083 0.04774169 0.05 1 1 1

vn 0 1 0
vn 0 -1 0
vn 1 0 0
vn 0 0 1
vn -1 0 0
vn 0 0 -1

vt 0.46875 0.225
vt 0.46875 0.025
vt 0.46875 0.1124364
vt 0.46875 0.1375636
vt 0.46875 0.1998728
vt 0.46875 0.0501272

usemtl colormap

f 3/1/1 2/1/1 1/1/1
f 2/1/1 3/1/1 4/1/1
f 7/2/2 6/2/2 5/2/2
f 6/2/2 7/2/2 8/2/2
f 1/1/3 6/2/3 3/1/3
f 6/2/3 1/1/3 5/2/3
f 11/4/4 10/3/4 9/3/4
f 10/3/4 11/4/4 12/4/4
f 7/2/5 4/1/5 8/2/5
f 4/1/5 7/2/5 2/1/5
f 15/5/2 14/5/2 13/5/2
f 14/5/2 15/5/2 16/5/2
f 18/6/5 14/5/5 17/6/5
f 14/5/5 18/6/5 13/5/5
f 15/5/3 19/6/3 16/5/3
f 19/6/3 15/5/3 20/6/3
f 17/6/1 20/6/1 18/6/1
f 20/6/1 17/6/1 19/6/1
f 19/6/6 4/1/6 16/5/6
f 16/5/6 4/1/6 14/5/6
f 19/6/6 8/2/6 4/1/6
f 3/1/6 14/5/6 4/1/6
f 8/2/6 19/6/6 6/2/6
f 3/1/6 17/6/6 14/5/6
f 6/2/6 17/6/6 3/1/6
f 17/6/6 6/2/6 19/6/6
f 5/2/4 18/6/4 7/2/4
f 18/6/4 5/2/4 1/1/4
f 20/6/4 7/2/4 18/6/4
f 18/6/4 1/1/4 13/5/4
f 7/2/4 20/6/4 2/1/4
f 13/5/4 1/1/4 15/5/4
f 2/1/4 20/6/4 15/5/4
f 2/1/4 15/5/4 1/1/4

g window-white-detailed




usemtl colormap

f 3/1/1 2/1/1 1/1/1
f 2/1/1 3/1/1 4/1/1
f 7/2/2 6/2/2 5/2/2
f 6/2/2 7/2/2 8/2/2
f 1/1/3 6/2/3 3/1/3
f 6/2/3 1/1/3 5/2/3
f 11/4/4 10/3/4 9/3/4
f 10/3/4 11/4/4 12/4/4
f 7/2/5 4/1/5 8/2/5
f 4/1/5 7/2/5 2/1/5
f 15/5/2 14/5/2 13/5/2
f 14/5/2 15/5/2 16/5/2
f 18/6/5 14/5/5 17/6/5
f 14/5/5 18/6/5 13/5/5
f 15/5/3 19/6/3 16/5/3
f 19/6/3 15/5/3 20/6/3
f 17/6/1 20/6/1 18/6/1
f 20/6/1 17/6/1 19/6/1
f 19/6/6 4/1/6 16/5/6
f 16/5/6 4/1/6 14/5/6
f 19/6/6 8/2/6 4/1/6
f 3/1/6 14/5/6 4/1/6
f 8/2/6 19/6/6 6/2/6
f 3/1/6 17/6/6 14/5/6
f 6/2/6 17/6/6 3/1/6
f 17/6/6 6/2/6 19/6/6
f 5/2/4 18/6/4 7/2/4
f 18/6/4 5/2/4 1/1/4
f 20/6/4 7/2/4 18/6/4
f 18/6/4 1/1/4 13/5/4
f 7/2/4 20/6/4 2/1/4
f 13/5/4 1/1/4 15/5/4
f 2/1/4 20/6/4 15/5/4
f 2/1/4 15/5/4 1/1/4

