# Created by Kenney (www.kenney.nl)

mtllib window-white-round-top.mtl

g window-white-round-top

v 1.164211E-09 0.46625 0.05 1 1 1
v -0.1104854 0.4204854 0.05 1 1 1
v 1.164096E-09 0.46625 3.5879E-13 1 1 1
v -0.1104854 0.4204854 6.121809E-13 1 1 1
v 0.07221709 0.3822171 0.05 1 1 1
v 0.07221709 0.3822171 1.920284E-13 1 1 1
v 7.609892E-10 0.4121304 0.05 1 1 1
v 7.608737E-10 0.4121304 3.5879E-13 1 1 1
v -0.10625 0.3000544 6.042399E-13 1 1 1
v -0.10625 5.86553E-16 6.042399E-13 1 1 1
v -0.10625 0.3000544 0.05 1 1 1
v -0.10625 6.316725E-16 0.05 1 1 1
v 0.1104854 0.4204854 0.05 1 1 1
v 0.1104854 0.4204854 1.039552E-13 1 1 1
v 0.10625 0.3000544 1.147839E-13 1 1 1
v 0.10625 0.3000544 0.05 1 1 1
v -0.15625 0.31 7.190237E-13 1 1 1
v -0.15625 0.31 0.05 1 1 1
v -0.07221709 0.3822171 5.248296E-13 1 1 1
v -0.07221709 0.3822171 0.05 1 1 1
v 0.15625 4.511946E-17 0.05 1 1 1
v 0.15625 0 0 1 1 1
v 0.10625 6.316725E-16 0.05 1 1 1
v 0.10625 5.86553E-16 1.147839E-13 1 1 1
v 0.15625 0.31 0 1 1 1
v 0.15625 0.31 0.05 1 1 1
v -0.15625 0 7.190237E-13 1 1 1
v -0.15625 4.511946E-17 0.05 1 1 1

vn 0 1 0
vn -0.7071068 0.7071068 0
vn -0.7071068 -0.7071068 0
vn 0 -1 0
vn 1 0 0
vn 0.7071068 0.7071068 0
vn -0.9238795 -0.3826834 0
vn -0.9238795 0.3826834 0
vn 0.7071068 -0.7071068 0
vn 0.9238795 -0.3826834 0
vn 0.9238795 0.3826834 0
vn -1 0 0
vn 0 0 1
vn 0 0 -1

vt 0.46875 0.225
vt 0.46875 0.2053691
vt 0.46875 0.1889537
vt 0.46875 0.2017851
vt 0.46875 0.1537097
vt 0.46875 0.025
vt 0.46875 0.1579759

usemtl colormap

f 3/1/1 2/2/2 1/1/1
f 2/2/2 3/1/1 4/2/2
f 7/4/4 6/3/3 5/3/3
f 6/3/3 7/4/4 8/4/4
f 11/5/5 10/6/5 9/5/5
f 10/6/5 11/5/5 12/6/5
f 14/2/6 1/1/1 13/2/6
f 1/1/1 14/2/6 3/1/1
f 16/5/7 6/3/3 15/5/7
f 6/3/3 16/5/7 5/3/3
f 17/7/8 2/2/2 4/2/2
f 2/2/2 17/7/8 18/7/8
f 20/3/9 9/5/10 19/3/9
f 9/5/10 20/3/9 11/5/10
f 20/3/9 8/4/4 7/4/4
f 8/4/4 20/3/9 19/3/9
f 23/6/4 22/6/4 21/6/4
f 22/6/4 23/6/4 24/6/4
f 14/2/6 26/7/11 25/7/11
f 26/7/11 14/2/6 13/2/6
f 28/6/12 17/7/12 27/6/12
f 17/7/12 28/6/12 18/7/12
f 26/7/13 23/6/13 21/6/13
f 23/6/13 26/7/13 16/5/13
f 16/5/13 26/7/13 5/3/13
f 5/3/13 26/7/13 13/2/13
f 5/3/13 13/2/13 7/4/13
f 2/2/13 7/4/13 13/2/13
f 2/2/13 13/2/13 1/1/13
f 2/2/13 20/3/13 7/4/13
f 18/7/13 20/3/13 2/2/13
f 18/7/13 11/5/13 20/3/13
f 18/7/13 12/6/13 11/5/13
f 12/6/13 18/7/13 28/6/13
f 23/6/12 15/5/12 24/6/12
f 15/5/12 23/6/12 16/5/12
f 26/7/5 22/6/5 25/7/5
f 22/6/5 26/7/5 21/6/5
f 17/7/14 10/6/14 27/6/14
f 10/6/14 17/7/14 9/5/14
f 9/5/14 17/7/14 19/3/14
f 19/3/14 17/7/14 4/2/14
f 19/3/14 4/2/14 8/4/14
f 8/4/14 4/2/14 14/2/14
f 14/2/14 4/2/14 3/1/14
f 14/2/14 6/3/14 8/4/14
f 25/7/14 6/3/14 14/2/14
f 25/7/14 15/5/14 6/3/14
f 25/7/14 24/6/14 15/5/14
f 24/6/14 25/7/14 22/6/14
f 28/6/4 10/6/4 12/6/4
f 10/6/4 28/6/4 27/6/4

g window-white-round-top




usemtl colormap

f 3/1/1 2/2/2 1/1/1
f 2/2/2 3/1/1 4/2/2
f 7/4/4 6/3/3 5/3/3
f 6/3/3 7/4/4 8/4/4
f 11/5/5 10/6/5 9/5/5
f 10/6/5 11/5/5 12/6/5
f 14/2/6 1/1/1 13/2/6
f 1/1/1 14/2/6 3/1/1
f 16/5/7 6/3/3 15/5/7
f 6/3/3 16/5/7 5/3/3
f 17/7/8 2/2/2 4/2/2
f 2/2/2 17/7/8 18/7/8
f 20/3/9 9/5/10 19/3/9
f 9/5/10 20/3/9 11/5/10
f 20/3/9 8/4/4 7/4/4
f 8/4/4 20/3/9 19/3/9
f 23/6/4 22/6/4 21/6/4
f 22/6/4 23/6/4 24/6/4
f 14/2/6 26/7/11 25/7/11
f 26/7/11 14/2/6 13/2/6
f 28/6/12 17/7/12 27/6/12
f 17/7/12 28/6/12 18/7/12
f 26/7/13 23/6/13 21/6/13
f 23/6/13 26/7/13 16/5/13
f 16/5/13 26/7/13 5/3/13
f 5/3/13 26/7/13 13/2/13
f 5/3/13 13/2/13 7/4/13
f 2/2/13 7/4/13 13/2/13
f 2/2/13 13/2/13 1/1/13
f 2/2/13 20/3/13 7/4/13
f 18/7/13 20/3/13 2/2/13
f 18/7/13 11/5/13 20/3/13
f 18/7/13 12/6/13 11/5/13
f 12/6/13 18/7/13 28/6/13
f 23/6/12 15/5/12 24/6/12
f 15/5/12 23/6/12 16/5/12
f 26/7/5 22/6/5 25/7/5
f 22/6/5 26/7/5 21/6/5
f 17/7/14 10/6/14 27/6/14
f 10/6/14 17/7/14 9/5/14
f 9/5/14 17/7/14 19/3/14
f 19/3/14 17/7/14 4/2/14
f 19/3/14 4/2/14 8/4/14
f 8/4/14 4/2/14 14/2/14
f 14/2/14 4/2/14 3/1/14
f 14/2/14 6/3/14 8/4/14
f 25/7/14 6/3/14 14/2/14
f 25/7/14 15/5/14 6/3/14
f 25/7/14 24/6/14 15/5/14
f 24/6/14 25/7/14 22/6/14
f 28/6/4 10/6/4 12/6/4
f 10/6/4 28/6/4 27/6/4

