# Created by Kenney (www.kenney.nl)

mtllib window-brown-large.mtl

g window-brown-large

v -0.1397583 0.4522583 3.26304E-13 1 1 1
v -0.1397583 0.2138708 3.26304E-13 1 1 1
v -0.1397583 0.4522583 0.05 1 1 1
v -0.1397583 0.1661292 3.26304E-13 1 1 1
v -0.1397583 0.04774169 3.26304E-13 1 1 1
v -0.1397583 0.04774169 0.05 1 1 1
v 0.1875 0.5 0.05 1 1 1
v -0.1875 0.5 0.05 1 1 1
v 0.1875 0.5 0 1 1 1
v -0.1875 0.5 3.739501E-13 1 1 1
v 0.1875 0 0.05 1 1 1
v 0.1875 0 0 1 1 1
v -0.1875 0 0.05 1 1 1
v -0.1875 0 3.739501E-13 1 1 1
v 0.1397583 0.04774169 4.764615E-14 1 1 1
v 0.1397583 0.1661292 4.764615E-14 1 1 1
v 0.1397583 0.04774169 0.05 1 1 1
v 0.1397583 0.2138708 4.764615E-14 1 1 1
v 0.1397583 0.4522583 4.764615E-14 1 1 1
v 0.1397583 0.4522583 0.05 1 1 1

vn 1 0 0
vn 0 1 0
vn 0 -1 0
vn -1 0 0
vn 0 0 1
vn 0 0 -1

vt 0.59375 0.2059033
vt 0.59375 0.1105483
vt 0.59375 0.09145166
vt 0.59375 0.04409667
vt 0.59375 0.225
vt 0.59375 0.025

usemtl colormap

f 3/1/1 2/2/1 1/1/1
f 2/2/1 3/1/1 4/3/1
f 4/3/1 3/1/1 5/4/1
f 5/4/1 3/1/1 6/4/1
f 9/5/2 8/5/2 7/5/2
f 8/5/2 9/5/2 10/5/2
f 13/6/3 12/6/3 11/6/3
f 12/6/3 13/6/3 14/6/3
f 17/4/4 16/3/4 15/4/4
f 16/3/4 17/4/4 18/2/4
f 18/2/4 17/4/4 19/1/4
f 19/1/4 17/4/4 20/1/4
f 3/1/3 19/1/3 20/1/3
f 19/1/3 3/1/3 1/1/3
f 13/6/4 10/5/4 14/6/4
f 10/5/4 13/6/4 8/5/4
f 7/5/1 12/6/1 9/5/1
f 12/6/1 7/5/1 11/6/1
f 15/4/2 6/4/2 17/4/2
f 6/4/2 15/4/2 5/4/2
f 17/4/5 7/5/5 20/1/5
f 20/1/5 7/5/5 3/1/5
f 17/4/5 11/6/5 7/5/5
f 8/5/5 3/1/5 7/5/5
f 11/6/5 17/4/5 13/6/5
f 8/5/5 6/4/5 3/1/5
f 13/6/5 6/4/5 8/5/5
f 6/4/5 13/6/5 17/4/5
f 2/2/6 10/5/6 1/1/6
f 4/3/6 10/5/6 2/2/6
f 1/1/6 10/5/6 19/1/6
f 5/4/6 10/5/6 4/3/6
f 5/4/6 14/6/6 10/5/6
f 14/6/6 5/4/6 12/6/6
f 15/4/6 12/6/6 5/4/6
f 9/5/6 19/1/6 10/5/6
f 12/6/6 15/4/6 9/5/6
f 9/5/6 18/2/6 19/1/6
f 9/5/6 15/4/6 16/3/6
f 9/5/6 16/3/6 18/2/6

g window-brown-large




usemtl colormap

f 3/1/1 2/2/1 1/1/1
f 2/2/1 3/1/1 4/3/1
f 4/3/1 3/1/1 5/4/1
f 5/4/1 3/1/1 6/4/1
f 9/5/2 8/5/2 7/5/2
f 8/5/2 9/5/2 10/5/2
f 13/6/3 12/6/3 11/6/3
f 12/6/3 13/6/3 14/6/3
f 17/4/4 16/3/4 15/4/4
f 16/3/4 17/4/4 18/2/4
f 18/2/4 17/4/4 19/1/4
f 19/1/4 17/4/4 20/1/4
f 3/1/3 19/1/3 20/1/3
f 19/1/3 3/1/3 1/1/3
f 13/6/4 10/5/4 14/6/4
f 10/5/4 13/6/4 8/5/4
f 7/5/1 12/6/1 9/5/1
f 12/6/1 7/5/1 11/6/1
f 15/4/2 6/4/2 17/4/2
f 6/4/2 15/4/2 5/4/2
f 17/4/5 7/5/5 20/1/5
f 20/1/5 7/5/5 3/1/5
f 17/4/5 11/6/5 7/5/5
f 8/5/5 3/1/5 7/5/5
f 11/6/5 17/4/5 13/6/5
f 8/5/5 6/4/5 3/1/5
f 13/6/5 6/4/5 8/5/5
f 6/4/5 13/6/5 17/4/5
f 2/2/6 10/5/6 1/1/6
f 4/3/6 10/5/6 2/2/6
f 1/1/6 10/5/6 19/1/6
f 5/4/6 10/5/6 4/3/6
f 5/4/6 14/6/6 10/5/6
f 14/6/6 5/4/6 12/6/6
f 15/4/6 12/6/6 5/4/6
f 9/5/6 19/1/6 10/5/6
f 12/6/6 15/4/6 9/5/6
f 9/5/6 18/2/6 19/1/6
f 9/5/6 15/4/6 16/3/6
f 9/5/6 16/3/6 18/2/6

