# Created by Kenney (www.kenney.nl)

mtllib window-brown-round-top.mtl

g window-brown-round-top

v -0.15625 0 7.190237E-13 1 1 1
v -0.10625 5.639933E-16 6.042399E-13 1 1 1
v -0.15625 0.31 7.190237E-13 1 1 1
v -0.10625 0.3000544 6.042399E-13 1 1 1
v -0.07221709 0.3822171 5.248296E-13 1 1 1
v -0.1104854 0.4204854 6.121809E-13 1 1 1
v 7.608737E-10 0.4121304 3.5879E-13 1 1 1
v 0.1104854 0.4204854 1.039552E-13 1 1 1
v 1.164096E-09 0.46625 3.5879E-13 1 1 1
v 0.07221709 0.3822171 1.920284E-13 1 1 1
v 0.15625 0.31 0 1 1 1
v 0.10625 0.3000544 1.147839E-13 1 1 1
v 0.10625 5.639933E-16 1.147839E-13 1 1 1
v 0.15625 0 0 1 1 1
v 1.164211E-09 0.46625 0.05 1 1 1
v -0.1104854 0.4204854 0.05 1 1 1
v -0.15625 4.511946E-17 0.05 1 1 1
v -0.15625 0.31 0.05 1 1 1
v 0.1104854 0.4204854 0.05 1 1 1
v 0.15625 4.511946E-17 0.05 1 1 1
v 0.10625 6.091128E-16 0.05 1 1 1
v 7.609892E-10 0.4121304 0.05 1 1 1
v -0.07221709 0.3822171 0.05 1 1 1
v 0.10625 0.3000544 0.05 1 1 1
v 0.15625 0.31 0.05 1 1 1
v -0.10625 0.3000544 0.05 1 1 1
v -0.10625 6.091128E-16 0.05 1 1 1
v 0.07221709 0.3822171 0.05 1 1 1

vn 0 0 -1
vn 0 1 0
vn -0.7071068 0.7071068 0
vn -1 0 0
vn 0.7071068 0.7071068 0
vn 0 -1 0
vn 0.7071068 -0.7071068 0
vn 1 0 0
vn 0.9238795 -0.3826834 0
vn -0.9238795 0.3826834 0
vn 0.9238795 0.3826834 0
vn 0 0 1
vn -0.7071068 -0.7071068 0
vn -0.9238795 -0.3826834 0

vt 0.59375 0.025
vt 0.59375 0.1579759
vt 0.59375 0.1537097
vt 0.59375 0.1889537
vt 0.59375 0.2053691
vt 0.59375 0.2017851
vt 0.59375 0.225

usemtl colormap

f 3/2/1 2/1/1 1/1/1
f 2/1/1 3/2/1 4/3/1
f 4/3/1 3/2/1 5/4/1
f 5/4/1 3/2/1 6/5/1
f 5/4/1 6/5/1 7/6/1
f 7/6/1 6/5/1 8/5/1
f 8/5/1 6/5/1 9/7/1
f 8/5/1 10/4/1 7/6/1
f 11/2/1 10/4/1 8/5/1
f 11/2/1 12/3/1 10/4/1
f 11/2/1 13/1/1 12/3/1
f 13/1/1 11/2/1 14/1/1
f 9/7/2 16/5/3 15/7/2
f 16/5/3 9/7/2 6/5/3
f 17/1/4 3/2/4 1/1/4
f 3/2/4 17/1/4 18/2/4
f 8/5/5 15/7/2 19/5/5
f 15/7/2 8/5/5 9/7/2
f 21/1/6 14/1/6 20/1/6
f 14/1/6 21/1/6 13/1/6
f 23/4/7 7/6/6 22/6/6
f 7/6/6 23/4/7 5/4/7
f 21/1/4 12/3/4 13/1/4
f 12/3/4 21/1/4 24/3/4
f 25/2/8 14/1/8 11/2/8
f 14/1/8 25/2/8 20/1/8
f 23/4/7 4/3/9 5/4/7
f 4/3/9 23/4/7 26/3/9
f 3/2/10 16/5/3 6/5/3
f 16/5/3 3/2/10 18/2/10
f 26/3/8 2/1/8 4/3/8
f 2/1/8 26/3/8 27/1/8
f 8/5/5 25/2/11 11/2/11
f 25/2/11 8/5/5 19/5/5
f 25/2/12 21/1/12 20/1/12
f 21/1/12 25/2/12 24/3/12
f 24/3/12 25/2/12 28/4/12
f 28/4/12 25/2/12 19/5/12
f 28/4/12 19/5/12 22/6/12
f 16/5/12 22/6/12 19/5/12
f 16/5/12 19/5/12 15/7/12
f 16/5/12 23/4/12 22/6/12
f 18/2/12 23/4/12 16/5/12
f 18/2/12 26/3/12 23/4/12
f 18/2/12 27/1/12 26/3/12
f 27/1/12 18/2/12 17/1/12
f 22/6/6 10/4/13 28/4/13
f 10/4/13 22/6/6 7/6/6
f 24/3/14 10/4/13 12/3/14
f 10/4/13 24/3/14 28/4/13
f 17/1/6 2/1/6 27/1/6
f 2/1/6 17/1/6 1/1/6

g window-brown-round-top




usemtl colormap

f 3/2/1 2/1/1 1/1/1
f 2/1/1 3/2/1 4/3/1
f 4/3/1 3/2/1 5/4/1
f 5/4/1 3/2/1 6/5/1
f 5/4/1 6/5/1 7/6/1
f 7/6/1 6/5/1 8/5/1
f 8/5/1 6/5/1 9/7/1
f 8/5/1 10/4/1 7/6/1
f 11/2/1 10/4/1 8/5/1
f 11/2/1 12/3/1 10/4/1
f 11/2/1 13/1/1 12/3/1
f 13/1/1 11/2/1 14/1/1
f 9/7/2 16/5/3 15/7/2
f 16/5/3 9/7/2 6/5/3
f 17/1/4 3/2/4 1/1/4
f 3/2/4 17/1/4 18/2/4
f 8/5/5 15/7/2 19/5/5
f 15/7/2 8/5/5 9/7/2
f 21/1/6 14/1/6 20/1/6
f 14/1/6 21/1/6 13/1/6
f 23/4/7 7/6/6 22/6/6
f 7/6/6 23/4/7 5/4/7
f 21/1/4 12/3/4 13/1/4
f 12/3/4 21/1/4 24/3/4
f 25/2/8 14/1/8 11/2/8
f 14/1/8 25/2/8 20/1/8
f 23/4/7 4/3/9 5/4/7
f 4/3/9 23/4/7 26/3/9
f 3/2/10 16/5/3 6/5/3
f 16/5/3 3/2/10 18/2/10
f 26/3/8 2/1/8 4/3/8
f 2/1/8 26/3/8 27/1/8
f 8/5/5 25/2/11 11/2/11
f 25/2/11 8/5/5 19/5/5
f 25/2/12 21/1/12 20/1/12
f 21/1/12 25/2/12 24/3/12
f 24/3/12 25/2/12 28/4/12
f 28/4/12 25/2/12 19/5/12
f 28/4/12 19/5/12 22/6/12
f 16/5/12 22/6/12 19/5/12
f 16/5/12 19/5/12 15/7/12
f 16/5/12 23/4/12 22/6/12
f 18/2/12 23/4/12 16/5/12
f 18/2/12 26/3/12 23/4/12
f 18/2/12 27/1/12 26/3/12
f 27/1/12 18/2/12 17/1/12
f 22/6/6 10/4/13 28/4/13
f 10/4/13 22/6/6 7/6/6
f 24/3/14 10/4/13 12/3/14
f 10/4/13 24/3/14 28/4/13
f 17/1/6 2/1/6 27/1/6
f 2/1/6 17/1/6 1/1/6

