# Created by Kenney (www.kenney.nl)

mtllib window-white-wide.mtl

g window-white-wide

v -0.375 0 -0.025 1 1 1
v -0.375 0.38 -0.025 1 1 1
v -0.375 0 0.025 1 1 1
v -0.375 0.38 0.025 1 1 1
v 0.3272583 0.04774169 0.025 1 1 1
v -0.3272583 0.04774169 0.025 1 1 1
v 0.3272583 0.04774169 -0.025 1 1 1
v -0.3272583 0.04774169 -0.025 1 1 1
v 0.375 0.38 -0.025 1 1 1
v 0.375 0 -0.025 1 1 1
v 0.375 0.38 0.025 1 1 1
v 0.375 0 0.025 1 1 1
v 0.3272583 0.3322583 0.025 1 1 1
v 0.3272583 0.3322583 -0.025 1 1 1
v -0.3272583 0.3322583 0.025 1 1 1
v -0.3272583 0.3322583 -0.025 1 1 1
v -0.3272583 0.2138708 -0.025 1 1 1
v -0.3272583 0.1661292 -0.025 1 1 1
v 0.3272583 0.1661292 -0.025 1 1 1
v 0.3272583 0.2138708 -0.025 1 1 1

vn -1 0 0
vn 0 1 0
vn 1 0 0
vn 0 -1 0
vn 0 0 -1
vn 0 0 1

vt 0.46875 0.025
vt 0.46875 0.225
vt 0.46875 0.0501272
vt 0.46875 0.1998728
vt 0.46875 0.1375636
vt 0.46875 0.1124364

usemtl colormap

f 3/1/1 2/2/1 1/1/1
f 2/2/1 3/1/1 4/2/1
f 7/3/2 6/3/2 5/3/2
f 6/3/2 7/3/2 8/3/2
f 11/2/3 10/1/3 9/2/3
f 10/1/3 11/2/3 12/1/3
f 15/4/4 14/4/4 13/4/4
f 14/4/4 15/4/4 16/4/4
f 15/4/3 17/5/3 16/4/3
f 17/5/3 15/4/3 18/6/3
f 18/6/3 15/4/3 8/3/3
f 8/3/3 15/4/3 6/3/3
f 5/3/1 19/6/1 7/3/1
f 19/6/1 5/3/1 20/5/1
f 20/5/1 5/3/1 14/4/1
f 14/4/1 5/3/1 13/4/1
f 9/2/2 4/2/2 11/2/2
f 4/2/2 9/2/2 2/2/2
f 3/1/4 10/1/4 12/1/4
f 10/1/4 3/1/4 1/1/4
f 9/2/5 19/6/5 20/5/5
f 9/2/5 20/5/5 14/4/5
f 9/2/5 7/3/5 19/6/5
f 10/1/5 7/3/5 9/2/5
f 9/2/5 14/4/5 2/2/5
f 7/3/5 10/1/5 8/3/5
f 1/1/5 8/3/5 10/1/5
f 8/3/5 1/1/5 2/2/5
f 16/4/5 2/2/5 14/4/5
f 8/3/5 2/2/5 18/6/5
f 17/5/5 2/2/5 16/4/5
f 18/6/5 2/2/5 17/5/5
f 5/3/6 11/2/6 13/4/6
f 13/4/6 11/2/6 15/4/6
f 5/3/6 12/1/6 11/2/6
f 4/2/6 15/4/6 11/2/6
f 12/1/6 5/3/6 3/1/6
f 4/2/6 6/3/6 15/4/6
f 3/1/6 6/3/6 4/2/6
f 6/3/6 3/1/6 5/3/6

g window-white-wide




usemtl colormap

f 3/1/1 2/2/1 1/1/1
f 2/2/1 3/1/1 4/2/1
f 7/3/2 6/3/2 5/3/2
f 6/3/2 7/3/2 8/3/2
f 11/2/3 10/1/3 9/2/3
f 10/1/3 11/2/3 12/1/3
f 15/4/4 14/4/4 13/4/4
f 14/4/4 15/4/4 16/4/4
f 15/4/3 17/5/3 16/4/3
f 17/5/3 15/4/3 18/6/3
f 18/6/3 15/4/3 8/3/3
f 8/3/3 15/4/3 6/3/3
f 5/3/1 19/6/1 7/3/1
f 19/6/1 5/3/1 20/5/1
f 20/5/1 5/3/1 14/4/1
f 14/4/1 5/3/1 13/4/1
f 9/2/2 4/2/2 11/2/2
f 4/2/2 9/2/2 2/2/2
f 3/1/4 10/1/4 12/1/4
f 10/1/4 3/1/4 1/1/4
f 9/2/5 19/6/5 20/5/5
f 9/2/5 20/5/5 14/4/5
f 9/2/5 7/3/5 19/6/5
f 10/1/5 7/3/5 9/2/5
f 9/2/5 14/4/5 2/2/5
f 7/3/5 10/1/5 8/3/5
f 1/1/5 8/3/5 10/1/5
f 8/3/5 1/1/5 2/2/5
f 16/4/5 2/2/5 14/4/5
f 8/3/5 2/2/5 18/6/5
f 17/5/5 2/2/5 16/4/5
f 18/6/5 2/2/5 17/5/5
f 5/3/6 11/2/6 13/4/6
f 13/4/6 11/2/6 15/4/6
f 5/3/6 12/1/6 11/2/6
f 4/2/6 15/4/6 11/2/6
f 12/1/6 5/3/6 3/1/6
f 4/2/6 6/3/6 15/4/6
f 3/1/6 6/3/6 4/2/6
f 6/3/6 3/1/6 5/3/6

