# Created by Kenney (www.kenney.nl)

mtllib window-white-large.mtl

g window-white-large

v 0.1875 0.5 0.05 1 1 1
v -0.1875 0.5 0.05 1 1 1
v 0.1875 0.5 0 1 1 1
v -0.1875 0.5 3.739501E-13 1 1 1
v 0.1875 0 0 1 1 1
v 0.1875 0 0.05 1 1 1
v 0.1397583 0.04774169 0.05 1 1 1
v -0.1397583 0.04774169 0.05 1 1 1
v 0.1397583 0.04774169 4.764615E-14 1 1 1
v -0.1397583 0.04774169 3.26304E-13 1 1 1
v -0.1875 0 3.739501E-13 1 1 1
v -0.1875 0 0.05 1 1 1
v 0.1397583 0.1661292 4.764615E-14 1 1 1
v 0.1397583 0.2138708 4.764615E-14 1 1 1
v 0.1397583 0.4522583 4.764615E-14 1 1 1
v 0.1397583 0.4522583 0.05 1 1 1
v -0.1397583 0.4522583 0.05 1 1 1
v -0.1397583 0.4522583 3.26304E-13 1 1 1
v -0.1397583 0.2138708 3.26304E-13 1 1 1
v -0.1397583 0.1661292 3.26304E-13 1 1 1

vn 0 1 0
vn 1 0 0
vn -1 0 0
vn 0 -1 0
vn 0 0 1
vn 0 0 -1

vt 0.46875 0.225
vt 0.46875 0.025
vt 0.46875 0.04409667
vt 0.46875 0.09145166
vt 0.46875 0.1105483
vt 0.46875 0.2059033

usemtl colormap

f 3/1/1 2/1/1 1/1/1
f 2/1/1 3/1/1 4/1/1
f 1/1/2 5/2/2 3/1/2
f 5/2/2 1/1/2 6/2/2
f 9/3/1 8/3/1 7/3/1
f 8/3/1 9/3/1 10/3/1
f 12/2/3 4/1/3 11/2/3
f 4/1/3 12/2/3 2/1/3
f 12/2/4 5/2/4 6/2/4
f 5/2/4 12/2/4 11/2/4
f 7/3/3 13/4/3 9/3/3
f 13/4/3 7/3/3 14/5/3
f 14/5/3 7/3/3 15/6/3
f 15/6/3 7/3/3 16/6/3
f 17/6/4 15/6/4 16/6/4
f 15/6/4 17/6/4 18/6/4
f 17/6/2 19/5/2 18/6/2
f 19/5/2 17/6/2 20/4/2
f 20/4/2 17/6/2 10/3/2
f 10/3/2 17/6/2 8/3/2
f 6/2/5 7/3/5 12/2/5
f 7/3/5 6/2/5 1/1/5
f 8/3/5 12/2/5 7/3/5
f 7/3/5 1/1/5 16/6/5
f 12/2/5 8/3/5 2/1/5
f 16/6/5 1/1/5 17/6/5
f 2/1/5 8/3/5 17/6/5
f 2/1/5 17/6/5 1/1/5
f 3/1/6 13/4/6 14/5/6
f 3/1/6 14/5/6 15/6/6
f 3/1/6 9/3/6 13/4/6
f 5/2/6 9/3/6 3/1/6
f 3/1/6 15/6/6 4/1/6
f 9/3/6 5/2/6 10/3/6
f 11/2/6 10/3/6 5/2/6
f 10/3/6 11/2/6 4/1/6
f 18/6/6 4/1/6 15/6/6
f 10/3/6 4/1/6 20/4/6
f 19/5/6 4/1/6 18/6/6
f 20/4/6 4/1/6 19/5/6

g window-white-large




usemtl colormap

f 3/1/1 2/1/1 1/1/1
f 2/1/1 3/1/1 4/1/1
f 1/1/2 5/2/2 3/1/2
f 5/2/2 1/1/2 6/2/2
f 9/3/1 8/3/1 7/3/1
f 8/3/1 9/3/1 10/3/1
f 12/2/3 4/1/3 11/2/3
f 4/1/3 12/2/3 2/1/3
f 12/2/4 5/2/4 6/2/4
f 5/2/4 12/2/4 11/2/4
f 7/3/3 13/4/3 9/3/3
f 13/4/3 7/3/3 14/5/3
f 14/5/3 7/3/3 15/6/3
f 15/6/3 7/3/3 16/6/3
f 17/6/4 15/6/4 16/6/4
f 15/6/4 17/6/4 18/6/4
f 17/6/2 19/5/2 18/6/2
f 19/5/2 17/6/2 20/4/2
f 20/4/2 17/6/2 10/3/2
f 10/3/2 17/6/2 8/3/2
f 6/2/5 7/3/5 12/2/5
f 7/3/5 6/2/5 1/1/5
f 8/3/5 12/2/5 7/3/5
f 7/3/5 1/1/5 16/6/5
f 12/2/5 8/3/5 2/1/5
f 16/6/5 1/1/5 17/6/5
f 2/1/5 8/3/5 17/6/5
f 2/1/5 17/6/5 1/1/5
f 3/1/6 13/4/6 14/5/6
f 3/1/6 14/5/6 15/6/6
f 3/1/6 9/3/6 13/4/6
f 5/2/6 9/3/6 3/1/6
f 3/1/6 15/6/6 4/1/6
f 9/3/6 5/2/6 10/3/6
f 11/2/6 10/3/6 5/2/6
f 10/3/6 11/2/6 4/1/6
f 18/6/6 4/1/6 15/6/6
f 10/3/6 4/1/6 20/4/6
f 19/5/6 4/1/6 18/6/6
f 20/4/6 4/1/6 19/5/6

